<svg width="13" height="10" viewBox="0 0 13 10" fill="none" xmlns="http://www.w3.org/2000/svg">
<path opacity="0.5" d="M12.7461 3.47461C12.1621 3.93164 11.4258 4.49023 8.83594 6.36914C8.32812 6.75 7.38867 7.58789 6.5 7.58789C5.58594 7.58789 4.67188 6.75 4.13867 6.36914C1.54883 4.49023 0.8125 3.93164 0.228516 3.47461C0.126953 3.39844 0 3.47461 0 3.60156V8.78125C0 9.4668 0.533203 10 1.21875 10H11.7812C12.4414 10 13 9.4668 13 8.78125V3.60156C13 3.47461 12.8477 3.39844 12.7461 3.47461ZM6.5 6.75C7.08398 6.77539 7.92188 6.01367 8.35352 5.70898C11.7305 3.27148 11.9844 3.04297 12.7461 2.43359C12.8984 2.33203 13 2.1543 13 1.95117V1.46875C13 0.808594 12.4414 0.25 11.7812 0.25H1.21875C0.533203 0.25 0 0.808594 0 1.46875V1.95117C0 2.1543 0.0761719 2.33203 0.228516 2.43359C0.990234 3.04297 1.24414 3.27148 4.62109 5.70898C5.05273 6.01367 5.89062 6.77539 6.5 6.75Z" fill="#333333"/>
</svg>
