<svg width="18" height="18" viewBox="0 0 18 18" fill="none" xmlns="http://www.w3.org/2000/svg">
<path d="M17.7535 15.5622L14.2485 12.0574C14.0903 11.8992 13.8758 11.8113 13.6508 11.8113H13.0778C14.0481 10.5705 14.6246 9.00967 14.6246 7.31179C14.6246 3.27273 11.3517 0 7.31232 0C3.27297 0 0 3.27273 0 7.31179C0 11.3508 3.27297 14.6236 7.31232 14.6236C9.01033 14.6236 10.5712 14.0471 11.8122 13.0768V13.6498C11.8122 13.8748 11.9001 14.0892 12.0583 14.2474L15.5633 17.7522C15.8938 18.0826 16.4281 18.0826 16.7551 17.7522L17.75 16.7573C18.0804 16.4269 18.0804 15.8926 17.7535 15.5622ZM7.31232 11.8113C4.82684 11.8113 2.81243 9.80061 2.81243 7.31179C2.81243 4.82648 4.82332 2.81223 7.31232 2.81223C9.79781 2.81223 11.8122 4.82297 11.8122 7.31179C11.8122 9.79709 9.80132 11.8113 7.31232 11.8113Z" fill="white"/>
</svg>
