<svg width="60" height="60" viewBox="0 0 60 60" fill="none" xmlns="http://www.w3.org/2000/svg">
<g clip-path="url(#clip0)">
<path d="M55.4623 41.4551H11.0504C6.62645 41.4551 3.04004 45.0414 3.04004 49.4654C3.04004 53.8894 6.62633 57.4758 11.0504 57.4758H55.4623V41.4551Z" fill="#FDD79B"/>
<path d="M12.8205 49.4656C12.8205 46.2479 13.9373 43.3706 15.6928 41.4553H11.0504C6.62644 41.4553 3.04004 45.0417 3.04004 49.4656C3.04004 53.8895 6.62644 57.4759 11.0504 57.4759H15.6928C13.9373 55.5605 12.8205 52.6832 12.8205 49.4656Z" fill="#FCCD7F"/>
<path d="M13.8584 58.9654H10.5524C5.20992 58.9654 0.878906 54.6343 0.878906 49.2919C0.878906 43.9494 5.20992 39.6184 10.5524 39.6184H58.0498C58.5314 39.6184 58.9219 40.0089 58.9219 40.4905V43.1993C58.9219 43.6809 58.5314 44.0714 58.0498 44.0714H10.6451C7.72394 44.0714 5.28281 46.4619 5.33285 49.3826C5.38148 52.2195 7.70426 54.5121 10.5525 54.5121H13.8584H58.0498C58.5314 54.5121 58.9219 54.9026 58.9219 55.3842V58.093C58.9219 58.5747 58.5314 58.9651 58.0498 58.9651H13.8584V58.9654Z" fill="#9CF8D2"/>
<path d="M24.2424 58.6842L21.1478 57.4035L18.0532 58.6842C17.7298 58.818 17.374 58.5804 17.374 58.2302V49.2917H24.9215V58.2302C24.9216 58.5803 24.5658 58.818 24.2424 58.6842Z" fill="#EE6161"/>
<path d="M4.36035 21.6455H47.6117C52.0922 21.6455 55.7243 25.2776 55.7243 29.7582C55.7243 34.2387 52.0922 37.8708 47.6117 37.8708H4.36035V21.6455Z" fill="#FDD79B"/>
<path d="M4.36035 21.6455H14.2313V37.8708H4.36035V21.6455Z" fill="#FCCD7F"/>
<path d="M45.9639 39.6182H49.2699C54.6123 39.6182 58.9434 35.2872 58.9434 29.9447C58.9434 24.6023 54.6123 20.2712 49.2699 20.2712H1.7725C1.29086 20.2712 0.900391 20.6617 0.900391 21.1434V23.8521C0.900391 24.3338 1.29086 24.7243 1.7725 24.7243H49.1772C52.0983 24.7243 54.5395 27.1148 54.4894 30.0354C54.4408 32.8723 52.118 35.165 49.2698 35.165H45.9639H1.7725C1.29086 35.165 0.900391 35.5554 0.900391 36.0371V38.7459C0.900391 39.2275 1.29086 39.618 1.7725 39.618H45.9639V39.6182Z" fill="#F47C7C"/>
<path d="M1.7725 24.7242H14.0664C13.5848 24.7242 13.1943 24.3338 13.1943 23.8521V21.1433C13.1943 20.6617 13.5848 20.2712 14.0664 20.2712H1.7725C1.29086 20.2712 0.900391 20.6617 0.900391 21.1433V23.8521C0.900391 24.3338 1.29086 24.7242 1.7725 24.7242Z" fill="#EE6161"/>
<path d="M13.1943 38.7462V36.0374C13.1943 35.5558 13.5848 35.1653 14.0664 35.1653H1.7725C1.29086 35.1653 0.900391 35.5558 0.900391 36.0374V38.7462C0.900391 39.2278 1.29086 39.6183 1.7725 39.6183H14.0664C13.5848 39.6183 13.1943 39.2278 13.1943 38.7462Z" fill="#EE6161"/>
<path d="M55.4625 2.32837H10.1807C5.74355 2.32837 2.14648 5.92544 2.14648 10.3626C2.14648 14.7998 5.74355 18.3969 10.1807 18.3969H55.4625V2.32837Z" fill="#FDD79B"/>
<path d="M11.2445 10.8147C11.2445 7.32677 12.9465 4.23677 15.5648 2.32837H10.1807C5.74355 2.32837 2.14648 5.92544 2.14648 10.3626C2.14648 14.7998 5.74355 18.3969 10.1807 18.3969H14.4834C12.4875 16.4865 11.2445 13.7959 11.2445 10.8147Z" fill="#FCCD7F"/>
<path d="M35.4893 39.3749L38.675 38.0564L41.8608 39.3749C42.1409 39.4908 42.4488 39.285 42.4488 38.9819V29.9448H34.9014V38.9819C34.9013 39.285 35.2092 39.4908 35.4893 39.3749Z" fill="#FDB441"/>
<path d="M59.0107 16.69V19.3994C59.0107 19.8811 58.6193 20.2713 58.1377 20.2713H13.9463H10.6404C7.96973 20.2713 5.55098 19.1885 3.80019 17.4377C2.05059 15.6869 0.967773 13.2693 0.967773 10.5975C0.967773 5.25488 5.29785 0.924805 10.6404 0.924805H58.1377C58.6193 0.924805 59.0107 1.31504 59.0107 1.79668V4.50488C59.0107 4.98652 58.6193 5.37793 58.1377 5.37793H10.733C7.81269 5.37793 5.37168 7.76738 5.4209 10.6889C5.47012 13.5248 7.79277 15.8182 10.6404 15.8182H13.9463H58.1377C58.6193 15.8182 59.0107 16.2084 59.0107 16.69Z" fill="#FDB441"/>
<path d="M12.5114 15.8182H10.6404C7.79277 15.8182 5.47012 13.5248 5.4209 10.6889C5.37168 7.76738 7.81269 5.37793 10.733 5.37793H12.7606C14.0039 3.32902 15.9291 1.7402 18.2211 0.924805H10.6404C5.29785 0.924805 0.967773 5.25488 0.967773 10.5975C0.967773 13.2693 2.05059 15.6869 3.8002 17.4377C5.55098 19.1885 7.96973 20.2713 10.6404 20.2713H13.9463H17.1822C15.1975 19.313 13.5604 17.7486 12.5114 15.8182Z" fill="#FEA613"/>
<path d="M24.5363 20.0752L21.2366 18.7095L17.9368 20.0752C17.7111 20.1686 17.4629 20.0027 17.4629 19.7584V10.5979H25.0104V19.7584C25.0102 20.0027 24.762 20.1686 24.5363 20.0752Z" fill="#9CF8D2"/>
<path d="M13.8172 54.5122H10.5524C7.70414 54.5122 5.38137 52.2195 5.33273 49.3827C5.2827 46.462 7.72383 44.0715 10.645 44.0715H13.971C14.9227 42.0195 16.4009 40.4295 18.1616 39.6184H10.5524C5.20992 39.6184 0.878906 43.9494 0.878906 49.2919C0.878906 54.6343 5.20992 58.9654 10.5524 58.9654H13.8584H17.5022C15.9386 58.0328 14.6454 56.4636 13.8172 54.5122Z" fill="#6CF5C2"/>
<path d="M26.4516 48.4128H24.921H17.3735H15.4277C14.9423 48.4128 14.5488 48.8062 14.5488 49.2917C14.5488 49.7773 14.9423 50.1707 15.4277 50.1707H16.4946V58.9652C16.4946 59.2588 16.6411 59.5329 16.8852 59.6959C17.1293 59.8589 17.4386 59.8895 17.7097 59.7772L21.1473 58.3544L24.5849 59.7772C24.693 59.822 24.8072 59.844 24.921 59.844C25.0924 59.844 25.2628 59.7939 25.4094 59.6958C25.6535 59.5326 25.8 59.2587 25.8 58.9651V50.1705H26.4517C26.9371 50.1705 27.3306 49.7771 27.3306 49.2916C27.3306 48.8061 26.937 48.4128 26.4516 48.4128ZM24.0422 57.6503L21.4835 56.5912C21.3759 56.5467 21.2617 56.5244 21.1474 56.5244C21.0332 56.5244 20.9189 56.5467 20.8113 56.5912L18.2527 57.6503V50.1707H24.0423V57.6503H24.0422Z" fill="black"/>
<path d="M18.8945 34.2861C18.4091 34.2861 18.0156 34.6795 18.0156 35.165C18.0156 35.6505 18.4091 36.0439 18.8945 36.0439H31.3857C31.8712 36.0439 32.2646 35.6505 32.2646 35.165C32.2646 34.6795 31.8712 34.2861 31.3857 34.2861H18.8945Z" fill="black"/>
<path d="M34.4132 40.3491C34.6571 40.5122 34.9664 40.5427 35.2378 40.4304L38.6754 39.0076L42.1129 40.4304C42.2211 40.4752 42.3352 40.4972 42.4489 40.4972C42.6203 40.4972 42.7907 40.447 42.9375 40.349C43.1814 40.1858 43.3279 39.9118 43.3279 39.6183V30.8237H44.3948C44.8803 30.8237 45.2737 30.4303 45.2737 29.9448C45.2737 29.4593 44.8803 29.0659 44.3948 29.0659H42.449H34.9017H33.3711C32.8856 29.0659 32.4922 29.4593 32.4922 29.9448C32.4922 30.4303 32.8856 30.8237 33.3711 30.8237H34.0228V39.6183C34.0228 39.912 34.1693 40.1861 34.4132 40.3491ZM41.5701 30.8238V38.3034L39.0114 37.2444C38.9039 37.1999 38.7895 37.1776 38.6754 37.1776C38.5612 37.1776 38.4468 37.1999 38.3393 37.2444L35.7806 38.3034V30.8238H41.5701Z" fill="black"/>
<path d="M58.1384 6.25623C59.1039 6.25623 59.8894 5.47072 59.8894 4.50522V1.79631C59.8894 0.830918 59.1039 0.0454102 58.1384 0.0454102H10.6411C4.8225 0.0454102 0.0887109 4.7792 0.0887109 10.5978C0.0887109 14.2648 1.96934 17.5005 4.81629 19.3924H1.77305C0.807539 19.3924 0.0220312 20.1779 0.0220312 21.1434V23.8523C0.0220312 24.8177 0.807539 25.6032 1.77305 25.6032H3.48141V34.2862H1.77305C0.807539 34.2862 0.0220312 35.0717 0.0220312 36.0372V38.746C0.0220312 39.7115 0.807539 40.497 1.77305 40.497H4.72758C1.88062 42.389 0 45.6247 0 49.2918C0 55.1104 4.73379 59.8442 10.5524 59.8442H13.8582C14.3436 59.8442 14.7371 59.4508 14.7371 58.9653C14.7371 58.4798 14.3436 58.0864 13.8582 58.0864H10.5524C5.70305 58.0864 1.75781 54.1412 1.75781 49.2918C1.75781 44.4424 5.70305 40.4971 10.5524 40.4971H29.2432H31.3857C31.8713 40.4971 32.2646 40.1037 32.2646 39.6182C32.2646 39.1327 31.8713 38.7393 31.3857 38.7393L29.2528 38.7398C29.2495 38.7398 29.2465 38.7393 29.2432 38.7393H10.5524C10.4494 38.7393 10.3468 38.7412 10.2445 38.7441L1.77973 38.7461L1.77293 36.044H15.1489C15.6343 36.044 16.0279 35.6506 16.0279 35.1651C16.0279 34.6796 15.6343 34.2862 15.1489 34.2862H5.23922V25.6032H49.1777C50.3652 25.6032 51.5275 26.0927 52.3664 26.946C53.1888 27.7826 53.6309 28.8745 53.6112 30.0203C53.5709 32.3725 51.6236 34.2861 49.2704 34.2861H45.9645C45.4789 34.2861 45.0855 34.6795 45.0855 35.165C45.0855 35.6505 45.4789 36.0439 45.9645 36.0439H49.2704C52.5764 36.0439 55.3121 33.3553 55.3688 30.0503C55.3964 28.4293 54.7754 26.8891 53.6198 25.7137C52.4527 24.5262 50.8336 23.8453 49.1777 23.8453L4.46297 23.8517C4.42922 23.8478 4.39512 23.8453 4.36043 23.8453C4.32562 23.8453 4.29141 23.8478 4.25766 23.8518L1.77996 23.8522L1.77305 21.1501H10.641H10.8764H13.947C14.4323 21.1501 14.8259 20.7567 14.8259 20.2712C14.8259 19.7856 14.4323 19.3922 13.947 19.3922H10.8765H10.6411C5.79176 19.3922 1.84652 15.447 1.84652 10.5977C1.84652 5.74834 5.79176 1.80311 10.6411 1.80311L58.1316 1.79619L58.1384 4.49842H51.5357C51.0502 4.49842 50.6568 4.89182 50.6568 5.37732C50.6568 5.86283 51.0502 6.25623 51.5357 6.25623H54.8093V14.9391H28.5257C28.0403 14.9391 27.6468 15.3325 27.6468 15.818C27.6468 16.3035 28.0403 16.6969 28.5257 16.6969L55.5875 16.6907C55.6206 16.6945 55.6541 16.6969 55.6881 16.6969C55.7223 16.6969 55.7558 16.6945 55.789 16.6907L58.1316 16.6901L58.1384 19.3922H49.2704H32.9627H28.5257C28.0403 19.3922 27.6468 19.7856 27.6468 20.2712C27.6468 20.7567 28.0403 21.1501 28.5257 21.1501H32.9627H49.2704C54.1198 21.1501 58.065 25.0953 58.065 29.9447C58.065 34.7941 54.1198 38.7393 49.2704 38.7393H48.3947H45.9645C45.4789 38.7393 45.0855 39.1327 45.0855 39.6182C45.0855 40.1037 45.4789 40.4971 45.9645 40.4971H49.2704C49.2875 40.4971 49.3044 40.4965 49.3215 40.4964L58.0431 40.4903L58.0499 43.1924H10.6451C8.98922 43.1924 7.37016 43.8735 6.20285 45.0609C5.04738 46.2364 4.42629 47.7766 4.45406 49.3976C4.51066 52.7023 7.24641 55.3911 10.5525 55.3911H13.8584C14.3438 55.3911 14.7373 54.9977 14.7373 54.5122C14.7373 54.0267 14.3438 53.6333 13.8584 53.6333H10.5525C8.19926 53.6333 6.25195 51.7197 6.21164 49.3675C6.19195 48.2217 6.63398 47.1298 7.45641 46.2933C8.29535 45.4399 9.45762 44.9504 10.6451 44.9504H54.5836V53.6334H28.4371C27.9517 53.6334 27.5582 54.0268 27.5582 54.5123C27.5582 54.9978 27.9517 55.3912 28.4371 55.3912L58.0431 55.3844L58.0499 58.0865H28.4371C27.9517 58.0865 27.5582 58.4799 27.5582 58.9654C27.5582 59.4509 27.9517 59.8443 28.4371 59.8443H58.0498C59.0153 59.8443 59.8008 59.0588 59.8008 58.0933V55.3845C59.8008 54.419 59.0153 53.6335 58.0498 53.6335H56.3414V44.9505H58.0498C59.0153 44.9505 59.8008 44.165 59.8008 43.1995V40.4907C59.8008 39.5252 59.0153 38.7397 58.0498 38.7397H55.0952C57.9422 36.8478 59.8228 33.6123 59.8228 29.9451C59.8228 26.278 57.9422 23.0423 55.0952 21.1504H58.1384C59.1039 21.1504 59.8894 20.3649 59.8894 19.3994V16.6906C59.8894 15.7251 59.1039 14.9396 58.1384 14.9396H56.5671V6.25623H58.1384Z" fill="black"/>
<path d="M48.6683 5.37744C48.6683 4.89193 48.2749 4.49854 47.7894 4.49854H10.7329C9.07706 4.49854 7.45789 5.17963 6.2907 6.36697C5.13523 7.54236 4.51413 9.08256 4.54191 10.7037C4.59851 14.0084 7.33425 16.697 10.6403 16.697H13.9462C14.4316 16.697 14.8251 16.3037 14.8251 15.8181C14.8251 15.3326 14.4316 14.9392 13.9462 14.9392H10.6403C8.2871 14.9392 6.3398 13.0257 6.29949 10.6736C6.2798 9.52775 6.72183 8.43592 7.54425 7.59943C8.3832 6.74596 9.54546 6.25646 10.7329 6.25646H47.7894C48.2749 6.25635 48.6683 5.86295 48.6683 5.37744Z" fill="black"/>
<path d="M16.9741 21.0019C17.2182 21.1652 17.5274 21.1955 17.7986 21.0832L21.2362 19.6605L24.6737 21.0832C24.7819 21.128 24.8961 21.15 25.0098 21.15C25.1813 21.15 25.3517 21.0999 25.4983 21.0018C25.7424 20.8387 25.8889 20.5647 25.8889 20.2711V11.4766H26.5405C27.0259 11.4766 27.4195 11.0832 27.4195 10.5977C27.4195 10.1121 27.0259 9.71875 26.5405 9.71875H25.01H17.4625H15.5166C15.0312 9.71875 14.6377 10.1121 14.6377 10.5977C14.6377 11.0832 15.0312 11.4766 15.5166 11.4766H16.5835V20.2711C16.5835 20.5647 16.73 20.8388 16.9741 21.0019ZM24.1309 11.4766V18.9562L21.5723 17.8971C21.4647 17.8526 21.3504 17.8303 21.2362 17.8303C21.1219 17.8303 21.0077 17.8526 20.9001 17.8971L18.3414 18.9562V11.4766H24.1309Z" fill="black"/>
</g>
<defs>
<clipPath id="clip0">
<path d="M0 0H60V60H0V0Z" fill="white"/>
</clipPath>
</defs>
</svg>
