<svg width="60" height="60" viewBox="0 0 60 60" fill="none" xmlns="http://www.w3.org/2000/svg">
<g clip-path="url(#clip0)">
<path d="M59.0937 25.4254L59.0932 25.4259L57.3807 41.0219C57.2402 42.3037 56.5874 43.476 55.5712 44.2711L42.4883 54.515L40.53 58.8404H28.9092L32.8427 51.572C31.7899 50.6473 31.274 49.1989 31.5779 47.7712C31.6109 47.6133 31.6544 47.4567 31.7084 47.2997L34.2668 39.8555L35.5829 36.0273C35.6548 35.819 35.744 35.6221 35.8498 35.4377C36.6303 34.068 38.2704 33.3736 39.8342 33.8369C41.6098 34.3637 42.6549 36.1957 42.2045 37.992L40.5387 44.6415L48.7542 38.8636C49.7425 38.1678 50.4314 37.1245 50.6832 35.9412L53.1244 24.4655C53.4517 22.9256 54.9042 21.8943 56.4666 22.0925C56.8712 22.1437 57.2475 22.2728 57.5826 22.4633C58.6002 23.0432 59.2292 24.1895 59.0937 25.4254Z" fill="#FFCFA2"/>
<path d="M53.6879 42.4255C49.5186 47.8395 43.4056 48.333 38.7635 47.688C36.4618 47.3685 34.921 45.1593 35.4177 42.8893C37.1498 34.9713 38.5117 33.837 39.8342 33.837C38.2704 33.3737 36.6303 34.0677 35.8498 35.4378C35.7436 35.6223 35.6548 35.8191 35.5829 36.0274L34.2668 39.8557L32.1932 45.8894V45.8904L31.7084 47.2998C31.1673 48.8731 31.6736 50.5449 32.8427 51.5721L28.9092 58.8405H40.53L42.4883 54.5151L55.5712 44.2708C56.5874 43.4761 57.2402 42.3033 57.3807 41.0216L59.0932 25.426C55.291 27.6054 56.4212 38.7048 53.6879 42.4255Z" fill="#E8B07E"/>
<path d="M0.905979 25.4254L0.906436 25.4259L2.61847 41.0219C2.75946 42.3037 3.41178 43.476 4.42801 44.2711L17.5114 54.515L19.4692 58.8404H31.0905L27.1564 51.572C28.2098 50.6473 28.7252 49.1989 28.4212 47.7712C28.3883 47.6133 28.3452 47.4567 28.2912 47.2997L25.7323 39.8555L24.4163 36.0273C24.3449 35.819 24.2556 35.6221 24.1498 35.4377C23.3689 34.068 21.7292 33.3736 20.165 33.8369C18.3898 34.3637 17.3447 36.1957 17.7947 37.992L19.461 44.6415L11.2455 38.8636C10.2572 38.1678 9.56778 37.1245 9.31601 35.9412L6.87476 24.4655C6.54792 22.9256 5.09543 21.8943 3.53308 22.0925C3.12842 22.1437 2.75168 22.2728 2.4166 22.4633C1.39945 23.0432 0.77048 24.1895 0.905979 25.4254Z" fill="#FFCFA2"/>
<path d="M6.31152 42.4255C10.4808 47.8395 16.5938 48.333 21.236 47.688C23.5376 47.3685 25.078 45.1593 24.5818 42.8893C22.8496 34.9713 21.4878 33.837 20.1648 33.837C21.729 33.3737 23.3692 34.0677 24.1497 35.4378C24.2559 35.6223 24.3447 35.8191 24.4165 36.0274L25.7321 39.8557L27.8063 45.8894C27.8063 45.8894 27.8063 45.8904 27.8058 45.8904L28.291 47.2998C28.8321 48.8731 28.3258 50.5449 27.1562 51.5721L31.0903 58.84H19.4695L17.5112 54.5151L4.42828 44.2708C3.41205 43.4756 2.75928 42.3033 2.61874 41.0216L0.90625 25.426C4.70798 27.6054 3.57776 38.7048 6.31152 42.4255Z" fill="#E8B07E"/>
<path d="M49.0757 9.54346C49.0757 18.3481 29.9998 32.9384 29.9998 32.9384C29.9998 32.9384 29.9988 32.937 29.9975 32.9356C29.7489 32.7466 10.9238 18.2899 10.9238 9.54346C10.9238 0.738828 24.1303 -3.66257 29.9998 7.70965C33.5396 0.851438 39.7478 -0.269625 44.119 1.85165C46.9956 3.24783 49.0757 6.04889 49.0757 9.54346Z" fill="#F64F44"/>
<path d="M44.119 1.85165C41.2255 0.884397 31.352 6.24756 30.5811 13.6528C30.5811 13.6528 24.2777 3.13934 19.1636 8.25302C11.3729 16.0442 29.7773 32.6646 29.9975 32.9356C29.7489 32.7466 10.9238 18.2899 10.9238 9.54346C10.9238 0.738828 24.1303 -3.66257 29.9998 7.70965C33.5396 0.851438 39.7478 -0.269625 44.119 1.85165Z" fill="#D22E29"/>
<path d="M58.0225 21.6916C57.5762 21.4375 57.0905 21.2764 56.5783 21.2118C54.5728 20.9578 52.6754 22.3063 52.2565 24.2802L49.8153 35.7564C49.6093 36.7227 49.0508 37.5682 48.2433 38.1372L41.9802 42.5413L43.066 38.2077C43.6332 35.9436 42.3249 33.6497 40.0869 32.9851C38.1409 32.4092 36.0814 33.2368 35.0785 34.9974C34.9425 35.2354 34.8299 35.4854 34.7438 35.7381L30.8702 47.0073C30.8057 47.1918 30.7517 47.3868 30.71 47.5859C30.3955 49.0603 30.792 50.5879 31.751 51.7241L29.9996 54.96L28.2482 51.7241C29.2072 50.5893 29.6041 49.0626 29.291 47.5941C29.2525 47.4051 29.1994 47.2101 29.1312 47.0109L25.2558 35.7358C25.1651 35.4739 25.0516 35.224 24.9207 34.9978C23.9182 33.2373 21.8587 32.4096 19.9118 32.9851C17.6743 33.6497 16.3655 35.9436 16.9327 38.2077L18.0194 42.5413L11.7563 38.1372C10.9479 37.5682 10.3899 36.7227 10.1848 35.7564L7.74265 24.2802C7.32334 22.3059 5.42545 20.9573 3.42228 21.2114C2.9105 21.2755 2.42435 21.4371 1.97712 21.6916C0.623967 22.4634 -0.14233 23.9593 0.0220074 25.5066C0.0224651 25.5121 0.0229229 25.5176 0.0238384 25.5231L1.73542 41.1181C1.90158 42.6283 2.68345 44.0323 3.88096 44.9702L9.57554 49.4298C9.96143 49.7323 10.5194 49.6641 10.822 49.2782C11.1242 48.8923 11.0564 48.3339 10.6705 48.0318L4.97593 43.5722C4.15241 42.9272 3.61499 41.9623 3.50101 40.9245L1.79035 25.3436C1.78989 25.3386 1.78943 25.3331 1.78898 25.328C1.69513 24.4794 2.11444 23.6577 2.85602 23.2351C3.09909 23.0969 3.36414 23.009 3.64475 22.9738C4.73926 22.8351 5.77655 23.5711 6.00589 24.6501L8.44806 36.1258C8.74607 37.5316 9.55814 38.7616 10.7341 39.5897L18.9505 45.3671C19.254 45.5804 19.6582 45.5827 19.964 45.3726C20.2698 45.1625 20.4126 44.7848 20.3225 44.425L18.6557 37.7765C18.3202 36.4375 19.0938 35.0807 20.4163 34.6884C21.5676 34.3478 22.7852 34.8363 23.3803 35.8809C23.4572 36.0145 23.5241 36.1615 23.5772 36.3153L27.4517 47.5859C27.4942 47.7113 27.5277 47.8326 27.5524 47.9562C27.7835 49.0411 27.4077 50.1709 26.5709 50.9051C26.2592 51.1784 26.1786 51.6307 26.3755 51.9951L29.6004 57.9524H20.0423L18.3202 54.1493C18.2611 54.0188 18.1714 53.9049 18.0588 53.8165L13.4665 50.2212C13.0806 49.9187 12.5222 49.9864 12.22 50.3728C11.9179 50.7587 11.9857 51.3171 12.372 51.6192L16.7926 55.0804L18.6608 59.2067C18.8045 59.5244 19.1208 59.7281 19.4696 59.7281H40.53C40.8783 59.7281 41.1946 59.5239 41.3384 59.2067L43.207 55.0804L56.1182 44.9707C57.3157 44.0341 58.0976 42.6301 58.2637 41.1186L59.9712 25.5643C59.9735 25.5501 59.9753 25.5359 59.9767 25.5217C60.1461 23.9689 59.3793 22.4656 58.0225 21.6916ZM58.2148 25.2942C58.2129 25.3061 58.2116 25.3175 58.2102 25.3294L56.4981 40.9245C56.3842 41.9632 55.8467 42.9281 55.0232 43.5722L41.9403 53.8165C41.8277 53.9049 41.738 54.0188 41.679 54.1493L39.9569 57.9524H31.6196L31.0094 56.8259L33.6232 51.9951C33.8205 51.6311 33.7395 51.1789 33.4287 50.9056C32.5919 50.1704 32.2156 49.0402 32.4468 47.9544C32.4738 47.8271 32.5072 47.7054 32.5479 47.5886L36.4238 36.3135C36.4742 36.1647 36.5406 36.0177 36.6211 35.8768C37.2139 34.8363 38.432 34.3478 39.5819 34.6879C40.9053 35.0807 41.679 36.4375 41.3434 37.7765L39.6776 44.425C39.5874 44.7848 39.7307 45.1629 40.0365 45.3731C40.3423 45.5832 40.7465 45.5804 41.05 45.3671L49.2655 39.5897C50.4406 38.762 51.2526 37.5325 51.552 36.1267L53.9933 24.6496C54.2226 23.5711 55.2603 22.8351 56.3558 22.9738C56.6364 23.009 56.9014 23.0969 57.1436 23.2347C57.8746 23.6517 58.2926 24.4574 58.2148 25.2942Z" fill="black"/>
<path d="M29.4604 33.6433C29.6193 33.7651 29.8097 33.826 29.9997 33.826C30.1896 33.826 30.3801 33.7651 30.5394 33.6433C30.6208 33.5811 38.7819 27.3115 44.4233 20.5618C44.7378 20.186 44.6879 19.6257 44.3116 19.3112C43.9354 18.9967 43.3755 19.0471 43.061 19.4229C38.3777 25.0259 31.8939 30.3099 29.9997 31.8109C28.6259 30.7228 24.8393 27.6475 21.0884 23.9135C15.0193 17.8711 11.8118 12.902 11.8118 9.54343C11.8118 7.73663 12.4325 6.05756 13.6062 4.68839C14.72 3.38925 16.2878 2.44168 18.0214 2.021C23.2911 0.74109 27.2563 4.33087 29.2105 8.11704C29.3629 8.41229 29.6673 8.59769 29.9997 8.59769C30.332 8.59769 30.6364 8.41229 30.7888 8.11704C33.7689 2.3428 38.5228 1.18146 41.978 2.021C43.7115 2.44168 45.2794 3.38925 46.3931 4.68839C47.5673 6.05756 48.1875 7.73663 48.1875 9.54343C48.1875 11.428 47.1768 13.8258 45.1828 16.6699C44.9017 17.0713 44.9987 17.6252 45.4002 17.9068C45.8021 18.1883 46.3556 18.0908 46.6371 17.6893C48.8444 14.5408 49.9637 11.8002 49.9637 9.54343C49.9637 7.30679 49.1951 5.22809 47.7412 3.53253C46.3871 1.95279 44.4893 0.803346 42.3968 0.295228C40.0389 -0.277434 37.5203 -0.0114736 35.3061 1.04504C33.2283 2.0361 31.4155 3.70923 29.9997 5.92893C28.5843 3.70923 26.7711 2.03565 24.6933 1.04504C22.4791 -0.0114736 19.9604 -0.277434 17.6025 0.295228C15.5101 0.803346 13.6122 1.95279 12.2581 3.53253C10.8047 5.22809 10.0361 7.30679 10.0361 9.54343C10.0361 13.4399 13.3329 18.6978 19.8355 25.1719C24.5903 29.9057 29.4124 33.6067 29.4604 33.6433Z" fill="black"/>
</g>
<defs>
<clipPath id="clip0">
<rect width="60" height="60" fill="white"/>
</clipPath>
</defs>
</svg>
