<svg width="12" height="14" viewBox="0 0 12 14" fill="none" xmlns="http://www.w3.org/2000/svg">
<path d="M5.99935 7.00004C5.26602 7.00004 4.66602 6.40004 4.66602 5.66671C4.66602 4.93337 5.26602 4.33337 5.99935 4.33337C6.73268 4.33337 7.33268 4.93337 7.33268 5.66671C7.33268 6.40004 6.73268 7.00004 5.99935 7.00004ZM9.99935 5.80004C9.99935 3.38004 8.23268 1.66671 5.99935 1.66671C3.76602 1.66671 1.99935 3.38004 1.99935 5.80004C1.99935 7.36004 3.29935 9.42671 5.99935 11.8934C8.69935 9.42671 9.99935 7.36004 9.99935 5.80004ZM5.99935 0.333374C8.79935 0.333374 11.3327 2.48004 11.3327 5.80004C11.3327 8.01337 9.55268 10.6334 5.99935 13.6667C2.44602 10.6334 0.666016 8.01337 0.666016 5.80004C0.666016 2.48004 3.19935 0.333374 5.99935 0.333374Z" fill="#9A9A9A"/>
</svg>
