<svg width="60" height="60" viewBox="0 0 60 60" fill="none" xmlns="http://www.w3.org/2000/svg">
<g clip-path="url(#clip0)">
<path d="M59.236 53.1253H37.6074V43.5677C37.6074 40.7355 39.903 38.4395 42.7352 38.4395H54.1077C56.9399 38.4395 59.236 40.7355 59.236 43.5677V53.1253Z" fill="#EB5777"/>
<path d="M48.5448 41.327C47.5793 41.327 46.7969 40.5441 46.7969 39.5791V34.6755H50.2923V39.5791C50.2928 40.5441 49.5098 41.327 48.5448 41.327Z" fill="#E39F6E"/>
<path d="M39.2975 27.8379H57.792L58.28 25.4583C59.5431 19.2962 54.8355 13.5254 48.545 13.5254C42.254 13.5254 37.5463 19.2962 38.8095 25.4583L39.2975 27.8379Z" fill="#BA6F3C"/>
<path d="M58.823 28.7694C58.823 30.0688 57.7694 31.1228 56.4696 31.1228C55.1702 31.1228 54.1162 30.0688 54.1162 28.7694C54.1162 27.4696 55.1702 26.416 56.4696 26.416C57.7694 26.416 58.823 27.4696 58.823 28.7694Z" fill="#E39F6E"/>
<path d="M42.9734 28.7694C42.9734 30.0688 41.9207 31.1228 40.62 31.1228C39.3206 31.1228 38.2666 30.0688 38.2666 28.7694C38.2666 28.5708 38.2905 28.3772 38.3386 28.1933C38.595 27.1728 39.5192 26.416 40.62 26.416C41.7354 26.416 42.6693 27.1921 42.911 28.2328C42.9518 28.4048 42.9734 28.5855 42.9734 28.7694Z" fill="#E39F6E"/>
<path d="M42.9103 28.2328C42.2461 28.6139 41.477 28.8318 40.6578 28.8318C39.8106 28.8318 39.0181 28.5983 38.3379 28.1929C38.5943 27.1728 39.5185 26.416 40.6193 26.416C41.7347 26.416 42.6685 27.1921 42.9103 28.2328Z" fill="#D88852"/>
<path d="M41.1377 22.187L41.9449 28.6454L42.2504 31.0951C42.6476 34.269 45.3464 36.6518 48.5446 36.6518C51.7437 36.6518 54.4429 34.269 54.8388 31.0951L55.9515 22.187H41.1377Z" fill="#F8C298"/>
<path d="M45.2002 24.2886C45.2002 26.347 43.8237 28.0895 41.9441 28.6454L41.0791 21.7219H44.4048C44.9066 22.4535 45.2002 23.3369 45.2002 24.2886Z" fill="#E39F6E"/>
<path d="M39.7539 22.37C39.7539 22.37 41.3331 23.9363 45.5853 24.0492C45.8541 24.0565 46.0747 23.84 46.0747 23.5712V22.9401C46.0747 22.9401 47.6208 23.9547 50.897 24.0487C51.1663 24.0565 51.3869 23.8395 51.3869 23.5703V23.2126C51.3869 23.2126 52.6606 23.9904 56.4798 24.0519C56.7459 24.056 56.9642 23.84 56.9642 23.5735V21.2518C56.9642 20.9482 56.7179 20.7014 56.4138 20.7014H41.4221C40.5006 20.7019 39.7539 21.4486 39.7539 22.37Z" fill="#BA6F3C"/>
<path d="M22.5094 53.1253H0.880859V43.5677C0.880859 40.7355 3.17691 38.4395 6.00913 38.4395H17.3816C20.2138 38.4395 22.5094 40.7355 22.5094 43.5677V53.1253Z" fill="#4FCEB7"/>
<path d="M11.8183 41.327C10.8528 41.327 10.0703 40.5441 10.0703 39.5791V34.6755H13.5662V39.5791C13.5662 40.5441 12.7837 41.327 11.8183 41.327Z" fill="#E39F6E"/>
<path d="M2.57142 27.8379H21.0664L21.554 25.4583C22.8176 19.2962 18.1094 13.5254 11.8189 13.5254C5.5284 13.5254 0.820721 19.2962 2.08387 25.4583L2.57142 27.8379Z" fill="#BA6F3C"/>
<path d="M22.0974 28.7694C22.0974 30.0688 21.0434 31.1228 19.744 31.1228C18.4446 31.1228 17.3906 30.0688 17.3906 28.7694C17.3906 28.5708 17.4145 28.3772 17.4626 28.1933C17.719 27.1728 18.6432 26.416 19.744 26.416C20.8595 26.416 21.7942 27.1921 22.035 28.2341C22.0758 28.4061 22.0974 28.5855 22.0974 28.7694Z" fill="#E39F6E"/>
<path d="M22.0333 28.2341C21.3692 28.6144 20.6 28.8322 19.7822 28.8322C18.9351 28.8322 18.1411 28.5988 17.4609 28.1933C17.7173 27.1728 18.6415 26.416 19.7423 26.416C20.8578 26.416 21.7925 27.1921 22.0333 28.2341Z" fill="#D88852"/>
<path d="M6.24485 28.7694C6.24485 30.0688 5.19131 31.1228 3.89147 31.1228C2.59163 31.1228 1.53809 30.0688 1.53809 28.7694C1.53809 27.4696 2.59163 26.416 3.89147 26.416C5.19131 26.416 6.24485 27.4696 6.24485 28.7694Z" fill="#E39F6E"/>
<path d="M4.41211 22.187L5.52482 31.0951C5.92202 34.269 8.61939 36.6518 11.819 36.6518C15.0181 36.6518 17.716 34.269 18.1132 31.0951L18.4223 28.6238L19.2259 22.187H4.41211Z" fill="#F8C298"/>
<path d="M15.7566 22.187C15.4268 22.8158 15.2393 23.5304 15.2393 24.2886C15.2393 26.3195 16.5785 28.0436 18.4205 28.6234L19.2241 22.187H15.7566Z" fill="#E39F6E"/>
<path d="M3.02734 22.37C3.02734 22.37 4.60651 23.9363 8.85874 24.0492C9.12797 24.0565 9.34859 23.84 9.34859 23.5712V22.9401C9.34859 22.9401 10.8947 23.9547 14.1709 24.0487C14.4397 24.0565 14.6603 23.8395 14.6603 23.5703V23.2126C14.6603 23.2126 15.9345 23.9904 19.7533 24.0519C20.0198 24.056 20.2376 23.84 20.2376 23.5735V21.2518C20.2376 20.9482 19.9913 20.7014 19.6872 20.7014H4.69549C3.77404 20.7019 3.02734 21.4486 3.02734 22.37Z" fill="#BA6F3C"/>
<path d="M44.3011 56.3635H15.8174V43.777C15.8174 40.0472 18.8409 37.0237 22.5707 37.0237H37.5478C41.2771 37.0237 44.3011 40.0472 44.3011 43.777V56.3635Z" fill="#A9D2F7"/>
<path d="M21.3184 40.3269V43.2495H23.0925L22.0921 46.6936L25.1959 50.8527V37.0237L21.3184 40.3269Z" fill="#5F9EEB"/>
<path d="M39.1216 40.3269V43.2495H37.3475L38.3479 46.6936L35.2441 50.8527V37.0237L39.1216 40.3269Z" fill="#5F9EEB"/>
<path d="M25.1953 37.0237H35.245V56.3635H25.1953V37.0237Z" fill="#627687"/>
<path d="M44.299 43.777V56.3635H41.9979V43.777C41.9979 40.0476 38.9735 37.0237 35.2441 37.0237H37.5466C41.276 37.0237 44.299 40.0476 44.299 43.777Z" fill="#7FB7EA"/>
<path d="M30.22 40.8264C28.9486 40.8264 27.918 39.7958 27.918 38.5244V32.0669H32.5215V38.5244C32.522 39.7958 31.4909 40.8264 30.22 40.8264Z" fill="#F8C298"/>
<path d="M18.0423 23.062H42.3989L43.041 19.9284C44.7046 11.8129 38.5049 4.21338 30.2206 4.21338C21.9363 4.21338 15.7366 11.8134 17.4001 19.9284L18.0423 23.062Z" fill="#FFCF64"/>
<path d="M43.7569 24.2889C43.7569 26.0006 42.3695 27.3885 40.6578 27.3885C38.946 27.3885 37.5586 26.0006 37.5586 24.2889C37.5586 22.5771 38.946 21.1897 40.6578 21.1897C42.3695 21.1897 43.7569 22.5771 43.7569 24.2889Z" fill="#F8C298"/>
<path d="M22.8834 24.2889C22.8834 26.0006 21.4955 27.3885 19.7837 27.3885C18.072 27.3885 16.6846 26.0006 16.6846 24.2889C16.6846 22.5771 18.072 21.1897 19.7837 21.1897C21.4955 21.1897 22.8834 22.5771 22.8834 24.2889Z" fill="#F8C298"/>
<path d="M20.9755 19.6899L21.9323 27.3514C22.4547 31.5316 26.0079 34.6688 30.2211 34.6688C34.4339 34.6688 37.9876 31.5316 38.5095 27.3514L39.4668 19.6899C39.753 17.3994 37.967 15.3767 35.6585 15.3767H24.7833C22.4753 15.3767 20.6893 17.3994 20.9755 19.6899Z" fill="#FFD6C0"/>
<path d="M19.6729 14.0649V18.2139C19.6729 18.6153 19.9994 18.9391 20.4007 18.9359C22.2909 18.9198 26.8555 18.59 30.2959 15.9941C33.7363 18.59 38.3004 18.9198 40.191 18.9359C40.5923 18.9391 40.9189 18.6153 40.9189 18.2139V14.0649H19.6729Z" fill="#FFCF64"/>
<path d="M54.1085 37.5584H51.174V37.0346C53.3715 36.1724 55.0653 34.2607 55.5955 31.8811C55.8776 31.96 56.1707 32.0031 56.4711 32.0031C58.2543 32.0031 59.7051 30.5524 59.7051 28.7691C59.7051 27.9697 59.4129 27.2377 58.9304 26.6726L59.1432 25.6351C59.7491 22.6791 59.1258 19.695 57.3889 17.2325C57.1082 16.8348 56.5587 16.7403 56.1615 17.0206C55.7643 17.3008 55.6693 17.8503 55.9496 18.2479C57.4035 20.3087 57.925 22.8066 57.4177 25.2815L57.3412 25.6548C57.0641 25.5773 56.7724 25.5347 56.4706 25.5347C56.4541 25.5347 56.4376 25.5356 56.4211 25.536L56.5082 24.838C56.7963 24.6999 56.9995 24.4105 57.0091 24.0693C57.0233 23.5831 56.6403 23.1776 56.1541 23.1639C53.1183 23.0767 51.9436 22.5103 51.8382 22.4561C51.5694 22.2805 51.2405 22.275 50.9566 22.4268C50.6883 22.5704 50.5278 22.8492 50.5085 23.151C47.8524 23.0019 46.5654 22.2085 46.5585 22.2039C46.2879 22.0264 45.9416 22.0117 45.6568 22.1654C45.372 22.319 45.1945 22.6167 45.1945 22.9405V23.1528C44.9427 23.1395 44.6959 23.1203 44.4547 23.0955C44.2785 22.5364 43.9822 22.0301 43.596 21.6072L43.9038 20.106C44.2139 18.5933 44.2694 17.0655 44.0854 15.5763C45.4366 14.8103 46.9695 14.4058 48.5454 14.4058C50.2865 14.4058 51.973 14.8979 53.4233 15.8281C53.5705 15.9225 53.7352 15.9675 53.898 15.9675C54.1883 15.9675 54.4722 15.8248 54.6401 15.5625C54.9029 15.1534 54.7837 14.6085 54.3745 14.3457C52.6399 13.233 50.6241 12.6445 48.545 12.6445C46.8635 12.6445 45.222 13.0302 43.7382 13.7664C43.2383 11.8556 42.3311 10.0494 41.0436 8.47116C38.3792 5.20596 34.4348 3.33325 30.2206 3.33325C27.1398 3.33325 24.2232 4.31203 21.7859 6.1641C21.3988 6.4581 21.3231 7.01078 21.6175 7.39789C21.912 7.78546 22.4642 7.86022 22.8513 7.56622C24.9795 5.94899 27.5278 5.09405 30.2206 5.09405C33.9032 5.09405 37.3505 6.731 39.6786 9.58478C42.0068 12.4381 42.9177 16.1441 42.1783 19.7519L42.015 20.5477C41.5912 20.3931 41.1344 20.3087 40.6579 20.3087C40.529 20.3087 40.401 20.3151 40.274 20.3275L40.3386 19.8097C40.7102 19.7771 41.0555 19.6184 41.3238 19.3524C41.6298 19.0492 41.7981 18.6447 41.7981 18.214V16.1638C41.7981 15.6776 41.4041 15.2832 40.9175 15.2832C40.4313 15.2832 40.0368 15.6776 40.0368 16.1638V18.0535C38.2036 18.0209 33.9766 17.6696 30.8251 15.291C30.5109 15.0543 30.078 15.0543 29.7642 15.291C26.6128 17.6696 22.3858 18.0209 20.5521 18.0535V16.1638C20.5521 15.6776 20.1581 15.2832 19.6714 15.2832C19.1853 15.2832 18.7908 15.6776 18.7908 16.1638V18.214C18.7908 18.6447 18.9596 19.0492 19.2651 19.3524C19.4972 19.5822 19.7857 19.7322 20.0998 19.79C20.1003 19.7927 20.1003 19.7959 20.1008 19.7991L20.1668 20.327C20.0398 20.3151 19.9118 20.3092 19.7829 20.3092C19.3064 20.3092 18.8495 20.3936 18.4257 20.5477L18.2624 19.7523C17.5648 16.3482 18.3051 12.9284 20.3471 10.1232C20.6337 9.72972 20.5466 9.17933 20.1535 8.89266C19.7604 8.60646 19.2096 8.69361 18.9234 9.08668C17.8685 10.5356 17.1181 12.128 16.6847 13.7971C15.1853 13.0412 13.5222 12.6445 11.8178 12.6445C8.55354 12.6445 5.49841 14.0952 3.4349 16.6243C1.37185 19.1538 0.56461 22.4378 1.22003 25.6356L1.43239 26.6731C0.950342 27.2377 0.658176 27.9697 0.658176 28.7691C0.658176 30.5524 2.10892 32.0031 3.89218 32.0031C4.19169 32.0031 4.48523 31.9605 4.76731 31.8811C5.29752 34.2611 6.99181 36.1724 9.18924 37.0351V37.5589H6.0089C2.69554 37.5584 0 40.254 0 43.5673V53.1249C0 53.6111 0.394447 54.0055 0.880626 54.0055C1.36681 54.0055 1.76125 53.6111 1.76125 53.1249V43.5673C1.76125 41.225 3.66652 39.3197 6.0089 39.3197H9.18924V39.5788C9.18924 41.0282 10.3685 42.2074 11.8178 42.2074C13.2672 42.2074 14.4464 41.0282 14.4464 39.5788V39.3197H16.3783C15.4724 40.575 14.9362 42.1143 14.9362 43.7769V56.3635C14.9362 56.8501 15.3307 57.2441 15.8169 57.2441C16.3031 57.2441 16.6975 56.8501 16.6975 56.3635V43.7769C16.6975 40.5388 19.332 37.9043 22.5702 37.9043H22.8036L20.747 39.6563C20.5502 39.8237 20.4374 40.0687 20.4374 40.3264V43.2495C20.4374 43.7357 20.8314 44.1301 21.318 44.1301H21.9193L21.246 46.4482C21.169 46.7133 21.2208 46.999 21.3859 47.2206L24.3149 51.1453V56.3635C24.3149 56.8501 24.7089 57.2441 25.1955 57.2441C25.6817 57.2441 26.0762 56.8501 26.0762 56.3635V37.9043H27.0375V38.5244C27.0375 40.2792 28.4653 41.7065 30.2202 41.7065C31.975 41.7065 33.4028 40.2792 33.4028 38.5244V37.9043H34.3646V56.3635C34.3646 56.8501 34.7586 57.2441 35.2452 57.2441C35.7314 57.2441 36.1259 56.8501 36.1259 56.3635V51.1453L39.0544 47.2206C39.2195 46.999 39.2718 46.7133 39.1943 46.4482L38.521 44.1301H39.1227C39.6089 44.1301 40.0034 43.7357 40.0034 43.2495V40.3269C40.0034 40.0687 39.8901 39.8237 39.6938 39.6563L37.6394 37.9066C40.8349 37.9565 43.4195 40.57 43.4195 43.7769V47.0793C43.4195 47.5655 43.8139 47.9599 44.3001 47.9599C44.7863 47.9599 45.1807 47.5655 45.1807 47.0793V43.7769C45.1807 42.1143 44.6445 40.575 43.7387 39.3197H45.9164V39.5788C45.9164 41.0282 47.0956 42.2074 48.545 42.2074C49.9943 42.2074 51.1736 41.0282 51.1736 39.5788V39.3197H54.1085C56.4504 39.3197 58.3557 41.2254 58.3557 43.5673V53.1249C58.3557 53.6111 58.7502 54.0055 59.2363 54.0055C59.723 54.0055 60.117 53.6111 60.117 53.1249V43.5673C60.1174 40.254 57.4219 37.5584 54.1085 37.5584ZM56.4706 27.2959C57.2829 27.2959 57.9434 27.9568 57.9434 28.7687C57.9434 29.581 57.2829 30.2414 56.4706 30.2414C56.2532 30.2414 56.0431 30.1937 55.8505 30.1038L56.1977 27.3221C56.2872 27.3056 56.3784 27.2959 56.4706 27.2959ZM45.5577 24.9292C45.5697 24.9297 45.5816 24.9297 45.594 24.9297C45.9471 24.9297 46.292 24.7903 46.5452 24.544C46.6429 24.4486 46.7246 24.3417 46.7883 24.2261C47.6611 24.5375 49.0151 24.8751 50.8676 24.9288C51.2313 24.9384 51.5937 24.7994 51.856 24.5444C51.9079 24.494 51.9551 24.4403 51.9978 24.3839C52.6014 24.5577 53.4884 24.7421 54.7318 24.8481L53.9654 30.9854C53.6246 33.713 51.2946 35.7706 48.5454 35.7706C45.7962 35.7706 43.4658 33.713 43.125 30.9854L42.714 27.6945C43.7066 27.0937 44.4161 26.0708 44.5941 24.8769C44.9092 24.9026 45.2307 24.9205 45.5577 24.9292ZM39.1525 28.6517C39.1906 28.5068 39.225 28.36 39.2557 28.2119C39.2796 28.1541 39.3076 28.0986 39.3388 28.044C39.758 28.1912 40.2015 28.2687 40.6579 28.2687C40.7762 28.2687 40.8932 28.2623 41.0087 28.2522L41.2404 30.1043C41.0473 30.1942 40.8372 30.2419 40.6198 30.2419C39.8075 30.2419 39.147 29.581 39.147 28.7691C39.147 28.7297 39.1498 28.6907 39.1525 28.6517ZM40.6579 22.07C41.8811 22.07 42.8764 23.0652 42.8764 24.2885C42.8764 25.5117 41.8811 26.5075 40.6579 26.5075C40.2588 26.5075 39.8777 26.402 39.5401 26.2039L40.0456 22.1571C40.2432 22.1002 40.4483 22.07 40.6579 22.07ZM30.2949 17.0752C33.0698 18.9456 36.374 19.5524 38.5723 19.739L37.6353 27.2423C37.1693 30.9739 33.9816 33.7882 30.2206 33.7882C26.4596 33.7882 23.2719 30.9739 22.8059 27.2423L21.8703 19.751C24.0663 19.5794 27.4577 18.9878 30.2949 17.0752ZM19.3554 28.2453C19.4958 28.2605 19.6384 28.2687 19.7829 28.2687C20.2117 28.2687 20.6351 28.1981 21.0369 28.0646C21.1538 28.2784 21.2162 28.5187 21.2162 28.7687C21.2162 29.581 20.5557 30.2414 19.7435 30.2414C19.5247 30.2414 19.3151 30.1946 19.1229 30.1048L19.3554 28.2453ZM20.3952 22.1562L20.9011 26.2048C20.564 26.4029 20.1838 26.5075 19.7829 26.5075C18.5597 26.5075 17.5644 25.5117 17.5644 24.2885C17.5644 23.0652 18.5597 22.07 19.7829 22.07C19.9925 22.07 20.1975 22.0993 20.3952 22.1562ZM4.79987 17.7375C6.52718 15.6198 9.08513 14.4058 11.8178 14.4058C13.419 14.4058 14.9752 14.8222 16.3425 15.6125C16.1668 17.0852 16.2278 18.5965 16.5374 20.1055L16.8452 21.6067C16.5324 21.9493 16.2792 22.3465 16.1003 22.7823C15.4637 22.6291 15.1619 22.4823 15.111 22.4561C14.8422 22.2805 14.5134 22.275 14.2295 22.4268C13.9611 22.5704 13.8006 22.8492 13.7813 23.151C11.1248 23.0015 9.83825 22.2085 9.83091 22.2039C9.56076 22.0264 9.21447 22.0117 8.92964 22.1654C8.64481 22.319 8.46731 22.6167 8.46731 22.9405V23.1528C6.53911 23.0524 5.27458 22.6332 4.53889 22.2869C4.09904 22.0796 3.57433 22.2681 3.36702 22.7084C3.16934 23.1285 3.33308 23.6253 3.73165 23.85L3.94218 25.536C3.92567 25.536 3.90915 25.5351 3.89264 25.5351C3.59085 25.5351 3.29914 25.5773 3.02211 25.6548L2.94551 25.2815C2.3965 22.6043 3.07256 19.8546 4.79987 17.7375ZM2.41943 28.7691C2.41943 27.9568 3.08036 27.2964 3.89218 27.2964C3.98483 27.2964 4.07565 27.3051 4.16509 27.3216L4.51275 30.1043C4.31965 30.1942 4.10959 30.2419 3.89218 30.2419C3.08036 30.2419 2.41943 29.581 2.41943 28.7691ZM6.39784 30.9854L5.58877 24.5086C6.44967 24.7251 7.52247 24.8944 8.83057 24.9292C8.8425 24.9297 8.85442 24.9297 8.86681 24.9297C9.21997 24.9297 9.56489 24.7903 9.81806 24.544C9.91576 24.449 9.99694 24.3417 10.0612 24.2261C10.9335 24.5375 12.2879 24.8751 14.1405 24.9288C14.5046 24.9384 14.8665 24.7994 15.1289 24.5444C15.1803 24.4944 15.227 24.4412 15.2697 24.3848C15.4293 24.4311 15.6096 24.4779 15.8109 24.5238C15.888 25.8378 16.6053 26.9817 17.6547 27.6491L17.2383 30.9854C16.8975 33.7135 14.5675 35.7706 11.8183 35.7706C9.06907 35.7706 6.73863 33.7135 6.39784 30.9854ZM11.8178 40.4461C11.3394 40.4461 10.9505 40.0567 10.9505 39.5788V37.4777C11.2353 37.5121 11.5247 37.5318 11.8178 37.5318C12.1109 37.5318 12.4003 37.5126 12.6851 37.4777V39.5788C12.6851 40.0567 12.2962 40.4461 11.8178 40.4461ZM23.06 46.5183L23.9379 43.4953C24.0154 43.2293 23.9631 42.9422 23.7966 42.7206C23.6301 42.4991 23.3692 42.3688 23.0921 42.3688H22.1987V40.7337L24.3149 38.9307V48.2002L23.06 46.5183ZM22.5702 36.143C20.8979 36.143 19.3499 36.6851 18.0909 37.6011C17.8561 37.5736 17.618 37.5584 17.3814 37.5584H14.4464V37.0346C16.6443 36.1724 18.3386 34.2597 18.8683 31.8798C19.1518 31.9596 19.4462 32.0031 19.7435 32.0031C20.7232 32.0031 21.6019 31.5651 22.195 30.8748C23.2719 32.7641 24.9914 34.2258 27.038 34.9808V36.143H22.5702ZM30.2206 39.9458C29.4368 39.9458 28.7992 39.3078 28.7992 38.5244V35.4376C29.2639 35.5101 29.7381 35.5495 30.2206 35.5495C30.7031 35.5495 31.1774 35.5101 31.642 35.4376V38.5244C31.642 39.3078 31.0045 39.9458 30.2206 39.9458ZM38.2421 42.3688H37.3486C37.0716 42.3688 36.8111 42.4991 36.6446 42.7206C36.4781 42.9422 36.4258 43.2293 36.5029 43.4953L37.3812 46.5183L36.1259 48.2002V38.9307L38.2421 40.7337V42.3688ZM42.7361 37.5584C42.4989 37.5584 42.2613 37.5736 42.0265 37.6011C40.7675 36.6851 39.22 36.143 37.5472 36.143H33.4033V34.9803C35.431 34.2327 37.1377 32.7911 38.2164 30.9267C38.809 31.5862 39.6658 32.0027 40.6198 32.0027C40.9198 32.0027 41.2128 31.96 41.4954 31.8807C42.0256 34.2607 43.7194 36.1724 45.9169 37.0346V37.5584H42.7361ZM48.5454 40.4461C48.0671 40.4461 47.6781 40.0567 47.6781 39.5788V37.4777C47.9629 37.5121 48.2519 37.5318 48.5454 37.5318C48.8385 37.5318 49.1275 37.5126 49.4128 37.4777V39.5788C49.4128 40.0567 49.0234 40.4461 48.5454 40.4461Z" fill="black"/>
<path d="M44.2093 28.2853L44.2199 28.6582C44.2327 29.1361 44.6244 29.5149 45.0996 29.5149C45.1079 29.5149 45.1156 29.5145 45.1239 29.5145C45.6101 29.5012 45.9935 29.0962 45.9802 28.61L45.9701 28.2371C45.9568 27.7509 45.5523 27.3657 45.0657 27.3808C44.5795 27.3941 44.196 27.7991 44.2093 28.2853Z" fill="black"/>
<path d="M51.9999 29.5149C52.0077 29.5149 52.016 29.5145 52.0243 29.5145C52.5104 29.5012 52.8938 29.0962 52.8805 28.61L52.8705 28.2371C52.8572 27.7509 52.4526 27.3657 51.966 27.3808C51.4798 27.3941 51.0964 27.7991 51.1097 28.2853L51.1198 28.6582C51.1331 29.1361 51.5243 29.5149 51.9999 29.5149Z" fill="black"/>
<path d="M45.7339 31.3844C46.3852 32.2839 47.436 32.821 48.5446 32.821C49.6532 32.821 50.704 32.2839 51.3553 31.3844C51.6401 30.9905 51.552 30.4401 51.158 30.1548C50.7645 29.8695 50.2137 29.9575 49.9284 30.3515C49.6073 30.7951 49.0899 31.0597 48.5446 31.0597C47.9988 31.0597 47.4814 30.7951 47.1603 30.3515C46.875 29.9575 46.3246 29.8695 45.9306 30.1548C45.5366 30.4401 45.4486 30.9905 45.7339 31.3844Z" fill="black"/>
<path d="M55.0603 44.2395C54.5737 44.2395 54.1797 44.6335 54.1797 45.1201V53.1251C54.1797 53.6113 54.5737 54.0057 55.0603 54.0057C55.5465 54.0057 55.9409 53.6113 55.9409 53.1251V45.1201C55.9409 44.6335 55.5465 44.2395 55.0603 44.2395Z" fill="black"/>
<path d="M9.25364 28.61L9.24309 28.2371C9.22979 27.7509 8.82709 27.3657 8.33907 27.3808C7.8529 27.3941 7.46946 27.7991 7.48276 28.2853L7.49285 28.6582C7.50615 29.1361 7.89739 29.5149 8.37256 29.5149C8.38081 29.5149 8.38907 29.5145 8.39732 29.5145C8.8835 29.5012 9.26694 29.0962 9.25364 28.61Z" fill="black"/>
<path d="M15.2734 29.5149C15.2816 29.5149 15.2899 29.5145 15.2977 29.5145C15.7843 29.5012 16.1673 29.0962 16.154 28.61L16.1439 28.2371C16.1306 27.7509 15.7279 27.3657 15.2394 27.3808C14.7533 27.3941 14.3703 27.7991 14.3831 28.2853L14.3937 28.6582C14.4065 29.1361 14.7982 29.5149 15.2734 29.5149Z" fill="black"/>
<path d="M14.6267 31.3844C14.912 30.9905 14.8239 30.4401 14.4299 30.1548C14.0359 29.8695 13.4851 29.9575 13.1998 30.3515C12.8787 30.7951 12.3614 31.0597 11.816 31.0597C11.2707 31.0597 10.7528 30.7951 10.4318 30.3515C10.147 29.9575 9.59611 29.8695 9.20212 30.1548C8.80813 30.4401 8.72007 30.9905 9.00536 31.3844C9.65665 32.2839 10.7074 32.821 11.816 32.821C12.9246 32.821 13.9754 32.2839 14.6267 31.3844Z" fill="black"/>
<path d="M5.05836 44.2395C4.57218 44.2395 4.17773 44.6335 4.17773 45.1201V53.1251C4.17773 53.6113 4.57218 54.0057 5.05836 54.0057C5.545 54.0057 5.93899 53.6113 5.93899 53.1251V45.1201C5.93899 44.6335 5.545 44.2395 5.05836 44.2395Z" fill="black"/>
<path d="M44.3005 49.9561C43.8139 49.9561 43.4199 50.35 43.4199 50.8367V56.3635C43.4199 56.8502 43.8139 57.2442 44.3005 57.2442C44.7867 57.2442 45.1812 56.8502 45.1812 56.3635V50.8367C45.1812 50.35 44.7867 49.9561 44.3005 49.9561Z" fill="black"/>
<path d="M25.6839 24.9917H25.7082C26.1944 24.9784 26.5778 24.5734 26.5645 24.0872L26.5512 23.596C26.5379 23.1093 26.1297 22.7254 25.6467 22.7396C25.1605 22.7529 24.7771 23.1579 24.7904 23.6441L24.8037 24.1354C24.817 24.6133 25.2087 24.9917 25.6839 24.9917Z" fill="black"/>
<path d="M34.7707 24.9917H34.7955C35.2817 24.9784 35.6647 24.5734 35.6514 24.0872L35.6381 23.596C35.6247 23.1093 35.2156 22.7254 34.7336 22.7396C34.2474 22.7529 33.864 23.1579 33.8773 23.6441L33.891 24.1354C33.9039 24.6133 34.2956 24.9917 34.7707 24.9917Z" fill="black"/>
<path d="M30.2199 29.3457C31.5903 29.3457 32.8897 28.6815 33.6951 27.5693C33.98 27.1753 33.8919 26.6249 33.4984 26.3396C33.1044 26.0543 32.5535 26.1424 32.2682 26.5364C31.7935 27.1927 31.0276 27.5844 30.2199 27.5844C29.4122 27.5844 28.6462 27.1927 28.171 26.5364C27.8858 26.1424 27.3354 26.0543 26.9414 26.3396C26.5474 26.6249 26.4593 27.1753 26.7446 27.5693C27.55 28.6815 28.8489 29.3457 30.2199 29.3457Z" fill="black"/>
<path d="M21.3181 48.5188C20.8319 48.5188 20.4375 48.9128 20.4375 49.3994V56.3637C20.4375 56.8504 20.8319 57.2443 21.3181 57.2443C21.8043 57.2443 22.1988 56.8504 22.1988 56.3637V49.3994C22.1988 48.9128 21.8043 48.5188 21.3181 48.5188Z" fill="black"/>
<path d="M38.8005 48.5188C38.3144 48.5188 37.9199 48.9128 37.9199 49.3994V56.3637C37.9199 56.8504 38.3144 57.2443 38.8005 57.2443C39.2867 57.2443 39.6812 56.8504 39.6812 56.3637V49.3994C39.6812 48.9128 39.2867 48.5188 38.8005 48.5188Z" fill="black"/>
</g>
<defs>
<clipPath id="clip0">
<path d="M0 0H60V60H0V0Z" fill="white"/>
</clipPath>
</defs>
</svg>
