<svg width="14" height="14" viewBox="0 0 14 14" fill="none" xmlns="http://www.w3.org/2000/svg">
<path d="M6.99967 0.333374C3.31967 0.333374 0.333008 3.32004 0.333008 7.00004C0.333008 10.68 3.31967 13.6667 6.99967 13.6667C10.6797 13.6667 13.6663 10.68 13.6663 7.00004C13.6663 3.32004 10.6797 0.333374 6.99967 0.333374ZM3.71301 11.1867C3.99967 10.5867 5.74634 10 6.99967 10C8.25301 10 10.0063 10.5867 10.2863 11.1867C9.37967 11.9067 8.23967 12.3334 6.99967 12.3334C5.75967 12.3334 4.61967 11.9067 3.71301 11.1867ZM11.2397 10.22C10.2863 9.06004 7.97301 8.66671 6.99967 8.66671C6.02634 8.66671 3.71301 9.06004 2.75967 10.22C2.07967 9.32671 1.66634 8.21337 1.66634 7.00004C1.66634 4.06004 4.05967 1.66671 6.99967 1.66671C9.93967 1.66671 12.333 4.06004 12.333 7.00004C12.333 8.21337 11.9197 9.32671 11.2397 10.22ZM6.99967 3.00004C5.70634 3.00004 4.66634 4.04004 4.66634 5.33337C4.66634 6.62671 5.70634 7.66671 6.99967 7.66671C8.29301 7.66671 9.33301 6.62671 9.33301 5.33337C9.33301 4.04004 8.29301 3.00004 6.99967 3.00004ZM6.99967 6.33337C6.44634 6.33337 5.99967 5.88671 5.99967 5.33337C5.99967 4.78004 6.44634 4.33337 6.99967 4.33337C7.55301 4.33337 7.99967 4.78004 7.99967 5.33337C7.99967 5.88671 7.55301 6.33337 6.99967 6.33337Z" fill="#BFBFBF"/>
</svg>
