<svg width="12" height="14" viewBox="0 0 12 14" fill="none" xmlns="http://www.w3.org/2000/svg">
<path d="M2.66667 6.33337H4V7.66671H2.66667V6.33337ZM12 3.00004V12.3334C12 13.0667 11.4 13.6667 10.6667 13.6667H1.33333C0.593333 13.6667 0 13.0667 0 12.3334L0.00666666 3.00004C0.00666666 2.26671 0.593333 1.66671 1.33333 1.66671H2V0.333374H3.33333V1.66671H8.66667V0.333374H10V1.66671H10.6667C11.4 1.66671 12 2.26671 12 3.00004ZM1.33333 4.33337H10.6667V3.00004H1.33333V4.33337ZM10.6667 12.3334V5.66671H1.33333V12.3334H10.6667ZM8 7.66671H9.33333V6.33337H8V7.66671ZM5.33333 7.66671H6.66667V6.33337H5.33333V7.66671Z" fill="#9A9A9A"/>
</svg>
