<svg width="60" height="60" viewBox="0 0 60 60" fill="none" xmlns="http://www.w3.org/2000/svg">
<g clip-path="url(#clip0)">
<path d="M18.6519 51.2748L15.7031 56.4843H9.66797L13.7695 49.2383L18.6519 51.2748Z" fill="#FFB954"/>
<path d="M32.4414 51.2748L35.3902 56.4843H41.4254L37.3238 49.2383L32.4414 51.2748Z" fill="#FFB954"/>
<path d="M25.5469 52.2656C39.0088 52.2656 49.9219 41.3526 49.9219 27.8906C49.9219 14.4287 39.0088 3.51562 25.5469 3.51562C12.0849 3.51562 1.17188 14.4287 1.17188 27.8906C1.17188 41.3526 12.0849 52.2656 25.5469 52.2656Z" fill="#FF5D5D"/>
<path d="M25.5469 44.7656C34.8667 44.7656 42.4219 37.2104 42.4219 27.8906C42.4219 18.5708 34.8667 11.0156 25.5469 11.0156C16.2271 11.0156 8.67188 18.5708 8.67188 27.8906C8.67188 37.2104 16.2271 44.7656 25.5469 44.7656Z" fill="white"/>
<path d="M25.5469 37.2656C30.7245 37.2656 34.9219 33.0683 34.9219 27.8906C34.9219 22.713 30.7245 18.5156 25.5469 18.5156C20.3692 18.5156 16.1719 22.713 16.1719 27.8906C16.1719 33.0683 20.3692 37.2656 25.5469 37.2656Z" fill="#FE8F8D"/>
<path d="M47.3351 22.9775L42.4219 27.8907L47.3351 32.8041H58.8281L53.9149 27.8907L58.8281 22.9775H47.3351Z" fill="#FFB954"/>
<path d="M36.6668 16.8028C36.8956 17.0317 37.1955 17.146 37.4954 17.146C37.7953 17.146 38.0953 17.0317 38.324 16.8028C38.7816 16.3452 38.7816 15.6031 38.324 15.1454L38.3082 15.1296C37.8506 14.672 37.1086 14.672 36.6508 15.1296C36.1932 15.5872 36.1932 16.3292 36.6508 16.787L36.6668 16.8028Z" fill="black"/>
<path d="M55.5722 27.8906L59.6568 23.8061C59.9919 23.4709 60.0921 22.9668 59.9107 22.5289C59.7293 22.091 59.302 21.8055 58.828 21.8055H50.3611C49.2544 17.2751 46.9316 13.1469 43.6111 9.82629C38.7861 5.00109 32.3707 2.34375 25.5469 2.34375C18.723 2.34375 12.3076 5.00109 7.48254 9.82629C2.65734 14.6515 0 21.0668 0 27.8906C0 34.7145 2.65734 41.1299 7.48254 45.955C8.91738 47.3898 10.4937 48.6313 12.1787 49.6698L8.6482 55.9071C8.44289 56.2699 8.4457 56.7145 8.6557 57.0745C8.86559 57.4348 9.25102 57.6562 9.66797 57.6562H15.7031C16.1254 57.6562 16.515 57.4291 16.723 57.0616L19.2193 52.6513C21.2625 53.1696 23.3841 53.4375 25.5469 53.4375C27.7097 53.4375 29.8312 53.1696 31.8744 52.6513L34.3707 57.0616C34.5788 57.4291 34.9684 57.6562 35.3906 57.6562H41.4258C41.8427 57.6562 42.2282 57.4348 42.4382 57.0746C42.6482 56.7145 42.651 56.2699 42.4457 55.9072L38.9152 49.6699C40.6002 48.6313 42.1765 47.3899 43.6113 45.9551C46.9305 42.6359 49.2545 38.5059 50.3611 33.9758H58.8281C59.302 33.9758 59.7294 33.6902 59.9108 33.2524C60.0922 32.8146 59.9919 32.3105 59.6569 31.9753L55.5722 27.8906ZM53.4294 26.7188H45.251L47.8205 24.1493H55.999L53.4294 26.7188ZM15.0198 55.3125H11.6779L14.2286 50.8063C15.1039 51.2396 16.0027 51.623 16.9221 51.9518L15.0198 55.3125ZM39.4159 55.3125H36.0739L34.1716 51.9518C35.0911 51.623 35.9898 51.2396 36.8652 50.8063L39.4159 55.3125ZM41.9539 44.2977C40.4059 45.8457 38.6769 47.1468 36.8157 48.1839C36.7928 48.195 36.7696 48.2055 36.747 48.2183C36.7328 48.2264 36.7199 48.2357 36.7062 48.2442C35.2785 49.0296 33.774 49.6602 32.213 50.1259C32.1516 50.1381 32.0909 50.1561 32.031 50.1786C29.9504 50.7807 27.7729 51.0938 25.5469 51.0938C23.3209 51.0938 21.1433 50.7807 19.0628 50.1787C19.0028 50.1562 18.9421 50.1382 18.8805 50.126C17.3196 49.6603 15.8152 49.0297 14.3876 48.2443C14.3739 48.2358 14.361 48.2265 14.3468 48.2184C14.3242 48.2057 14.3011 48.1951 14.2781 48.184C12.417 47.1469 10.688 45.8459 9.13992 44.2977C4.75734 39.9152 2.34375 34.0884 2.34375 27.8906C2.34375 21.6928 4.75734 15.866 9.1398 11.4836C13.5223 7.10109 19.3491 4.6875 25.5469 4.6875C31.7447 4.6875 37.5715 7.10109 41.9539 11.4836C44.8336 14.3632 46.8874 17.9106 47.942 21.8055H47.3352C47.0244 21.8055 46.7263 21.9291 46.5066 22.1488L43.3963 25.2591C43.0825 23.1285 42.3936 21.0568 41.3535 19.1728C41.0407 18.6062 40.3277 18.4007 39.7611 18.7133C39.1945 19.0261 38.9889 19.7391 39.3016 20.3057C40.4141 22.3206 41.0355 24.5113 41.1946 26.7189H36.0275C35.7667 24.3451 34.7177 22.1461 33.0047 20.433C31.0126 18.4409 28.3641 17.3438 25.5469 17.3438C22.7297 17.3438 20.0811 18.4409 18.0892 20.4328C16.0971 22.425 15 25.0734 15 27.8906C15 30.7078 16.0971 33.3564 18.0891 35.3483C20.0811 37.3404 22.7297 38.4375 25.5469 38.4375C28.3641 38.4375 31.0126 37.3404 33.0046 35.3484C34.7176 33.6354 35.7666 31.4364 36.0274 29.0625H41.1894C40.9099 32.7258 39.3641 36.2808 36.6506 38.9944C33.6847 41.9604 29.7412 43.5938 25.5469 43.5938C21.3525 43.5938 17.409 41.9604 14.4431 38.9944C11.4771 36.0285 9.84375 32.0851 9.84375 27.8906C9.84375 23.6961 11.4771 19.7528 14.4431 16.7869C19.3629 11.8671 27.048 10.777 33.132 14.136C33.6984 14.4486 34.4114 14.2431 34.7243 13.6765C35.0371 13.1099 34.8314 12.397 34.2648 12.0841C30.908 10.2308 26.9554 9.49219 23.1354 10.0048C19.1879 10.5342 15.609 12.3063 12.7859 15.1296C9.37723 18.5382 7.5 23.0701 7.5 27.8906C7.5 32.7111 9.37723 37.2431 12.7857 40.6516C16.1944 44.0603 20.7264 45.9375 25.5469 45.9375C30.3674 45.9375 34.8994 44.0603 38.3079 40.6518C41.0776 37.8821 42.8347 34.3852 43.4004 30.5265L46.5064 33.6326C46.7262 33.8523 47.0243 33.9758 47.3351 33.9758H47.9416C46.8871 37.8705 44.8324 41.4192 41.9539 44.2977ZM29.3742 25.6809C29.0507 25.1203 28.3339 24.9284 27.7734 25.252L24.9609 26.8758C24.5984 27.0851 24.375 27.4719 24.375 27.8906C24.375 28.3093 24.5984 28.6962 24.9609 28.9055L27.7734 30.5292C27.958 30.6357 28.1595 30.6864 28.3583 30.6864C28.7633 30.6864 29.1572 30.4762 29.3742 30.1003C29.5644 29.771 29.5753 29.3882 29.4393 29.0625H33.6664C33.4181 30.8089 32.6169 32.4216 31.3473 33.6911C29.798 35.2405 27.738 36.0938 25.5469 36.0938C23.3557 36.0938 21.2958 35.2405 19.7463 33.6911C18.197 32.1417 17.3438 30.0818 17.3438 27.8906C17.3438 25.6995 18.197 23.6395 19.7464 22.0901C21.2958 20.5407 23.3557 19.6875 25.5469 19.6875C27.738 19.6875 29.798 20.5407 31.3474 22.0902C32.6169 23.3597 33.4182 24.9723 33.6666 26.7188H29.4394C29.5753 26.393 29.5644 26.0102 29.3742 25.6809ZM47.8205 31.632L45.251 29.0625H53.4294L55.999 31.632H47.8205Z" fill="black"/>
</g>
<defs>
<clipPath id="clip0">
<path d="M0 0H60V60H0V0Z" fill="white"/>
</clipPath>
</defs>
</svg>
