<svg width="60" height="60" viewBox="0 0 60 60" fill="none" xmlns="http://www.w3.org/2000/svg">
<g clip-path="url(#clip0)">
<path fill-rule="evenodd" clip-rule="evenodd" d="M44.0625 11.7188V7.03137C44.0625 6.38684 43.5352 5.85949 42.8906 5.85949H34.6876C34.6876 3.27059 32.5889 1.17188 30 1.17188C27.4111 1.17176 25.3124 3.27047 25.3124 5.85949H17.1094C16.4648 5.85949 15.9375 6.38684 15.9375 7.03137V11.7188C15.9375 12.3633 16.4648 12.8906 17.1094 12.8906H42.8907C43.5352 12.8906 44.0625 12.3633 44.0625 11.7188Z" fill="#DAE6E6"/>
<path fill-rule="evenodd" clip-rule="evenodd" d="M15.9375 11.7188V7.03125H10.0781C8.78906 7.03125 7.73438 8.08582 7.73438 9.375V56.4845C7.73438 57.7736 8.78906 58.8282 10.0781 58.8282H49.9219C51.2109 58.8282 52.2656 57.7736 52.2656 56.4845V9.375C52.2656 8.08594 51.2109 7.03125 49.9219 7.03125L44.0625 7.03137V11.7188H47.5781V54.1407H12.4219V11.7188H15.9375Z" fill="#FF5D7D"/>
<path fill-rule="evenodd" clip-rule="evenodd" d="M17.1094 12.8906C16.4648 12.8906 15.9375 12.3633 15.9375 11.7188H12.4219V54.1407H47.5781V11.7188H44.0625C44.0625 12.3633 43.5352 12.8906 42.8906 12.8906H17.1094Z" fill="white"/>
<path d="M24.6885 32.873C25.9492 32.5779 26.732 31.3166 26.4369 30.0559C26.1418 28.7951 24.8805 28.0123 23.6197 28.3074C22.359 28.6025 21.5762 29.8638 21.8713 31.1246C22.1664 32.3854 23.4277 33.1682 24.6885 32.873Z" fill="#FF5D7D"/>
<path d="M32.4149 23.2794C33.2006 22.2503 33.0033 20.7792 31.9742 19.9935C30.9452 19.2077 29.474 19.405 28.6883 20.4341C27.9026 21.4631 28.0998 22.9343 29.1289 23.72C30.158 24.5057 31.6291 24.3085 32.4149 23.2794Z" fill="#B8ECBC"/>
<path d="M42.1967 28.0728C43.1118 27.1576 43.1118 25.6739 42.1967 24.7587C41.2815 23.8436 39.7978 23.8436 38.8826 24.7587C37.9675 25.6739 37.9675 27.1576 38.8826 28.0728C39.7978 28.988 41.2815 28.988 42.1967 28.0728Z" fill="#00CCF2"/>
<path d="M49.9219 5.85949H44.9173C44.5112 5.16023 43.7559 4.68762 42.8907 4.68762H35.7418C35.1974 2.01645 32.8296 0 30 0C27.1704 0 24.8026 2.01645 24.2582 4.68762H17.1094C16.2442 4.68762 15.4889 5.16012 15.0829 5.85949H10.0781C8.13961 5.85949 6.5625 7.4366 6.5625 9.37512V56.4846C6.5625 58.4231 8.13961 60.0002 10.0781 60.0002H49.9219C51.8604 60.0002 53.4375 58.4231 53.4375 56.4846V9.375C53.4375 7.43648 51.8604 5.85949 49.9219 5.85949ZM17.1094 7.03137H25.3124C25.9596 7.03137 26.4843 6.50672 26.4843 5.85949C26.4843 3.92086 28.0614 2.34375 30 2.34375C31.9385 2.34375 33.5157 3.92086 33.5157 5.85949C33.5157 6.50672 34.0405 7.03137 34.6876 7.03137H42.8905L42.8906 11.7189H17.1094L17.1091 7.03137H17.1094ZM51.0938 56.4846C51.0938 57.1308 50.568 57.6565 49.9219 57.6565H10.0781C9.43195 57.6565 8.90625 57.1308 8.90625 56.4846V9.375C8.90625 8.72883 9.43195 8.20312 10.0781 8.20312H14.7656V10.5469H12.4219C11.7746 10.5469 11.25 11.0715 11.25 11.7188V17.5782C11.25 18.2255 11.7746 18.7501 12.4219 18.7501C13.0691 18.7501 13.5938 18.2255 13.5938 17.5782V12.8906H15.0827C15.4888 13.59 16.2441 14.0625 17.1093 14.0625H42.8906C43.7558 14.0625 44.5111 13.59 44.9171 12.8906H46.4062V52.9689H13.5938V28.1251C13.5938 27.4779 13.0691 26.9532 12.4219 26.9532C11.7746 26.9532 11.25 27.4779 11.25 28.1251V54.1407C11.25 54.788 11.7746 55.3126 12.4219 55.3126H47.5781C48.2252 55.3126 48.75 54.788 48.75 54.1407V11.7189C48.75 11.0716 48.2252 10.547 47.5781 10.547H45.2343V8.20324H49.9218C50.5679 8.20324 51.0936 8.72894 51.0936 9.37512V56.4846H51.0938Z" fill="black"/>
<path d="M30.0004 7.03125C30.6475 7.03125 31.1722 6.5066 31.1722 5.85938C31.1722 5.21215 30.6475 4.6875 30.0004 4.6875H29.9995C29.3523 4.6875 28.8281 5.21215 28.8281 5.85938C28.8281 6.5066 29.3531 7.03125 30.0004 7.03125Z" fill="black"/>
<path d="M17.1094 38.9059H42.8903C43.5374 38.9059 44.0621 38.3813 44.0621 37.734C44.0621 37.0868 43.5374 36.5622 42.8903 36.5622H18.2812V17.5784C18.2812 16.9311 17.7566 16.4065 17.1094 16.4065C16.4621 16.4065 15.9375 16.9311 15.9375 17.5784V37.734C15.9375 38.3813 16.4621 38.9059 17.1094 38.9059Z" fill="black"/>
<path d="M24.1406 34.1018C26.0791 34.1018 27.6562 32.5247 27.6562 30.5862C27.6562 29.8518 27.4295 29.1694 27.0429 28.6049L29.5269 25.2107C29.8475 25.3072 30.187 25.3597 30.5386 25.3597C31.5292 25.3597 32.4246 24.9472 33.0642 24.2859L37.0453 26.104C37.0363 26.2064 37.0308 26.3098 37.0308 26.4144C37.0308 28.3529 38.6078 29.93 40.5463 29.93C42.4848 29.93 44.0619 28.3529 44.0619 26.4144C44.0619 24.4759 42.4848 22.8988 40.5463 22.8988C39.5557 22.8988 38.6602 23.3113 38.0205 23.9727L34.0396 22.1547C34.0486 22.0522 34.0541 21.9488 34.0541 21.844C34.0541 19.9055 32.4771 18.3284 30.5386 18.3284C28.6001 18.3284 27.023 19.9055 27.023 21.844C27.023 22.5784 27.2497 23.2607 27.6363 23.8253L25.1523 27.2195C24.8317 27.1229 24.4923 27.0704 24.1406 27.0704C22.2021 27.0704 20.625 28.6476 20.625 30.5861C20.625 32.5246 22.2021 34.1018 24.1406 34.1018ZM40.5464 25.2427C41.1926 25.2427 41.7183 25.7684 41.7183 26.4145C41.7183 27.0607 41.1926 27.5864 40.5464 27.5864C39.9002 27.5864 39.3746 27.0607 39.3746 26.4145C39.3746 25.7684 39.9002 25.2427 40.5464 25.2427ZM30.5386 20.6722C31.1848 20.6722 31.7104 21.1979 31.7104 21.8441C31.7104 22.4903 31.1848 23.016 30.5386 23.016C29.8924 23.016 29.3667 22.4903 29.3667 21.8441C29.3667 21.1979 29.8924 20.6722 30.5386 20.6722ZM24.1406 29.4143C24.7868 29.4143 25.3125 29.94 25.3125 30.5862C25.3125 31.2324 24.7868 31.7581 24.1406 31.7581C23.4945 31.7581 22.9687 31.2324 22.9687 30.5862C22.9687 29.94 23.4945 29.4143 24.1406 29.4143Z" fill="black"/>
<path d="M17.1094 44.7654H25.9684C26.6156 44.7654 27.1403 44.2407 27.1403 43.5935C27.1403 42.9463 26.6156 42.4216 25.9684 42.4216H17.1094C16.4621 42.4216 15.9375 42.9463 15.9375 43.5935C15.9375 44.2407 16.4621 44.7654 17.1094 44.7654Z" fill="black"/>
<path d="M17.1094 49.4531H25.9684C26.6156 49.4531 27.1403 48.9285 27.1403 48.2812C27.1403 47.634 26.6156 47.1094 25.9684 47.1094H17.1094C16.4621 47.1094 15.9375 47.634 15.9375 48.2812C15.9375 48.9285 16.4621 49.4531 17.1094 49.4531Z" fill="black"/>
<path d="M42.8903 42.4216H34.0312C33.3841 42.4216 32.8594 42.9463 32.8594 43.5935C32.8594 44.2407 33.3841 44.7654 34.0312 44.7654H42.8903C43.5374 44.7654 44.0621 44.2407 44.0621 43.5935C44.0621 42.9463 43.5374 42.4216 42.8903 42.4216Z" fill="black"/>
<path d="M42.8903 47.1094H34.0312C33.3841 47.1094 32.8594 47.634 32.8594 48.2812C32.8594 48.9285 33.3841 49.4531 34.0312 49.4531H42.8903C43.5374 49.4531 44.0621 48.9285 44.0621 48.2812C44.0621 47.634 43.5374 47.1094 42.8903 47.1094Z" fill="black"/>
<path d="M12.4219 24.0243C13.0691 24.0243 13.5938 23.4996 13.5938 22.8524V22.8516C13.5938 22.2044 13.0691 21.6802 12.4219 21.6802C11.7746 21.6802 11.25 22.2052 11.25 22.8524C11.25 23.4996 11.7746 24.0243 12.4219 24.0243Z" fill="black"/>
</g>
<defs>
<clipPath id="clip0">
<path d="M0 0H60V60H0V0Z" fill="white"/>
</clipPath>
</defs>
</svg>
