<svg width="144" height="144" viewBox="0 0 144 144" fill="none" xmlns="http://www.w3.org/2000/svg">
<path d="M144 72C144 88.0341 138.757 102.845 129.894 114.812C126.635 119.211 122.885 123.229 118.727 126.779C106.152 137.517 89.8355 144 72 144C61.6702 144 51.8518 141.825 42.9736 137.908C39.1385 136.218 35.4797 134.202 32.0324 131.895C29.6755 130.323 27.4216 128.612 25.2731 126.779C21.1148 123.229 17.3649 119.211 14.1058 114.812C5.24278 102.845 0 88.0341 0 72C0 55.9659 5.24278 41.1548 14.1061 29.1878C19.6898 21.6498 26.7106 15.2404 34.7628 10.3649C45.6275 3.78506 58.3701 0 72 0C72.0939 0 72.1882 0 72.2821 0.0028125C85.8063 0.052875 98.449 3.82922 109.237 10.3649C117.289 15.2404 124.31 21.6498 129.894 29.1878C138.757 41.1545 144 55.9659 144 72Z" fill="#EF487D"/>
<path d="M134.048 62.048C134.048 75.8655 129.53 88.6297 121.891 98.9423C119.083 102.734 115.851 106.195 112.268 109.255C101.431 118.509 87.3702 124.096 72.0001 124.096C63.0983 124.096 54.6369 122.222 46.9857 118.846C43.6808 117.39 40.5277 115.652 37.5568 113.664C35.5259 112.309 33.5833 110.835 31.7319 109.255C28.1485 106.196 24.9169 102.734 22.1083 98.9421C14.4701 88.6295 9.95215 75.8652 9.95215 62.0477C9.95215 48.2302 14.4699 35.4659 22.1081 25.1533C26.92 18.6573 32.9705 13.1338 39.9095 8.93222C49.2723 3.26194 60.2534 0 71.9996 0C72.0806 0 72.1618 0 72.2426 0.00253125C83.8976 0.0455625 94.7926 3.29991 104.09 8.93222C111.029 13.1338 117.079 18.6573 121.891 25.1533C129.529 35.4659 134.048 48.2304 134.048 62.048Z" fill="#FF668C"/>
<path d="M129.895 21.065V114.812C126.635 119.211 122.886 123.229 118.727 126.778C106.152 137.517 89.8361 144 72.0006 144C61.6709 144 51.8524 141.825 42.9742 137.908C39.1391 136.218 35.4803 134.202 32.033 131.895C29.6762 130.323 27.4222 128.612 25.2738 126.778C21.1155 123.229 17.3656 119.211 14.1064 114.812V21.065C14.1064 15.1551 18.8967 10.3649 24.8066 10.3649H119.194C125.104 10.3651 129.895 15.1551 129.895 21.065Z" fill="#343A6E"/>
<path d="M118.727 41.2075V126.779C106.152 137.517 89.8358 144 72.0003 144C61.6706 144 51.8521 141.825 42.9739 137.908C39.1388 136.218 35.48 134.202 32.0327 131.895C29.6758 130.323 27.4219 128.612 25.2734 126.778V41.2075C25.2734 37.4812 28.2915 34.4631 32.015 34.4631H111.982C115.706 34.4629 118.727 37.4809 118.727 41.2075Z" fill="#F0F0F0"/>
<path d="M100.652 13.2422V32.1737C100.652 35.7121 97.7871 38.5772 94.249 38.5772H49.7502C46.2118 38.5772 43.3467 35.7118 43.3467 32.1737V13.2422C43.3467 9.70381 46.2121 6.83872 49.7502 6.83872H60.9529C62.9748 2.78618 67.1627 0.00012207 71.9999 0.00012207C72.7522 0.00012207 73.4899 0.0676221 74.204 0.196997C77.5894 0.805341 80.4931 2.79772 82.3122 5.56325C82.3358 5.5984 82.3563 5.63075 82.3769 5.66618C82.5501 5.93365 82.7149 6.20984 82.8648 6.49193C82.9323 6.6154 82.9942 6.73297 83.0471 6.83872H94.2498C97.7874 6.83872 100.652 9.70409 100.652 13.2422Z" fill="#F2AE5A"/>
<path d="M100.652 13.2422V32.1737C100.652 35.7121 97.7863 38.5772 94.2482 38.5772H54.1574C50.619 38.5772 47.7539 35.7118 47.7539 32.1737V13.2422C47.7539 9.70381 50.6193 6.83872 54.1574 6.83872H60.9518C62.9737 2.78618 67.1616 0.00012207 71.9988 0.00012207C72.7511 0.00012207 73.4888 0.0676221 74.2029 0.196997C77.5883 0.805341 80.492 2.79772 82.3111 5.56325C82.3347 5.5984 82.3553 5.63075 82.3758 5.66618C82.5639 5.96881 82.7285 6.24809 82.8637 6.49193C82.9312 6.6154 82.9931 6.73297 83.046 6.83872H94.2487C97.7866 6.83872 100.652 9.70409 100.652 13.2422Z" fill="#F9DF73"/>
<path d="M72.0005 14.3325C74.3539 14.3325 76.2617 12.4247 76.2617 10.0713C76.2617 7.71787 74.3539 5.81006 72.0005 5.81006C69.6471 5.81006 67.7393 7.71787 67.7393 10.0713C67.7393 12.4247 69.6471 14.3325 72.0005 14.3325Z" fill="#343A6E"/>
<path d="M87.8683 29.1734H56.1295C54.4254 29.1734 53.0439 27.7919 53.0439 26.0878C53.0439 24.3837 54.4254 23.0022 56.1295 23.0022H87.8683C89.5724 23.0022 90.9539 24.3837 90.9539 26.0878C90.9542 27.7919 89.5727 29.1734 87.8683 29.1734Z" fill="#F2AE5A"/>
<path d="M53.4864 74.4303H34.972C33.3492 74.4303 32.0332 73.1146 32.0332 71.4915V52.9771C32.0332 51.354 33.3492 50.0383 34.972 50.0383H53.4864C55.1092 50.0383 56.4252 51.354 56.4252 52.9771V71.4915C56.4252 73.1146 55.1092 74.4303 53.4864 74.4303ZM37.9111 68.5527H50.5479V55.9159H37.9111V68.5527Z" fill="#5897D1"/>
<path d="M83.1661 59.4428H64.6517C63.0289 59.4428 61.7129 58.1271 61.7129 56.504C61.7129 54.8809 63.0289 53.5652 64.6517 53.5652H83.1661C84.7889 53.5652 86.1049 54.8809 86.1049 56.504C86.1049 58.1271 84.7889 59.4428 83.1661 59.4428Z" fill="#484B7F"/>
<path d="M106.088 70.9041H64.6517C63.0289 70.9041 61.7129 69.5884 61.7129 67.9653C61.7129 66.3422 63.0289 65.0265 64.6517 65.0265H106.089C107.711 65.0265 109.027 66.3422 109.027 67.9653C109.027 69.5884 107.711 70.9041 106.088 70.9041Z" fill="#484B7F"/>
<path d="M53.4864 106.169H34.972C33.3492 106.169 32.0332 104.853 32.0332 103.23V84.7159C32.0332 83.0928 33.3492 81.7771 34.972 81.7771H53.4864C55.1092 81.7771 56.4252 83.0928 56.4252 84.7159V103.23C56.4252 104.853 55.1092 106.169 53.4864 106.169ZM37.9111 100.292H50.5479V87.6547H37.9111V100.292Z" fill="#5897D1"/>
<path d="M83.1661 91.1812H64.6517C63.0289 91.1812 61.7129 89.8655 61.7129 88.2424C61.7129 86.6193 63.0289 85.3036 64.6517 85.3036H83.1661C84.7889 85.3036 86.1049 86.6193 86.1049 88.2424C86.1049 89.8655 84.7889 91.1812 83.1661 91.1812Z" fill="#484B7F"/>
<path d="M106.088 102.642H64.6517C63.0289 102.642 61.7129 101.327 61.7129 99.7037C61.7129 98.0806 63.0289 96.7649 64.6517 96.7649H106.089C107.711 96.7649 109.027 98.0806 109.027 99.7037C109.027 101.327 107.711 102.642 106.088 102.642Z" fill="#484B7F"/>
<path d="M53.4864 113.516H34.972C33.3497 113.516 32.0332 114.833 32.0332 116.455V131.895C35.4805 134.202 39.1393 136.218 42.9744 137.908H53.4864C55.1086 137.908 56.4252 136.591 56.4252 134.969V116.455C56.4252 114.833 55.1086 113.516 53.4864 113.516ZM50.5476 132.03H37.9108V119.393H50.5476V132.03Z" fill="#5897D1"/>
<path d="M83.1661 122.92H64.6517C63.0289 122.92 61.7129 121.604 61.7129 119.981C61.7129 118.358 63.0289 117.043 64.6517 117.043H83.1661C84.7889 117.043 86.1049 118.358 86.1049 119.981C86.1049 121.604 84.7889 122.92 83.1661 122.92Z" fill="#484B7F"/>
<path d="M106.088 134.381H64.6517C63.0289 134.381 61.7129 133.066 61.7129 131.442C61.7129 129.819 63.0289 128.504 64.6517 128.504H106.089C107.711 128.504 109.027 129.819 109.027 131.442C109.027 133.066 107.711 134.381 106.088 134.381Z" fill="#484B7F"/>
<path d="M44.0817 103.524C43.1043 103.524 42.1843 103.037 41.6373 102.215L32.2332 88.1092C31.3329 86.7589 31.6977 84.9341 33.0482 84.0339C34.3988 83.1336 36.2233 83.4984 37.1235 84.8492L43.6485 94.6364L52.0062 76.9925C52.7006 75.5258 54.453 74.8997 55.92 75.5947C57.3868 76.2894 58.0125 78.0418 57.3178 79.5086L46.7383 101.843C46.2853 102.8 45.3521 103.439 44.2963 103.516C44.224 103.521 44.1525 103.524 44.0817 103.524Z" fill="#EF487D"/>
</svg>
