<svg width="133" height="119" viewBox="0 0 133 119" fill="none" xmlns="http://www.w3.org/2000/svg">
<path d="M20.1247 116.095C19.9583 116.234 19.7643 116.345 19.5703 116.4C19.3485 116.456 19.1545 116.483 18.9604 116.456C18.7664 116.428 18.6001 116.372 18.4615 116.289C18.3229 116.178 18.212 116.04 18.1843 115.874C18.1565 115.679 18.1565 115.485 18.1843 115.264C18.212 115.042 18.2674 114.82 18.3506 114.626C18.4337 114.432 18.5446 114.21 18.6832 114.044C18.8218 113.85 18.9881 113.711 19.1545 113.6C19.3208 113.49 19.4594 113.379 19.598 113.296C19.7366 113.185 19.8752 113.102 20.0415 112.991C20.0415 112.769 20.0415 112.519 20.0692 112.215C20.0692 111.91 20.0692 111.577 20.0138 111.189C19.8752 111.494 19.7366 111.799 19.5425 112.131C19.3762 112.464 19.1822 112.769 18.9881 113.074C18.7941 113.379 18.5723 113.656 18.3229 113.878C18.1011 114.099 17.8239 114.293 17.5744 114.377C17.3527 114.46 17.1586 114.488 16.9923 114.432C16.826 114.377 16.7151 114.266 16.6042 114.127C16.4934 113.989 16.4379 113.795 16.3825 113.573C16.327 113.351 16.2993 113.129 16.2993 112.88C16.2993 112.63 16.2993 112.409 16.327 112.159C16.3548 111.91 16.4102 111.716 16.4656 111.522C16.5488 111.189 16.6874 110.856 16.8537 110.496C17.02 110.136 17.2141 109.803 17.4358 109.498C17.6576 109.193 17.8793 108.916 18.1565 108.694C18.406 108.472 18.6832 108.334 18.9604 108.251C19.1545 108.195 19.3208 108.195 19.4871 108.251C19.6534 108.306 19.792 108.361 19.9029 108.445C20.0138 108.528 20.1247 108.639 20.2078 108.777C20.291 108.888 20.3464 109.027 20.4019 109.138C20.4573 109.248 20.4573 109.332 20.4573 109.415C20.4573 109.498 20.4296 109.553 20.4019 109.553C20.3187 109.581 20.2078 109.526 20.1247 109.387C20.0138 109.248 19.8752 109.11 19.6811 108.944C19.6257 108.888 19.5148 108.86 19.4317 108.888C19.3208 108.888 19.2099 108.944 19.099 108.999C18.9881 109.054 18.8495 109.138 18.7387 109.248C18.6278 109.359 18.5169 109.498 18.4337 109.637C18.2397 109.914 18.0734 110.163 17.9348 110.413C17.7962 110.662 17.6853 110.912 17.5744 111.161C17.4913 111.411 17.4081 111.688 17.3527 111.965C17.2972 112.242 17.2972 112.547 17.2972 112.88C17.2972 113.157 17.3527 113.351 17.4358 113.406C17.519 113.462 17.6299 113.462 17.7962 113.379C17.9348 113.296 18.1011 113.157 18.2397 112.991C18.406 112.797 18.5723 112.603 18.7109 112.409C18.8495 112.215 18.9881 112.02 19.099 111.826C19.2099 111.632 19.2931 111.522 19.3208 111.438C19.4039 111.272 19.4871 111.106 19.5703 110.912C19.6534 110.718 19.7643 110.579 19.8752 110.44C19.9861 110.302 20.1247 110.219 20.2633 110.191C20.4019 110.163 20.5682 110.191 20.7622 110.33C20.8454 110.385 20.9285 110.524 20.984 110.718C21.0394 110.912 21.0671 111.133 21.0671 111.355C21.0949 111.605 21.0949 111.826 21.0949 112.02C21.0949 112.242 21.0949 112.409 21.0671 112.519C21.1503 112.492 21.2335 112.464 21.3443 112.409C21.4552 112.353 21.5661 112.325 21.7047 112.298C21.8433 112.27 21.9542 112.242 22.065 112.242C22.2036 112.242 22.3145 112.242 22.3977 112.298C22.3977 112.353 22.3422 112.436 22.2314 112.519C22.1205 112.603 22.0096 112.686 21.871 112.769C21.7324 112.852 21.5938 112.935 21.4275 113.018C21.2612 113.102 21.1226 113.185 21.0117 113.24C21.0117 113.351 21.0117 113.517 20.984 113.739C20.9563 113.961 20.9285 114.238 20.8454 114.515C20.7899 114.792 20.6791 115.07 20.5682 115.347C20.5127 115.679 20.3464 115.901 20.1247 116.095ZM20.0692 113.795C19.9029 113.878 19.7643 113.961 19.6257 114.072C19.4871 114.183 19.3762 114.293 19.2376 114.432C19.099 114.571 18.9604 114.737 18.8773 114.931C18.8218 115.042 18.8218 115.153 18.8773 115.236C18.9327 115.347 19.0159 115.43 19.1267 115.485C19.2376 115.541 19.3762 115.569 19.5148 115.569C19.6534 115.569 19.7643 115.513 19.8752 115.402C19.9861 115.319 20.0692 115.181 20.0969 114.986C20.1247 114.792 20.1524 114.626 20.1524 114.432C20.1247 114.266 20.1247 114.044 20.0692 113.795Z" fill="#008C45"/>
<path d="M21.7046 110.967C21.6491 110.94 21.566 110.912 21.5105 110.884C21.4274 110.884 21.3719 110.856 21.3165 110.856C21.261 110.856 21.2056 110.856 21.1779 110.829C21.1502 110.829 21.1224 110.773 21.0947 110.718C21.0947 110.69 21.1502 110.635 21.261 110.579C21.3719 110.496 21.4828 110.441 21.6491 110.413C21.7877 110.357 21.954 110.357 22.1481 110.357C22.3144 110.357 22.4807 110.441 22.647 110.579C22.7856 110.718 22.8688 110.829 22.952 110.94C23.0351 111.05 23.0906 111.134 23.146 111.217C23.2014 111.328 23.2569 111.411 23.2846 111.494C23.4509 111.328 23.645 111.189 23.839 111.078C24.0053 110.967 24.1716 110.912 24.3657 110.829C24.5597 110.773 24.7537 110.773 24.9755 110.829C25.0309 110.856 25.0587 110.884 25.0309 110.94C25.0309 110.995 25.0032 111.05 24.9478 111.134C24.8923 111.189 24.8369 111.272 24.7538 111.328C24.6706 111.383 24.5874 111.438 24.4766 111.466C24.2548 111.522 24.0885 111.605 23.9499 111.743C23.8113 111.882 23.7281 112.048 23.645 112.215C23.5895 112.409 23.5341 112.603 23.5064 112.797C23.4786 112.991 23.4786 113.213 23.4786 113.407C23.4786 113.822 23.4232 114.127 23.3123 114.321C23.2014 114.515 23.0351 114.626 22.8411 114.626C22.6193 114.626 22.4253 114.543 22.3144 114.321C22.2035 114.1 22.1481 113.712 22.1481 113.185C22.1758 112.52 22.1204 111.993 22.0649 111.633C21.9818 111.272 21.8709 111.05 21.7046 110.967Z" fill="#008C45"/>
<path d="M27.2489 110.69C27.5261 110.856 27.7478 111.078 27.9142 111.328C28.0805 111.577 28.1636 111.854 28.2191 112.132C28.2745 112.409 28.2468 112.686 28.1914 112.963C28.1359 113.24 28.025 113.49 27.8864 113.712C27.7478 113.933 27.5538 114.127 27.332 114.266C27.1103 114.405 26.8608 114.488 26.5559 114.488C26.1955 114.488 25.8906 114.405 25.6411 114.238C25.3917 114.072 25.1976 113.85 25.0867 113.601C24.9481 113.351 24.8927 113.074 24.865 112.769C24.8373 112.464 24.865 112.187 24.9759 111.91C25.059 111.633 25.1976 111.411 25.3917 111.244C25.5857 111.05 25.8352 110.967 26.1401 110.94C26.4173 110.912 26.6113 110.884 26.7499 110.856C26.8608 110.829 26.9717 110.773 27.0271 110.746C27.0826 110.718 27.138 110.69 27.138 110.662C27.138 110.635 27.1657 110.662 27.2489 110.69ZM26.1678 111.494C26.1401 111.522 26.1124 111.633 26.0847 111.771C26.0569 111.91 26.0569 112.076 26.0292 112.27C26.0292 112.464 26.0292 112.658 26.0292 112.88C26.0292 113.102 26.0569 113.296 26.0847 113.462C26.1124 113.628 26.1678 113.767 26.2233 113.906C26.2787 114.016 26.3619 114.072 26.445 114.044C26.5282 114.044 26.6113 113.961 26.6945 113.878C26.7777 113.767 26.8608 113.656 26.9162 113.49C26.9717 113.323 27.0271 113.157 27.0826 112.991C27.1103 112.797 27.138 112.63 27.1657 112.464C27.1657 112.298 27.1657 112.132 27.138 111.993C27.1103 111.854 27.0548 111.743 26.9717 111.66C26.8054 111.494 26.6391 111.383 26.5282 111.383C26.3896 111.328 26.2787 111.383 26.1678 111.494Z" fill="#008C45"/>
<path d="M28.8289 110.94C28.9675 110.884 29.0784 110.856 29.1893 110.856C29.3002 110.856 29.411 110.884 29.4942 110.912C29.5774 110.967 29.6605 111.023 29.6882 111.106C29.7437 111.189 29.7714 111.272 29.7437 111.355C29.6882 111.771 29.6882 112.132 29.7714 112.492C29.8268 112.852 29.91 113.129 29.9931 113.379C30.0763 113.628 30.1872 113.795 30.2981 113.906C30.4089 114.017 30.4644 114.044 30.5198 113.961C30.5475 113.906 30.603 113.739 30.6584 113.518C30.7139 113.296 30.7693 113.046 30.8525 112.797C30.9356 112.52 31.0188 112.27 31.1574 112.021C31.2683 111.771 31.4346 111.549 31.6009 111.411C31.7949 111.272 31.9335 111.189 32.0721 111.189C32.2107 111.161 32.3216 111.217 32.4048 111.272C32.4879 111.355 32.5711 111.439 32.6543 111.577C32.7097 111.716 32.7929 111.827 32.8483 111.965C32.9037 112.104 32.9592 112.27 33.0146 112.492C33.0701 112.714 33.0978 112.908 33.1532 113.102C33.2087 113.296 33.2641 113.462 33.3195 113.573C33.375 113.684 33.4581 113.712 33.5413 113.656C33.5967 113.628 33.6522 113.518 33.6799 113.407C33.7353 113.268 33.7631 113.129 33.7908 112.963C33.8185 112.797 33.8739 112.603 33.9294 112.436C33.9848 112.27 34.0403 112.104 34.0957 111.938C34.1511 111.799 34.262 111.66 34.3452 111.577C34.456 111.494 34.5669 111.439 34.7055 111.466C34.8996 111.494 35.0659 111.549 35.2322 111.605C35.3985 111.688 35.5094 111.771 35.6203 111.854C35.7034 111.938 35.7866 112.021 35.7866 112.076C35.8143 112.132 35.7866 112.159 35.6757 112.132C35.5926 112.104 35.5094 112.104 35.4262 112.104C35.3431 112.104 35.2599 112.159 35.1768 112.215C35.0936 112.27 35.0382 112.381 34.9827 112.52C34.9273 112.658 34.8718 112.825 34.8164 113.046C34.761 113.268 34.7332 113.462 34.6778 113.656C34.6224 113.85 34.5669 113.989 34.5115 114.127C34.4283 114.266 34.3452 114.377 34.2343 114.46C34.1234 114.543 33.9848 114.599 33.7908 114.626C33.6245 114.654 33.4581 114.599 33.3195 114.515C33.1809 114.432 33.0423 114.321 32.9315 114.155C32.8206 114.017 32.7097 113.85 32.6543 113.684C32.5711 113.518 32.5157 113.351 32.4879 113.185C32.4602 113.046 32.4325 112.935 32.4048 112.88C32.3771 112.825 32.3493 112.797 32.3493 112.825C32.3216 112.852 32.2939 112.908 32.2662 112.991C32.2385 113.074 32.183 113.185 32.1276 113.351C32.0721 113.49 32.0444 113.628 31.989 113.767C31.9335 113.906 31.8781 114.044 31.7949 114.155C31.7118 114.266 31.6009 114.377 31.49 114.488C31.3514 114.571 31.1851 114.654 30.9911 114.71C30.797 114.737 30.603 114.737 30.4089 114.71C30.2149 114.654 30.0486 114.599 29.91 114.488C29.7437 114.377 29.6328 114.266 29.4942 114.155C29.3833 114.017 29.2724 113.906 29.217 113.767C29.1616 113.684 29.1061 113.573 29.0507 113.407C28.9952 113.268 28.9398 113.074 28.8844 112.908C28.8289 112.714 28.7735 112.52 28.7458 112.326C28.718 112.132 28.6903 111.938 28.6626 111.743C28.6626 111.577 28.6626 111.411 28.6903 111.272C28.6903 111.05 28.7458 110.967 28.8289 110.94Z" fill="#008C45"/>
<path d="M35.6756 112.963C35.7311 112.908 35.7865 112.825 35.8142 112.769C35.8419 112.714 35.8974 112.631 35.9528 112.575C35.9805 112.492 36.036 112.409 36.0637 112.298C36.0914 112.187 36.1191 112.076 36.1469 111.91C36.1746 111.743 36.2023 111.605 36.2023 111.466C36.2023 111.328 36.23 111.217 36.23 111.134C36.23 111.05 36.2577 110.967 36.2854 110.884C36.3132 110.829 36.3686 110.773 36.4518 110.773C36.5349 110.773 36.6458 110.746 36.7567 110.69C36.8953 110.662 37.0339 110.635 37.1448 110.635C37.2556 110.635 37.3665 110.662 37.4497 110.746C37.5328 110.829 37.5328 110.967 37.5051 111.161C37.4774 111.245 37.4774 111.355 37.4497 111.522C37.422 111.688 37.422 111.854 37.422 112.048C37.422 112.242 37.3942 112.436 37.3942 112.631C37.3942 112.825 37.422 113.019 37.4497 113.185C37.4774 113.351 37.5051 113.518 37.5606 113.628C37.616 113.739 37.6714 113.822 37.7823 113.878C37.9764 113.961 38.115 113.961 38.2536 113.878C38.3644 113.795 38.503 113.684 38.6416 113.518C38.6971 113.434 38.7525 113.379 38.808 113.351C38.8634 113.296 38.9188 113.296 38.9743 113.296C39.002 113.296 39.0297 113.351 39.0297 113.434C39.0297 113.518 38.9743 113.656 38.8911 113.822C38.7248 114.211 38.503 114.432 38.2258 114.571C37.9486 114.682 37.616 114.71 37.2556 114.654C37.0616 114.599 36.8953 114.515 36.7567 114.349C36.6181 114.183 36.5349 114.044 36.4518 113.85C36.3963 113.684 36.3409 113.518 36.3132 113.379C36.2855 113.24 36.2577 113.157 36.23 113.157C36.2023 113.129 36.1746 113.129 36.1469 113.157C36.1191 113.157 36.0914 113.185 36.0914 113.213C36.0637 113.24 36.036 113.268 36.0083 113.296C35.9805 113.324 35.9251 113.351 35.8697 113.351C35.7311 113.379 35.6479 113.351 35.6479 113.296C35.5925 113.157 35.6202 113.074 35.6756 112.963ZM36.5904 108.334C36.6735 108.195 36.7844 108.112 36.9507 108.112C37.0893 108.084 37.2556 108.112 37.3942 108.168C37.5328 108.223 37.6437 108.306 37.7546 108.389C37.8378 108.5 37.8932 108.583 37.8655 108.667C37.8378 108.75 37.7823 108.805 37.7269 108.861C37.6714 108.916 37.5883 108.944 37.5051 108.999C37.422 109.027 37.3388 109.055 37.2279 109.082C37.1448 109.11 37.0616 109.11 36.9784 109.082C36.8953 109.082 36.8398 109.055 36.7844 108.999C36.729 108.944 36.6735 108.888 36.6458 108.833C36.6181 108.75 36.5904 108.694 36.5904 108.611C36.5349 108.5 36.5349 108.417 36.5904 108.334Z" fill="#008C45"/>
<path d="M38.7799 111.272C38.8077 111.217 38.8631 111.161 38.9463 111.106C39.0294 111.05 39.0849 110.995 39.168 110.967C39.2512 110.94 39.3343 110.884 39.3898 110.884C39.4729 110.856 39.5284 110.856 39.5838 110.856C39.6115 110.856 39.6393 110.884 39.6393 110.94C39.6393 110.995 39.667 111.05 39.6947 111.134C39.7224 111.217 39.7224 111.3 39.7224 111.411C39.7224 111.522 39.7501 111.633 39.7501 111.716C39.7501 111.965 39.7778 112.242 39.7501 112.575C39.8333 112.409 39.9165 112.242 39.9996 112.104C40.0828 111.965 40.1659 111.827 40.2768 111.688C40.3877 111.549 40.4986 111.439 40.6094 111.328C40.7203 111.245 40.8312 111.161 40.9698 111.106C41.1084 111.05 41.2193 111.023 41.3579 111.05C41.4965 111.05 41.6074 111.106 41.746 111.189C41.8568 111.272 41.9677 111.411 42.0786 111.577C42.134 111.688 42.1895 111.854 42.2172 112.021C42.2449 112.187 42.2726 112.381 42.3004 112.575C42.3004 112.769 42.3281 112.963 42.3558 113.157C42.3835 113.351 42.4112 113.545 42.439 113.712C42.4667 113.878 42.5498 114.017 42.6053 114.127C42.6884 114.238 42.7716 114.321 42.9102 114.349C43.0211 114.377 43.132 114.377 43.2428 114.349C43.3537 114.321 43.4646 114.294 43.5478 114.238C43.6309 114.183 43.7418 114.155 43.7972 114.127C43.8804 114.1 43.9081 114.1 43.9636 114.1C43.9913 114.127 43.9636 114.183 43.9358 114.294C43.8804 114.405 43.7972 114.515 43.6586 114.654C43.5478 114.765 43.3814 114.876 43.2151 114.959C43.0211 115.042 42.827 115.07 42.5776 115.042C42.1063 114.987 41.7737 114.737 41.5796 114.321C41.3856 113.906 41.247 113.351 41.2193 112.686C41.2193 112.436 41.1916 112.27 41.1361 112.132C41.0807 112.021 41.0252 111.938 40.9421 111.938C40.8589 111.938 40.7758 111.965 40.6926 112.076C40.6094 112.159 40.4986 112.298 40.3877 112.464C40.2491 112.658 40.1659 112.852 40.1105 113.046C40.055 113.24 39.9996 113.407 39.9719 113.601C39.9442 113.767 39.9442 113.906 39.9164 114.044C39.9164 114.183 39.8887 114.266 39.861 114.321C39.8333 114.377 39.7501 114.432 39.667 114.46C39.5561 114.488 39.4729 114.488 39.3343 114.488C39.2235 114.488 39.1126 114.488 39.0017 114.46C38.8908 114.432 38.8077 114.405 38.7799 114.377C38.7522 114.349 38.7245 114.266 38.7245 114.1C38.6968 113.961 38.6968 113.767 38.6968 113.545C38.6968 113.324 38.6968 113.102 38.6968 112.852C38.6968 112.603 38.6968 112.381 38.7245 112.159C38.7245 111.938 38.7522 111.743 38.7799 111.577C38.7245 111.439 38.7522 111.328 38.7799 111.272Z" fill="#008C45"/>
<path d="M47.6783 113.268C47.8169 113.213 47.9277 113.185 47.9832 113.185C48.0663 113.185 48.0941 113.213 48.1218 113.268C48.1495 113.324 48.1218 113.351 48.0941 113.435C48.0663 113.49 48.0109 113.546 47.9277 113.601C47.8446 113.684 47.7337 113.74 47.6505 113.823C47.5674 113.906 47.4565 113.989 47.3733 114.072C47.2625 114.155 47.1516 114.239 47.0407 114.349C46.9298 114.46 46.7912 114.571 46.6526 114.71C46.7081 114.987 46.7358 115.292 46.7358 115.597C46.7358 115.902 46.7358 116.179 46.6803 116.456C46.6526 116.733 46.5695 116.983 46.4586 117.232C46.3477 117.454 46.2368 117.648 46.0428 117.814C45.7933 118.008 45.5716 118.147 45.3221 118.175C45.0726 118.202 44.8786 118.175 44.6845 118.064C44.4905 117.953 44.3519 117.787 44.241 117.537C44.1301 117.288 44.1024 117.038 44.1578 116.706C44.2133 116.373 44.2964 116.096 44.4628 115.846C44.6291 115.597 44.7677 115.403 44.9617 115.209C45.1558 115.015 45.3775 114.848 45.5993 114.71C45.5993 114.627 45.5715 114.543 45.5715 114.433C45.5438 114.349 45.5438 114.239 45.5161 114.1C45.4884 113.961 45.433 113.823 45.4052 113.629C45.3775 113.518 45.3498 113.407 45.2943 113.324C45.2389 113.241 45.2112 113.157 45.1558 113.074C45.1003 112.991 45.0449 112.936 44.9894 112.853C44.8786 112.963 44.7954 113.074 44.6845 113.157C44.6014 113.241 44.4905 113.296 44.4073 113.351C44.2964 113.407 44.2133 113.435 44.1024 113.435C43.9915 113.435 43.8806 113.379 43.7698 113.296C43.6312 113.213 43.548 113.074 43.4371 112.936C43.354 112.769 43.2708 112.603 43.2154 112.381C43.1599 112.16 43.1599 111.938 43.1876 111.716C43.2431 111.494 43.2985 111.3 43.354 111.134C43.4371 110.995 43.4926 110.884 43.5757 110.801C43.6589 110.718 43.742 110.663 43.8252 110.607C43.9084 110.579 44.0192 110.552 44.1024 110.524C44.241 110.496 44.4073 110.524 44.6014 110.579C44.7954 110.635 44.9894 110.718 45.1558 110.829C45.3221 110.912 45.4607 111.023 45.5993 111.134C45.7101 111.245 45.7933 111.328 45.7656 111.383C45.7656 111.439 45.6824 111.467 45.5715 111.439C45.4329 111.439 45.2944 111.411 45.128 111.383C44.9617 111.356 44.7954 111.356 44.6291 111.356C44.4628 111.356 44.3519 111.411 44.2964 111.494C44.241 111.605 44.1856 111.716 44.1578 111.827C44.1301 111.938 44.1024 112.076 44.1024 112.187C44.1024 112.298 44.1024 112.409 44.1301 112.52C44.1578 112.631 44.1856 112.686 44.2687 112.742C44.2964 112.769 44.3519 112.769 44.435 112.714C44.4905 112.658 44.5736 112.603 44.6568 112.52C44.74 112.437 44.8508 112.381 44.934 112.298C45.0449 112.215 45.1558 112.187 45.2666 112.16C45.3775 112.16 45.5161 112.187 45.6547 112.243C45.7933 112.326 45.9319 112.464 46.0428 112.686C46.1259 112.825 46.2091 112.991 46.2923 113.213C46.3754 113.435 46.4586 113.712 46.5417 114.017C46.6249 113.961 46.7081 113.906 46.8189 113.85L47.1239 113.629C47.2347 113.573 47.3456 113.49 47.4288 113.435C47.5119 113.351 47.5951 113.296 47.6783 113.268ZM45.4884 116.9C45.5438 116.789 45.5438 116.65 45.5715 116.484C45.5715 116.318 45.5993 116.151 45.5993 115.985C45.5993 115.791 45.5715 115.597 45.5715 115.403C45.4329 115.514 45.3221 115.625 45.2389 115.763C45.1558 115.874 45.0726 115.985 45.0172 116.123C44.9617 116.262 44.934 116.428 44.934 116.595C44.934 116.761 44.9894 116.872 45.0449 116.927C45.1003 117.011 45.1558 117.038 45.2389 117.038C45.2944 117.038 45.3775 117.038 45.4329 117.011C45.4052 117.011 45.4607 116.955 45.4884 116.9Z" fill="#008C45"/>
<path d="M51.0324 111.078C51.0324 111.133 51.0324 111.244 51.0047 111.41C51.0047 111.549 51.0047 111.715 51.0047 111.909C51.0047 112.103 51.0047 112.298 51.0324 112.492C51.0324 112.686 51.0602 112.88 51.0879 113.046C51.1156 113.212 51.171 113.351 51.2265 113.462C51.2819 113.573 51.3651 113.628 51.476 113.6C51.5591 113.6 51.6423 113.545 51.6977 113.462C51.7809 113.379 51.864 113.24 51.9195 113.101C52.0026 112.963 52.0581 112.796 52.1135 112.63C52.169 112.464 52.2244 112.298 52.2798 112.159C52.3353 112.02 52.363 111.882 52.3907 111.771C52.4184 111.66 52.4184 111.605 52.4184 111.605C52.4184 111.521 52.4739 111.466 52.5848 111.41C52.6956 111.355 52.8342 111.327 52.9451 111.3C53.0837 111.3 53.1946 111.3 53.3332 111.355C53.4441 111.41 53.5272 111.494 53.5549 111.632C53.5549 111.715 53.5827 111.854 53.5549 112.02C53.5549 112.187 53.5549 112.381 53.5272 112.575C53.5272 112.769 53.5272 112.991 53.5272 113.212C53.5272 113.434 53.5549 113.628 53.6104 113.794C53.6658 113.961 53.7213 114.099 53.8321 114.21C53.9153 114.321 54.0539 114.377 54.2479 114.377C54.4143 114.377 54.5251 114.349 54.5806 114.293C54.6637 114.238 54.7192 114.182 54.7469 114.127C54.8023 114.072 54.8301 114.016 54.8855 113.988C54.9409 113.961 54.9964 113.961 55.0795 113.988C55.1073 113.988 55.1073 114.044 55.1073 114.099C55.1073 114.155 55.0795 114.238 55.0518 114.321C55.0241 114.404 54.9687 114.487 54.8855 114.571C54.8301 114.654 54.7192 114.737 54.6083 114.82C54.4974 114.875 54.3588 114.931 54.1925 114.959C54.0262 114.986 53.8321 114.986 53.6104 114.959C53.4441 114.931 53.3055 114.903 53.1946 114.82C53.0837 114.765 53.0005 114.681 52.9174 114.626C52.8342 114.543 52.7788 114.46 52.7233 114.377C52.6679 114.293 52.6402 114.182 52.6125 114.099C52.557 113.878 52.5293 113.656 52.557 113.379C52.4739 113.628 52.363 113.85 52.2521 114.016C52.1412 114.182 52.0026 114.321 51.8086 114.432C51.6423 114.543 51.4205 114.598 51.171 114.543C50.9216 114.515 50.6998 114.432 50.5335 114.293C50.3672 114.155 50.2286 114.016 50.1177 113.822C50.0068 113.628 49.9514 113.434 49.8959 113.212C49.8405 112.991 49.8128 112.796 49.785 112.575C49.7573 112.408 49.7573 112.214 49.7573 112.048C49.7573 111.882 49.7573 111.715 49.785 111.577C49.785 111.438 49.8128 111.3 49.8405 111.189C49.8682 111.078 49.8959 111.022 49.9236 110.995C49.9514 110.967 50.0345 110.939 50.1454 110.884C50.2563 110.856 50.3949 110.828 50.5058 110.828C50.6444 110.828 50.7552 110.856 50.8384 110.884C51.0047 110.856 51.0602 110.939 51.0324 111.078Z" fill="#008C45"/>
<path d="M54.6912 110.385C54.7467 110.33 54.8021 110.302 54.8853 110.302C54.9684 110.302 55.0239 110.33 55.107 110.385C55.1902 110.441 55.2456 110.496 55.3288 110.552C55.3842 110.607 55.4397 110.69 55.4674 110.746C55.4951 110.801 55.5228 110.884 55.5505 110.995C55.5783 111.106 55.5783 111.217 55.606 111.328C55.606 111.439 55.6337 111.522 55.6337 111.605C55.6337 111.661 55.6614 111.688 55.6891 111.661C55.7169 111.633 55.7723 111.55 55.8555 111.411C55.9386 111.272 56.0218 111.162 56.1604 111.023C56.299 110.884 56.4376 110.773 56.6039 110.69C56.7702 110.607 56.9643 110.579 57.186 110.635C57.3246 110.663 57.4909 110.718 57.6295 110.801C57.7958 110.884 57.9344 110.995 58.0453 111.106C58.1839 111.217 58.2671 111.383 58.3502 111.55C58.4334 111.716 58.4611 111.938 58.4334 112.159C58.4057 112.658 58.2671 113.047 57.9899 113.324C57.7127 113.601 57.3246 113.795 56.8257 113.878C56.493 113.934 56.2713 113.961 56.1604 113.906C56.0495 113.878 55.9941 113.795 56.0218 113.712C56.0495 113.601 56.1327 113.545 56.2435 113.462C56.3821 113.407 56.5762 113.324 56.8257 113.185C56.9365 113.13 57.0474 113.047 57.1583 112.936C57.2692 112.825 57.3523 112.686 57.38 112.548C57.4355 112.409 57.4355 112.27 57.4355 112.104C57.4078 111.965 57.3523 111.827 57.2137 111.716C57.1028 111.633 56.992 111.577 56.8811 111.605C56.7702 111.633 56.6871 111.661 56.5762 111.744C56.4653 111.827 56.3821 111.938 56.2713 112.076C56.1604 112.215 56.0772 112.354 55.9663 112.492C55.8832 112.631 55.8 112.825 55.7446 113.074C55.6891 113.324 55.6614 113.629 55.6337 113.934C55.606 114.238 55.606 114.571 55.606 114.904C55.606 115.236 55.606 115.541 55.606 115.818C55.606 116.096 55.606 116.373 55.606 116.595C55.606 116.816 55.606 116.983 55.606 117.066C55.5783 117.204 55.5505 117.288 55.4674 117.315C55.3842 117.343 55.3011 117.371 55.2179 117.343C55.107 117.315 55.0239 117.288 54.913 117.204C54.8021 117.149 54.7189 117.066 54.6635 116.983C54.6358 116.955 54.6081 116.844 54.6081 116.65C54.5803 116.456 54.5803 116.179 54.5526 115.874C54.5249 115.569 54.5249 115.209 54.5249 114.821C54.5249 114.433 54.5249 114.044 54.5249 113.629C54.5249 113.241 54.5249 112.825 54.5249 112.437C54.5249 112.049 54.5526 111.716 54.5526 111.383C54.5526 111.078 54.5803 110.829 54.5803 110.607C54.6635 110.524 54.6635 110.385 54.6912 110.385Z" fill="#008C45"/>
<path d="M60.5401 113.74C60.5679 113.768 60.5679 113.823 60.5956 113.851C60.5956 113.878 60.5956 113.934 60.5956 113.962C60.5956 113.989 60.5956 114.045 60.6233 114.072C60.6233 114.1 60.651 114.128 60.7065 114.156C60.7619 114.183 60.7619 114.266 60.7342 114.405C60.7065 114.544 60.651 114.682 60.5679 114.849C60.5124 115.015 60.4015 115.209 60.3184 115.375C60.2352 115.542 60.1521 115.708 60.0689 115.819C59.9026 116.013 59.764 116.151 59.5977 116.262C59.4591 116.373 59.3205 116.429 59.2096 116.456C59.0987 116.456 59.0156 116.429 58.9601 116.318C58.9047 116.207 58.877 116.041 58.877 115.791C58.877 115.68 58.9047 115.542 58.9324 115.403C58.9601 115.264 59.0156 115.098 59.0433 114.959C59.071 114.793 59.1264 114.655 59.1542 114.516C59.1819 114.377 59.2373 114.239 59.2373 114.128C59.265 114.045 59.3482 113.962 59.4591 113.878C59.57 113.795 59.7085 113.74 59.8471 113.712C59.9857 113.657 60.1243 113.657 60.2629 113.657C60.4015 113.629 60.4847 113.657 60.5401 113.74Z" fill="#008C45"/>
<path d="M64.1438 112.963C64.1993 112.908 64.2547 112.825 64.2824 112.769C64.3379 112.714 64.3656 112.631 64.421 112.575C64.4488 112.492 64.5042 112.409 64.5319 112.298C64.5596 112.187 64.5874 112.076 64.6151 111.91C64.6428 111.743 64.6428 111.605 64.6705 111.466C64.6705 111.328 64.6705 111.217 64.6982 111.134C64.6982 111.05 64.726 110.967 64.7537 110.884C64.7814 110.829 64.8368 110.773 64.92 110.773C65.0031 110.773 65.114 110.746 65.2249 110.69C65.3635 110.662 65.4744 110.635 65.613 110.635C65.7239 110.635 65.8347 110.662 65.9179 110.746C66.0011 110.829 66.0288 110.967 65.9733 111.161C65.9456 111.245 65.9456 111.355 65.9179 111.522C65.8902 111.688 65.8902 111.854 65.8625 112.048C65.8625 112.242 65.8347 112.436 65.8625 112.631C65.8625 112.825 65.8902 113.019 65.9179 113.185C65.9456 113.351 65.9733 113.518 66.0288 113.628C66.0842 113.739 66.1674 113.822 66.2505 113.878C66.4446 113.961 66.5832 113.961 66.7218 113.878C66.8327 113.795 66.9713 113.684 67.1099 113.518C67.1653 113.434 67.2207 113.379 67.2762 113.351C67.3316 113.296 67.3871 113.296 67.4425 113.296C67.4702 113.296 67.4979 113.351 67.4979 113.434C67.4979 113.518 67.4425 113.656 67.3593 113.822C67.193 114.211 66.9713 114.432 66.6941 114.571C66.4169 114.682 66.0842 114.71 65.7239 114.654C65.5298 114.599 65.3635 114.515 65.2249 114.349C65.0863 114.183 65.0031 114.044 64.92 113.85C64.8646 113.684 64.8091 113.518 64.7814 113.379C64.7537 113.24 64.7259 113.157 64.6982 113.157C64.6705 113.129 64.6428 113.129 64.6151 113.157C64.5874 113.157 64.5596 113.185 64.5319 113.213C64.5042 113.24 64.4765 113.268 64.4488 113.296C64.421 113.324 64.3656 113.351 64.3102 113.351C64.1716 113.379 64.1161 113.351 64.0884 113.296C64.033 113.157 64.0884 113.074 64.1438 112.963ZM65.0586 108.334C65.1417 108.195 65.2526 108.112 65.4189 108.112C65.5575 108.084 65.7239 108.112 65.8625 108.168C66.0011 108.223 66.1119 108.306 66.2228 108.389C66.306 108.5 66.3614 108.583 66.3337 108.667C66.306 108.75 66.2505 108.805 66.1951 108.861C66.1397 108.916 66.0565 108.944 65.9733 108.999C65.8902 109.027 65.807 109.055 65.6961 109.082C65.613 109.11 65.5298 109.11 65.4467 109.082C65.3635 109.082 65.3081 109.055 65.2526 108.999C65.1972 108.944 65.1417 108.888 65.114 108.833C65.0863 108.75 65.0586 108.694 65.0586 108.611C65.0031 108.5 65.0031 108.417 65.0586 108.334Z" fill="#008C45"/>
<path d="M67.2482 111.272C67.2759 111.217 67.3314 111.161 67.4145 111.106C67.4977 111.05 67.5531 110.995 67.6363 110.967C67.7194 110.94 67.8026 110.884 67.858 110.884C67.9412 110.856 67.9966 110.856 68.0521 110.856C68.0798 110.856 68.1075 110.884 68.1075 110.94C68.1352 110.995 68.1352 111.05 68.163 111.134C68.1907 111.217 68.1907 111.3 68.1907 111.411C68.1907 111.522 68.1907 111.633 68.2184 111.716C68.2184 111.965 68.2461 112.242 68.2184 112.575C68.3016 112.409 68.3847 112.242 68.4679 112.104C68.551 111.965 68.6342 111.827 68.7451 111.688C68.856 111.549 68.9668 111.439 69.0777 111.328C69.1886 111.245 69.2995 111.161 69.4381 111.106C69.5767 111.05 69.6875 111.023 69.8261 111.05C69.9647 111.05 70.0756 111.106 70.2142 111.189C70.3251 111.272 70.436 111.411 70.5469 111.577C70.6023 111.688 70.6577 111.854 70.6855 112.021C70.7132 112.187 70.7409 112.381 70.7686 112.575C70.7686 112.769 70.7963 112.963 70.8241 113.157C70.8518 113.351 70.8795 113.545 70.9072 113.712C70.9627 113.878 71.0181 114.017 71.0735 114.127C71.1567 114.238 71.2399 114.321 71.3785 114.349C71.4893 114.377 71.6002 114.377 71.7111 114.349C71.822 114.321 71.9329 114.294 72.016 114.238C72.0992 114.183 72.1823 114.155 72.2655 114.127C72.3209 114.1 72.3764 114.1 72.4041 114.1C72.4318 114.127 72.4318 114.183 72.3764 114.294C72.3209 114.405 72.2378 114.515 72.1269 114.654C72.016 114.765 71.8497 114.876 71.6834 114.959C71.4893 115.042 71.2953 115.07 71.0458 115.042C70.5746 114.987 70.2419 114.737 70.0479 114.321C69.8261 113.906 69.7153 113.351 69.6875 112.686C69.6875 112.436 69.6598 112.27 69.6044 112.132C69.5489 112.021 69.4935 111.938 69.4103 111.938C69.3272 111.938 69.244 111.965 69.1609 112.076C69.0777 112.159 68.9668 112.298 68.8559 112.464C68.7173 112.658 68.6342 112.852 68.5787 113.046C68.5233 113.24 68.4679 113.407 68.4402 113.601C68.4124 113.767 68.4124 113.906 68.3847 114.044C68.3847 114.183 68.357 114.266 68.3293 114.321C68.3016 114.377 68.2461 114.432 68.1352 114.46C68.0244 114.488 67.9412 114.488 67.8026 114.488C67.6917 114.488 67.5808 114.488 67.47 114.46C67.3591 114.432 67.2759 114.405 67.2482 114.377C67.2205 114.349 67.1928 114.266 67.1928 114.1C67.165 113.961 67.165 113.767 67.165 113.545C67.165 113.324 67.165 113.102 67.165 112.852C67.165 112.603 67.165 112.381 67.1928 112.159C67.1928 111.938 67.2205 111.743 67.2482 111.577C67.1928 111.439 67.2205 111.328 67.2482 111.272Z" fill="#008C45"/>
<path d="M74.0121 110.164C74.0398 110.219 74.0398 110.247 74.0121 110.275C73.9844 110.302 73.929 110.33 73.8735 110.358C73.8181 110.386 73.7349 110.413 73.6795 110.469C73.5963 110.496 73.5409 110.552 73.4577 110.635C73.4023 110.718 73.3191 110.801 73.2914 110.912C73.236 111.023 73.2082 111.189 73.2082 111.356C73.2082 111.522 73.236 111.716 73.3468 111.882C73.43 112.049 73.5409 112.215 73.6795 112.381C73.8181 112.548 73.9567 112.686 74.123 112.853C74.2893 113.019 74.4279 113.158 74.5388 113.324C74.6497 113.49 74.7606 113.656 74.8437 113.823C74.9269 113.989 74.9269 114.155 74.9269 114.322C74.8992 114.488 74.7883 114.654 74.622 114.765C74.4556 114.876 74.2616 114.987 74.0121 115.042C73.7626 115.098 73.5132 115.153 73.236 115.153C72.9588 115.153 72.7093 115.126 72.4598 115.07C72.2103 115.015 72.0163 114.932 71.85 114.821C71.6837 114.71 71.5728 114.571 71.5173 114.377C71.4342 114.128 71.4342 113.906 71.4619 113.74C71.4896 113.573 71.5451 113.435 71.6282 113.296C71.7114 113.185 71.7945 113.074 71.8777 113.019C71.9608 112.963 72.044 112.908 72.1272 112.853C72.2658 112.769 72.3767 112.769 72.4044 112.853C72.4598 112.936 72.4321 113.074 72.3212 113.241C72.2658 113.324 72.2658 113.435 72.2935 113.546C72.3212 113.656 72.3766 113.767 72.4598 113.851C72.543 113.934 72.6538 114.017 72.7924 114.1C72.931 114.155 73.0974 114.211 73.2637 114.211C73.3746 114.211 73.4854 114.211 73.5963 114.183C73.7072 114.155 73.7904 114.1 73.8735 114.045C73.9567 113.989 73.9844 113.906 74.0121 113.823C74.0121 113.74 73.9844 113.656 73.9012 113.546C73.8181 113.435 73.6795 113.296 73.4854 113.158C73.2914 112.991 73.0696 112.825 72.8756 112.631C72.6538 112.437 72.4875 112.215 72.3212 111.993C72.1549 111.772 72.0717 111.55 72.0717 111.328C72.0717 110.885 72.1549 110.552 72.3212 110.358C72.4875 110.164 72.737 110.025 73.0974 109.97C73.2637 109.942 73.4023 109.914 73.5132 109.914C73.624 109.914 73.7072 109.942 73.7904 109.97C73.8458 109.997 73.9012 110.025 73.929 110.053C73.9567 110.081 73.9844 110.108 74.0121 110.164Z" fill="#008C45"/>
<path d="M74.7328 112.963C74.7882 112.908 74.8437 112.825 74.8714 112.769C74.8991 112.714 74.9546 112.631 75.01 112.575C75.0377 112.492 75.0932 112.409 75.1209 112.298C75.1486 112.187 75.1763 112.076 75.204 111.91C75.2318 111.743 75.2318 111.605 75.2595 111.466C75.2595 111.328 75.2872 111.217 75.2872 111.134C75.2872 111.05 75.3149 110.967 75.3426 110.884C75.3704 110.829 75.4258 110.773 75.509 110.773C75.5921 110.773 75.703 110.746 75.8139 110.69C75.9525 110.662 76.0634 110.635 76.2019 110.635C76.3128 110.635 76.4237 110.662 76.5069 110.746C76.59 110.829 76.59 110.967 76.5623 111.161C76.5346 111.245 76.5346 111.355 76.5069 111.522C76.4792 111.688 76.4791 111.854 76.4791 112.048C76.4791 112.242 76.4514 112.436 76.4514 112.631C76.4514 112.825 76.4792 113.019 76.5069 113.185C76.5346 113.351 76.5623 113.518 76.6177 113.628C76.6732 113.739 76.7564 113.822 76.8395 113.878C77.0336 113.961 77.1721 113.961 77.3107 113.878C77.4216 113.795 77.5602 113.684 77.6988 113.518C77.7543 113.434 77.8097 113.379 77.8651 113.351C77.9206 113.296 77.976 113.296 78.0315 113.296C78.0592 113.296 78.0869 113.351 78.0869 113.434C78.0869 113.518 78.0315 113.656 77.9483 113.822C77.782 114.211 77.5602 114.432 77.283 114.571C77.0058 114.682 76.6732 114.71 76.3128 114.654C76.1188 114.599 75.9525 114.515 75.8139 114.349C75.703 114.183 75.5921 114.044 75.5367 113.85C75.4812 113.684 75.4258 113.518 75.3981 113.379C75.3704 113.24 75.3426 113.157 75.3149 113.157C75.2872 113.129 75.2595 113.129 75.2318 113.157C75.204 113.157 75.1763 113.185 75.1763 113.213C75.1486 113.24 75.1209 113.268 75.0932 113.296C75.0654 113.324 75.01 113.351 74.9546 113.351C74.816 113.379 74.7328 113.351 74.7328 113.296C74.6219 113.157 74.6496 113.074 74.7328 112.963ZM75.6476 108.334C75.7307 108.195 75.8416 108.112 76.0079 108.112C76.1465 108.084 76.3128 108.112 76.4514 108.168C76.59 108.223 76.7009 108.306 76.8118 108.389C76.895 108.5 76.9504 108.583 76.9227 108.667C76.8949 108.75 76.8395 108.805 76.7841 108.861C76.7286 108.916 76.6455 108.944 76.5623 108.999C76.4792 109.027 76.396 109.055 76.2851 109.082C76.202 109.11 76.1188 109.11 76.0356 109.082C75.9525 109.082 75.897 109.055 75.8416 108.999C75.7862 108.944 75.7307 108.888 75.703 108.833C75.6753 108.75 75.6476 108.694 75.6476 108.611C75.5644 108.5 75.5921 108.417 75.6476 108.334Z" fill="#008C45"/>
<path d="M80.1656 111.383C80.1933 110.968 80.2211 110.58 80.2488 110.219C80.2765 109.914 80.2765 109.582 80.3042 109.277C80.3042 108.972 80.3042 108.722 80.3042 108.556C80.3042 108.39 80.3319 108.251 80.4151 108.14C80.4983 108.002 80.6091 107.891 80.72 107.808C80.8309 107.724 80.9418 107.641 81.0526 107.586C81.1635 107.53 81.2467 107.503 81.3021 107.503C81.3576 107.503 81.3853 107.641 81.3853 107.891C81.3853 108.14 81.3853 108.473 81.3853 108.861C81.3853 109.249 81.3576 109.693 81.3576 110.192C81.3298 110.69 81.3298 111.189 81.3298 111.688C81.3298 112.16 81.3576 112.52 81.413 112.825C81.4684 113.102 81.5239 113.352 81.607 113.518C81.6902 113.684 81.7734 113.795 81.8565 113.878C81.9397 113.961 82.0228 113.989 82.106 114.017C82.1892 114.045 82.2446 114.045 82.3 114.072C82.3555 114.072 82.3832 114.1 82.4109 114.128C82.4386 114.183 82.4109 114.266 82.3555 114.349C82.3 114.433 82.1892 114.516 82.0783 114.571C81.9397 114.627 81.8011 114.654 81.6348 114.654C81.4684 114.654 81.2744 114.599 81.0804 114.488C80.914 114.405 80.8032 114.294 80.72 114.128C80.6369 113.989 80.5814 113.851 80.5537 113.684C80.526 113.518 80.4982 113.352 80.4982 113.185C80.3596 113.435 80.1933 113.657 79.9993 113.851C79.9161 113.934 79.833 114.017 79.7221 114.072C79.6112 114.155 79.5281 114.211 79.3895 114.266C79.2786 114.322 79.14 114.377 79.0014 114.405C78.8628 114.433 78.7242 114.46 78.5579 114.433C78.3915 114.433 78.2529 114.349 78.1143 114.239C77.9757 114.128 77.8649 113.961 77.7817 113.767C77.6985 113.573 77.6154 113.379 77.5877 113.158C77.5322 112.936 77.5322 112.714 77.5322 112.465C77.5599 112.243 77.5877 112.021 77.6708 111.799C77.754 111.578 77.8649 111.411 78.0035 111.273C78.1143 111.162 78.2252 111.079 78.3361 111.023C78.447 110.968 78.5856 110.94 78.6965 110.912C78.8073 110.885 78.9459 110.885 79.0568 110.912C79.1677 110.912 79.2786 110.94 79.3895 110.968C79.6667 111.079 79.9161 111.217 80.1656 111.383ZM78.7242 112.243C78.6687 112.381 78.641 112.548 78.6133 112.714C78.5856 112.88 78.5856 113.019 78.6133 113.158C78.6133 113.296 78.641 113.407 78.6687 113.518C78.6965 113.601 78.7519 113.656 78.7796 113.656C78.8628 113.684 78.9459 113.656 79.0568 113.601C79.14 113.546 79.2786 113.407 79.4449 113.213C79.5281 113.13 79.5835 112.991 79.6667 112.853C79.7498 112.714 79.8053 112.575 79.8607 112.437C79.9161 112.298 79.9439 112.187 79.9716 112.076C79.9716 111.966 79.9716 111.91 79.9161 111.882C79.8607 111.855 79.7775 111.855 79.6667 111.827C79.5558 111.799 79.4449 111.799 79.334 111.827C79.2231 111.855 79.0845 111.882 78.9737 111.938C78.8628 111.966 78.7796 112.076 78.7242 112.243Z" fill="#008C45"/>
<path d="M82.8547 111.078C82.9378 110.911 83.0764 110.773 83.215 110.634C83.3536 110.523 83.5199 110.412 83.6863 110.329C83.8526 110.246 84.0466 110.191 84.2129 110.163C84.407 110.135 84.601 110.108 84.7673 110.135C84.9614 110.135 85.1 110.218 85.2386 110.329C85.3772 110.44 85.4603 110.579 85.5158 110.773C85.5712 110.939 85.5712 111.133 85.5435 111.355C85.5158 111.577 85.4049 111.771 85.2386 111.992C85.0723 112.242 84.8782 112.408 84.7119 112.519C84.5179 112.63 84.3515 112.713 84.2129 112.769C84.0189 112.824 83.8526 112.852 83.6585 112.824C83.6585 113.046 83.6585 113.268 83.714 113.434C83.7417 113.517 83.7694 113.573 83.7971 113.656C83.8249 113.711 83.8803 113.794 83.9357 113.822C83.9912 113.877 84.0466 113.905 84.1298 113.933C84.2129 113.961 84.2961 113.961 84.407 113.961C84.6287 113.933 84.8228 113.85 84.9614 113.739C85.1 113.628 85.2386 113.517 85.3217 113.378C85.4049 113.24 85.4881 113.129 85.5712 113.046C85.6267 112.963 85.7098 112.907 85.7653 112.907C85.8207 112.907 85.8484 112.963 85.8484 113.074C85.8484 113.184 85.8484 113.323 85.8207 113.489C85.793 113.656 85.7375 113.822 85.6267 114.016C85.5435 114.21 85.4049 114.349 85.2663 114.487C85.1 114.626 84.9059 114.709 84.6842 114.792C84.4347 114.848 84.1575 114.848 83.8249 114.737C83.5199 114.654 83.2705 114.515 83.1041 114.321C82.9378 114.099 82.7992 113.905 82.6883 113.656C82.5775 113.406 82.4943 113.129 82.4666 112.796C82.4389 112.63 82.4389 112.436 82.4666 112.242C82.4666 112.076 82.522 111.882 82.5775 111.688C82.6329 111.521 82.7161 111.3 82.8547 111.078ZM83.6863 112.131C83.7971 112.131 83.8803 112.131 83.9912 112.103C84.0743 112.076 84.1852 112.02 84.2684 111.965C84.3793 111.909 84.4624 111.798 84.5733 111.688C84.6565 111.577 84.7119 111.466 84.7673 111.355C84.7951 111.244 84.8228 111.161 84.8505 111.105C84.8782 111.022 84.8782 110.967 84.8505 110.911C84.7396 110.939 84.601 110.939 84.4901 110.995C84.3793 111.022 84.2961 111.078 84.1852 111.133C84.0743 111.189 84.0189 111.299 83.9357 111.41C83.8526 111.549 83.7971 111.66 83.7694 111.743C83.7417 111.826 83.714 111.909 83.6863 111.965C83.6863 112.02 83.6863 112.076 83.6863 112.131Z" fill="#008C45"/>
<path d="M91.3092 110.745C91.2815 110.829 91.226 110.884 91.1429 110.939C91.0597 110.995 90.9489 111.05 90.838 111.106C90.7271 111.161 90.6162 111.217 90.4776 111.3C90.3667 111.355 90.2559 111.466 90.1727 111.577C90.0341 111.771 89.9509 111.965 89.8955 112.215C89.8401 112.464 89.8123 112.714 89.8123 112.935C89.8123 113.157 89.8401 113.351 89.8955 113.517C89.9509 113.684 90.0064 113.767 90.0895 113.767C90.2004 113.767 90.2836 113.711 90.3945 113.628C90.5053 113.545 90.6162 113.434 90.6994 113.296C90.7825 113.185 90.8657 113.046 90.9211 112.908C90.9766 112.769 91.0043 112.686 91.0043 112.603C91.0043 112.547 91.0043 112.436 91.0043 112.325C91.0043 112.215 91.0043 112.076 91.0043 111.965C91.0043 111.854 91.032 111.743 91.0597 111.66C91.0874 111.577 91.1429 111.522 91.1983 111.522C91.2815 111.522 91.3369 111.494 91.4478 111.466C91.5587 111.438 91.6418 111.438 91.725 111.466C91.8082 111.494 91.8913 111.549 91.9468 111.66C92.0022 111.771 92.0299 111.937 92.0022 112.187C92.0022 112.436 92.0022 112.686 92.0299 112.88C92.0576 113.102 92.1131 113.268 92.1685 113.434C92.224 113.601 92.3071 113.711 92.3903 113.822C92.4734 113.905 92.5843 113.961 92.6675 113.989C92.8061 114.016 92.917 114.016 93.0001 113.989C93.0833 113.961 93.1664 113.905 93.2219 113.878C93.2773 113.822 93.3328 113.795 93.3882 113.739C93.4436 113.711 93.4714 113.684 93.4991 113.711C93.5545 113.739 93.5545 113.795 93.5268 113.878C93.4991 113.961 93.4436 114.072 93.3882 114.155C93.305 114.266 93.1942 114.349 93.0556 114.46C92.917 114.543 92.7506 114.626 92.5566 114.654C92.2794 114.709 92.0299 114.682 91.8359 114.598C91.6418 114.515 91.4755 114.404 91.3647 114.266C91.2261 114.127 91.1152 113.933 91.0043 113.739C90.9488 113.878 90.8657 114.016 90.7548 114.127C90.6716 114.238 90.5331 114.321 90.3945 114.404C90.2559 114.488 90.0618 114.543 89.8401 114.543C89.6183 114.543 89.4243 114.488 89.2302 114.349C89.0362 114.21 88.8699 114.016 88.759 113.767C88.6481 113.517 88.5927 113.24 88.5649 112.908C88.5649 112.575 88.6204 112.242 88.7867 111.91C88.8699 111.688 89.0085 111.494 89.1748 111.328C89.3411 111.161 89.5074 111.023 89.7015 110.939C89.8955 110.829 90.0618 110.773 90.2559 110.718C90.4499 110.662 90.6162 110.635 90.7548 110.635C90.8934 110.635 91.032 110.635 91.1152 110.662C91.2815 110.662 91.3369 110.69 91.3092 110.745Z" fill="#008C45"/>
<path d="M93.4992 111.272C93.5269 111.217 93.5823 111.161 93.6655 111.106C93.7487 111.05 93.8041 110.995 93.8873 110.967C93.9704 110.94 94.0536 110.884 94.109 110.884C94.1922 110.856 94.2476 110.856 94.3031 110.856C94.3308 110.856 94.3308 110.884 94.3585 110.94C94.3862 110.995 94.3862 111.05 94.4139 111.134C94.4417 111.217 94.4417 111.3 94.4417 111.411C94.4417 111.522 94.4694 111.633 94.4694 111.716C94.4694 111.965 94.4971 112.242 94.4694 112.575C94.5525 112.409 94.6357 112.242 94.7189 112.104C94.802 111.965 94.8852 111.827 94.9961 111.688C95.1069 111.549 95.2178 111.439 95.3287 111.328C95.4396 111.245 95.5504 111.161 95.689 111.106C95.8276 111.05 95.9385 111.023 96.0771 111.05C96.2157 111.05 96.3266 111.106 96.4652 111.189C96.5761 111.272 96.687 111.411 96.7978 111.577C96.8533 111.688 96.9087 111.854 96.9364 112.021C96.9642 112.187 96.9919 112.381 97.0196 112.575C97.0196 112.769 97.0473 112.963 97.075 113.157C97.1028 113.351 97.1305 113.545 97.1582 113.712C97.1859 113.878 97.2691 114.017 97.3245 114.127C97.4077 114.238 97.4908 114.321 97.6294 114.349C97.7403 114.377 97.8512 114.377 97.9621 114.349C98.073 114.321 98.1838 114.294 98.267 114.238C98.3502 114.183 98.461 114.155 98.5165 114.127C98.5719 114.1 98.6274 114.1 98.6828 114.1C98.7105 114.127 98.6828 114.183 98.6551 114.294C98.5996 114.405 98.5165 114.515 98.3779 114.654C98.267 114.765 98.1007 114.876 97.9344 114.959C97.7403 115.042 97.5463 115.07 97.2968 115.042C96.8256 114.987 96.4929 114.737 96.2989 114.321C96.0771 113.906 95.9662 113.351 95.9385 112.686C95.9385 112.436 95.9108 112.27 95.8554 112.132C95.7999 112.021 95.7445 111.938 95.6613 111.938C95.5782 111.938 95.495 111.965 95.4118 112.076C95.3287 112.159 95.2178 112.298 95.1069 112.464C94.9683 112.658 94.8852 112.852 94.8297 113.046C94.7743 113.24 94.7189 113.407 94.6911 113.601C94.6634 113.767 94.6634 113.906 94.6357 114.044C94.6357 114.183 94.608 114.266 94.5803 114.321C94.5525 114.377 94.4971 114.432 94.3862 114.46C94.2753 114.488 94.1922 114.488 94.0536 114.488C93.9427 114.488 93.8318 114.488 93.7209 114.46C93.6101 114.432 93.5269 114.405 93.4992 114.377C93.4715 114.349 93.4437 114.266 93.4437 114.1C93.416 113.961 93.416 113.767 93.416 113.545C93.416 113.324 93.416 113.102 93.416 112.852C93.416 112.603 93.416 112.381 93.4437 112.159C93.4437 111.938 93.4715 111.743 93.4992 111.577C93.4437 111.439 93.4715 111.328 93.4992 111.272Z" fill="#008C45"/>
<path d="M100.512 111.383C100.54 110.968 100.568 110.58 100.595 110.219C100.623 109.914 100.623 109.582 100.651 109.277C100.651 108.972 100.651 108.722 100.651 108.556C100.651 108.39 100.679 108.251 100.762 108.14C100.845 108.002 100.956 107.891 101.067 107.808C101.178 107.724 101.288 107.641 101.399 107.586C101.51 107.53 101.593 107.503 101.649 107.503C101.704 107.503 101.732 107.641 101.732 107.891C101.732 108.14 101.732 108.473 101.732 108.861C101.732 109.249 101.704 109.693 101.704 110.192C101.677 110.69 101.677 111.189 101.704 111.688C101.704 112.16 101.732 112.52 101.787 112.825C101.843 113.102 101.898 113.352 101.981 113.518C102.065 113.684 102.148 113.795 102.231 113.878C102.314 113.961 102.397 113.989 102.48 114.017C102.564 114.045 102.619 114.045 102.674 114.072C102.73 114.072 102.758 114.1 102.785 114.128C102.813 114.183 102.785 114.266 102.73 114.349C102.674 114.433 102.564 114.516 102.453 114.571C102.314 114.627 102.175 114.654 102.009 114.654C101.843 114.654 101.649 114.599 101.455 114.488C101.288 114.405 101.178 114.294 101.094 114.128C101.011 113.989 100.956 113.851 100.928 113.684C100.9 113.518 100.873 113.352 100.873 113.185C100.734 113.435 100.568 113.657 100.374 113.851C100.291 113.934 100.207 114.017 100.096 114.072C99.9856 114.155 99.8747 114.211 99.7638 114.266C99.653 114.322 99.5144 114.377 99.3758 114.405C99.2372 114.433 99.0986 114.46 98.9323 114.433C98.7659 114.433 98.6273 114.349 98.4887 114.239C98.3501 114.128 98.2393 113.961 98.1561 113.767C98.0729 113.573 97.9898 113.379 97.9621 113.158C97.9343 112.936 97.9066 112.714 97.9343 112.465C97.9621 112.243 97.9898 112.021 98.0729 111.799C98.1561 111.578 98.267 111.411 98.4056 111.273C98.5165 111.162 98.6273 111.079 98.7382 111.023C98.8491 110.968 98.9877 110.94 99.0986 110.912C99.2095 110.885 99.348 110.885 99.4589 110.912C99.5698 110.912 99.7084 110.94 99.7916 110.968C100.013 111.079 100.263 111.217 100.512 111.383ZM99.0708 112.243C99.0154 112.381 98.9877 112.548 98.96 112.714C98.9323 112.88 98.9323 113.019 98.96 113.158C98.96 113.296 98.9877 113.407 99.0154 113.518C99.0431 113.601 99.0709 113.656 99.1263 113.656C99.2095 113.684 99.2926 113.656 99.4035 113.601C99.4867 113.546 99.6252 113.407 99.7916 113.213C99.8747 113.13 99.9579 112.991 100.013 112.853C100.096 112.714 100.152 112.575 100.207 112.437C100.263 112.298 100.291 112.187 100.291 112.076C100.291 111.966 100.291 111.91 100.235 111.882C100.18 111.855 100.096 111.855 99.9856 111.827C99.8747 111.799 99.7638 111.799 99.653 111.827C99.5421 111.855 99.4035 111.882 99.2926 111.938C99.2095 111.966 99.1263 112.076 99.0708 112.243Z" fill="#008C45"/>
<path d="M107.858 110.69C108.135 110.856 108.357 111.078 108.524 111.328C108.69 111.577 108.773 111.854 108.828 112.132C108.884 112.409 108.856 112.686 108.801 112.963C108.745 113.24 108.634 113.49 108.496 113.712C108.357 113.933 108.163 114.127 107.941 114.266C107.72 114.405 107.47 114.488 107.165 114.488C106.805 114.488 106.5 114.405 106.251 114.238C106.001 114.072 105.807 113.85 105.696 113.601C105.558 113.351 105.474 113.074 105.474 112.769C105.447 112.464 105.474 112.187 105.585 111.91C105.668 111.633 105.807 111.411 106.001 111.244C106.195 111.05 106.445 110.967 106.749 110.94C107.027 110.912 107.221 110.884 107.359 110.856C107.47 110.829 107.581 110.773 107.637 110.746C107.692 110.718 107.747 110.69 107.747 110.662C107.747 110.635 107.775 110.662 107.858 110.69ZM106.749 111.494C106.722 111.522 106.694 111.633 106.666 111.771C106.639 111.91 106.639 112.076 106.611 112.27C106.611 112.464 106.611 112.658 106.611 112.88C106.611 113.102 106.639 113.296 106.694 113.462C106.722 113.628 106.777 113.767 106.833 113.906C106.888 114.016 106.971 114.072 107.054 114.044C107.138 114.044 107.221 113.961 107.304 113.878C107.387 113.767 107.47 113.656 107.526 113.49C107.581 113.323 107.637 113.157 107.692 112.991C107.72 112.797 107.747 112.63 107.775 112.464C107.775 112.298 107.775 112.132 107.747 111.993C107.72 111.854 107.664 111.743 107.581 111.66C107.415 111.494 107.248 111.383 107.138 111.383C106.999 111.328 106.888 111.383 106.749 111.494Z" fill="#008C45"/>
<path d="M110.325 111.078C110.325 111.133 110.325 111.244 110.297 111.41C110.297 111.549 110.297 111.715 110.297 111.909C110.297 112.103 110.297 112.298 110.325 112.492C110.325 112.686 110.353 112.88 110.381 113.046C110.408 113.212 110.464 113.351 110.519 113.462C110.575 113.573 110.658 113.628 110.769 113.6C110.852 113.6 110.935 113.545 110.99 113.462C111.074 113.379 111.157 113.24 111.212 113.101C111.295 112.963 111.351 112.796 111.406 112.63C111.462 112.464 111.517 112.298 111.573 112.159C111.628 112.02 111.656 111.882 111.683 111.771C111.711 111.66 111.711 111.605 111.711 111.605C111.711 111.521 111.767 111.466 111.877 111.41C111.988 111.355 112.099 111.327 112.238 111.3C112.376 111.3 112.515 111.3 112.626 111.355C112.737 111.41 112.82 111.494 112.848 111.632C112.848 111.715 112.875 111.854 112.848 112.02C112.848 112.187 112.848 112.381 112.82 112.575C112.82 112.769 112.82 112.991 112.82 113.212C112.82 113.434 112.848 113.628 112.903 113.794C112.959 113.961 113.014 114.099 113.125 114.21C113.208 114.321 113.347 114.377 113.513 114.377C113.679 114.377 113.79 114.349 113.846 114.293C113.929 114.238 113.984 114.182 114.012 114.127C114.067 114.072 114.095 114.016 114.151 113.988C114.178 113.961 114.261 113.961 114.345 113.988C114.372 113.988 114.372 114.044 114.372 114.099C114.372 114.155 114.345 114.238 114.317 114.321C114.289 114.404 114.234 114.487 114.151 114.571C114.067 114.654 113.984 114.737 113.873 114.82C113.762 114.875 113.624 114.931 113.458 114.959C113.291 114.986 113.097 114.986 112.875 114.959C112.709 114.931 112.57 114.903 112.46 114.82C112.349 114.765 112.238 114.681 112.182 114.626C112.099 114.543 112.044 114.46 111.988 114.377C111.933 114.293 111.905 114.182 111.877 114.099C111.822 113.878 111.794 113.656 111.822 113.379C111.739 113.628 111.628 113.85 111.489 114.016C111.379 114.182 111.24 114.321 111.046 114.432C110.88 114.543 110.658 114.598 110.408 114.543C110.159 114.515 109.937 114.432 109.771 114.293C109.604 114.155 109.466 114.016 109.355 113.822C109.244 113.628 109.189 113.434 109.133 113.212C109.078 112.991 109.05 112.796 109.022 112.575C108.995 112.408 108.995 112.214 108.995 112.048C108.995 111.882 108.995 111.715 109.022 111.577C109.022 111.438 109.05 111.3 109.078 111.189C109.106 111.078 109.133 111.022 109.161 110.995C109.189 110.967 109.272 110.939 109.383 110.884C109.494 110.856 109.632 110.828 109.743 110.828C109.882 110.828 109.993 110.856 110.076 110.884C110.297 110.856 110.353 110.939 110.325 111.078Z" fill="#008C45"/>
<path d="M114.455 107.973C114.483 107.863 114.539 107.807 114.649 107.779C114.76 107.752 114.871 107.779 115.01 107.863C115.148 107.918 115.259 108.029 115.37 108.14C115.481 108.251 115.537 108.389 115.537 108.528C115.537 108.666 115.564 108.805 115.564 108.971C115.564 109.11 115.564 109.249 115.592 109.359C115.592 109.498 115.62 109.637 115.62 109.775C115.841 109.748 116.008 109.748 116.174 109.748C116.313 109.748 116.451 109.775 116.562 109.803C116.673 109.831 116.728 109.886 116.728 109.969C116.728 110.052 116.673 110.136 116.562 110.191C116.451 110.247 116.34 110.302 116.202 110.357C116.035 110.413 115.869 110.441 115.647 110.496C115.647 110.912 115.675 111.328 115.675 111.716C115.675 112.048 115.675 112.409 115.675 112.797C115.675 113.157 115.647 113.49 115.647 113.767C115.62 114.044 115.564 114.238 115.509 114.377C115.453 114.515 115.37 114.599 115.287 114.626C115.204 114.654 115.121 114.682 115.038 114.654C114.954 114.626 114.871 114.599 114.788 114.571C114.76 114.571 114.705 114.488 114.677 114.377C114.649 114.266 114.622 114.1 114.594 113.906C114.566 113.711 114.566 113.517 114.539 113.268C114.511 113.046 114.511 112.797 114.511 112.547C114.483 111.965 114.483 111.328 114.483 110.635C114.317 110.662 114.151 110.69 114.012 110.69C113.901 110.69 113.762 110.662 113.679 110.635C113.568 110.607 113.513 110.524 113.485 110.413C113.458 110.33 113.513 110.247 113.596 110.191C113.679 110.136 113.79 110.052 113.929 110.025C114.067 109.969 114.234 109.914 114.428 109.886V109.748C114.428 109.72 114.428 109.664 114.428 109.609C114.428 109.554 114.428 109.526 114.428 109.498C114.428 109.249 114.428 109.055 114.428 108.888C114.428 108.722 114.428 108.611 114.428 108.5C114.428 108.389 114.428 108.306 114.428 108.251C114.428 108.112 114.455 108.057 114.455 107.973Z" fill="#008C45"/>
<path d="M63.2845 28.8612C61.8985 28.9998 60.5402 29.1939 59.2097 29.5265C57.8791 29.8592 56.5763 30.275 55.3289 30.8294C52.8618 31.9104 50.5611 33.4073 48.6484 35.2368C46.7358 37.0663 45.1557 39.2007 44.0192 41.5569C43.4648 42.7212 43.0213 43.9408 42.6886 45.1882C42.356 46.4356 42.1897 47.7108 42.1065 48.9859C41.9402 51.5361 42.3006 54.114 43.1322 56.498C43.9638 58.8819 45.2389 61.0994 46.9021 63.0121C48.5653 64.9248 50.5334 66.5325 52.751 67.7522C54.9686 68.9719 57.3802 69.8035 59.875 70.1638C60.5125 70.247 61.1224 70.3302 61.7599 70.3856C61.9262 70.3856 62.0648 70.4133 62.2312 70.4133H62.7024L63.1736 70.441C63.2014 70.441 63.2845 70.441 63.2291 70.441H63.3122L63.5063 70.4133C64.6151 70.3024 65.807 69.9975 66.8327 69.4986C68.9394 68.5838 70.4362 66.9206 71.1015 64.7585C71.4342 63.6774 71.5728 62.4854 71.6005 61.2658C71.5728 60.6282 71.5728 60.0184 71.4896 59.3808L71.3787 58.4383L71.2124 57.4959C71.1292 56.8583 70.9352 56.2208 70.7966 55.5832L70.6857 55.112C70.6303 54.9456 70.6026 54.807 70.5471 54.6407L70.2699 53.6982C70.1036 53.0607 69.8541 52.4231 69.6324 51.8133C69.5215 51.5084 69.4106 51.1757 69.2997 50.8708L68.9117 49.9283C68.4127 48.6809 67.8306 47.4336 67.2762 46.2139L65.4467 42.5271C64.8091 41.2797 64.227 40.0046 63.6172 38.7572L62.7578 36.8446C62.4806 36.207 62.2034 35.5417 61.9262 34.9042C60.8729 32.2985 59.9304 29.6374 59.3206 26.8654C59.0157 25.4794 58.7939 24.0934 58.7385 22.6797C58.7107 21.266 58.8216 19.8523 59.2097 18.5217C59.0434 19.9077 59.0988 21.2937 59.3483 22.6243C59.5701 23.9548 59.9581 25.2854 60.4294 26.5605C61.3441 29.1384 62.5361 31.6055 63.7835 34.0449C65.0586 36.4842 66.4169 38.8681 67.8306 41.2243C68.5236 42.3885 69.2443 43.6359 69.9373 44.8556C70.6026 46.103 71.2956 47.3504 71.8777 48.6532C73.0973 51.2312 74.1507 53.92 74.816 56.8029L75.0655 57.8839C75.1209 58.2443 75.1763 58.6324 75.2318 58.9927C75.3704 59.7135 75.3704 60.4896 75.4535 61.2658C75.4813 62.8181 75.3427 64.3981 74.8991 65.9781C74.4556 67.5582 73.6518 69.1105 72.543 70.3856C71.9886 71.0509 71.351 71.5776 70.6857 72.1042C69.9927 72.5755 69.2997 73.019 68.5513 73.3794C67.8029 73.7397 67.0544 74.0169 66.2783 74.2109C65.5021 74.4327 64.7259 74.5713 63.8944 74.6822L63.5617 74.7099H63.3677C63.2291 74.7099 63.2291 74.7099 63.1736 74.7099H62.5915H62.0094C61.8154 74.7099 61.6213 74.6822 61.455 74.6822C60.7066 74.6267 59.9581 74.5436 59.2097 74.4327C56.2159 73.9615 53.3331 72.9636 50.6997 71.4944C48.0663 69.9975 45.7101 68.0294 43.7974 65.7009C41.8848 63.3725 40.4156 60.6559 39.5563 57.7453C39.1128 56.3039 38.8356 54.807 38.697 53.3102C38.5861 51.8133 38.5861 50.3164 38.7801 48.8195C39.1128 45.8535 40.083 42.9707 41.5521 40.3927C43.0213 37.8148 44.9894 35.5972 47.2624 33.7954C51.8916 30.0809 57.7405 28.4177 63.2845 28.8612Z" fill="#83B863"/>
<path d="M63.2844 75.1809C49.2027 75.1809 37.7544 64.2038 37.7544 50.6765C37.7544 37.1769 49.2027 26.1721 63.2844 26.1721C77.3661 26.1721 88.8144 37.1492 88.8144 50.6765C88.8421 64.2038 77.3661 75.1809 63.2844 75.1809ZM63.2844 32.8249C52.8617 32.8249 44.3517 40.8359 44.3517 50.7042C44.3517 60.5725 52.834 68.5835 63.2844 68.5835C73.7071 68.5835 82.2171 60.5725 82.2171 50.7042C82.2171 40.8359 73.7348 32.8249 63.2844 32.8249Z" fill="#83B863"/>
<path d="M59.459 17.7178C59.459 17.7178 62.9517 5.29926 74.6218 1.88972C88.3708 -2.12966 93.1941 6.29718 90.9765 9.34636C82.5774 20.9055 70.6024 1.47392 59.459 17.7178Z" fill="#83B863"/>
<path d="M59.2374 18.3001C59.2374 18.3001 60.8451 9.81779 52.7232 7.6002C45.1834 5.54893 42.1897 11.3978 42.0788 11.8691C41.9679 12.3403 39.6394 19.3811 50.0067 15.14C59.1542 11.3701 59.2374 18.3001 59.2374 18.3001Z" fill="#83B863"/>
<path d="M55.3564 80.2814C56.9365 80.0319 58.5442 79.8933 60.1243 79.7824C61.7043 79.6992 63.312 79.6438 64.8921 79.6438C66.4721 79.6438 68.0799 79.6992 69.6599 79.7824C71.2399 79.8933 72.8477 80.0042 74.4277 80.2814C72.8477 80.5308 71.2399 80.6694 69.6599 80.7803C68.0799 80.8635 66.4721 80.9189 64.8921 80.9189C63.312 80.9189 61.7043 80.8635 60.1243 80.7803C58.5442 80.6694 56.9642 80.5308 55.3564 80.2814Z" fill="#83B863"/>
<path d="M7.78928 88.7636C9.78511 88.9576 11.4206 89.7338 12.668 91.0643C13.9708 92.4503 14.6084 94.2798 14.6084 96.5251C14.6084 98.5764 14.0263 100.267 12.8897 101.598C11.6701 103.012 9.95143 103.788 7.78928 103.899C7.65068 103.899 7.5398 103.926 7.48436 103.926H7.40121H7.23489H7.15173C7.06857 103.926 6.98541 103.926 6.84681 103.899C4.65694 103.76 2.93831 102.984 1.71863 101.598C0.582117 100.295 0 98.6041 0 96.5251C0 94.2798 0.637557 92.478 1.94039 91.0643C3.18779 89.7338 4.79554 88.9576 6.81909 88.7636C7.04085 88.7358 7.17945 88.7358 7.31805 88.7358C7.42893 88.7358 7.59524 88.7358 7.78928 88.7636ZM7.31805 100.766C8.26052 100.766 9.0644 100.35 9.75739 99.4911C10.4504 98.6318 10.8107 97.5785 10.8107 96.3311C10.8107 95.0837 10.4504 94.0303 9.75739 93.171C9.0644 92.3394 8.26052 91.8959 7.31805 91.8959C6.37557 91.8959 5.54397 92.3117 4.8787 93.171C4.1857 94.0303 3.82534 95.0837 3.82534 96.3311C3.82534 97.5785 4.1857 98.6318 4.8787 99.4911C5.54397 100.35 6.37557 100.766 7.31805 100.766Z" fill="#E49248"/>
<path d="M19.903 98.6316V101.764C19.903 102.263 19.7367 102.706 19.4041 103.067C19.0714 103.427 18.6279 103.621 18.1289 103.621H18.1012C17.6023 103.621 17.1587 103.427 16.8261 103.039C16.4935 102.679 16.3271 102.263 16.3271 101.736V90.9255C16.3271 90.4265 16.4935 89.983 16.8261 89.6226C17.1865 89.2346 17.63 89.0405 18.1289 89.0405H21.8157C22.0097 89.0405 22.2038 89.0682 22.4532 89.096L22.5641 89.1237C23.6452 89.29 24.5599 89.8444 25.2807 90.7314C26.0014 91.6185 26.3895 92.6441 26.3895 93.8361C26.3895 94.8063 26.1123 95.7487 25.5579 96.6635C24.8094 97.9386 23.6729 98.6039 22.2038 98.6039L19.903 98.6316ZM19.9307 95.6933H21.2336C21.6771 95.6933 22.0652 95.4993 22.3978 95.1389C22.7304 94.7508 22.8968 94.2796 22.8968 93.7529C22.8968 93.1985 22.7304 92.7273 22.3978 92.3392C22.0929 91.9788 21.7048 91.7848 21.2336 91.7848H19.9307V95.6933Z" fill="#E49248"/>
<path d="M36.0912 90.7592C36.0912 90.2603 36.2576 89.8167 36.6179 89.4287C36.9783 89.0683 37.3941 88.8743 37.9208 88.8743H37.9485C38.4751 88.8743 38.8909 89.0683 39.2513 89.4287C39.6117 89.789 39.778 90.2325 39.778 90.7592V97.3843C39.778 99.1029 39.1959 100.572 38.0594 101.792C36.9228 103.011 35.5368 103.621 33.9014 103.621H33.7905C32.1273 103.621 30.6859 102.984 29.5216 101.736C28.3574 100.489 27.7476 98.9643 27.7476 97.2179V90.7592C27.7476 90.2603 27.9139 89.8167 28.2742 89.4287C28.6346 89.0683 29.0504 88.8743 29.5771 88.8743H29.6048C30.1037 88.8743 30.5473 89.0683 30.9076 89.4287C31.268 89.789 31.4343 90.2325 31.4343 90.7592V97.6615C31.4343 98.3822 31.6561 98.992 32.1273 99.491C32.5985 99.9899 33.1529 100.239 33.7905 100.239H33.8459C34.4835 100.239 35.0102 99.9899 35.4814 99.491C35.9249 99.0197 36.1467 98.4099 36.1467 97.7169V90.7592H36.0912Z" fill="#E49248"/>
<path d="M46.9023 94.8063C48.1497 95.2776 49.0367 95.8874 49.6188 96.5804C50.2009 97.3011 50.5058 98.1881 50.5058 99.2415C50.5058 100.517 50.0901 101.57 49.2307 102.402C48.2328 103.399 46.7637 103.898 44.8787 103.898C44.158 103.898 43.271 103.732 42.1622 103.399C41.7741 103.261 41.4692 103.039 41.2751 102.651C41.0811 102.263 41.0257 101.875 41.1088 101.487V101.459C41.2197 101.016 41.4692 100.683 41.8572 100.461C42.2453 100.239 42.6334 100.184 43.0769 100.323C43.9085 100.6 44.5738 100.738 45.045 100.738C45.6272 100.738 46.0707 100.627 46.3756 100.406C46.6805 100.184 46.8191 99.8791 46.8191 99.491C46.8191 99.1583 46.6805 98.8534 46.431 98.6317C46.1261 98.3545 45.5717 98.0773 44.7956 97.8001C42.2453 96.8299 40.9702 95.3607 40.9702 93.3649C40.9702 92.0343 41.4692 90.9533 42.4394 90.1217C43.4096 89.2901 44.6847 88.8743 46.2647 88.8743C46.8468 88.8743 47.5953 89.0129 48.5377 89.2623C48.9535 89.3732 49.2862 89.6227 49.4802 89.9831C49.6743 90.3434 49.7297 90.7315 49.6188 91.1473V91.175C49.5079 91.5631 49.2862 91.8957 48.9258 92.0898C48.5655 92.3115 48.1774 92.367 47.7616 92.2561C47.1795 92.0898 46.6805 92.0066 46.237 92.0066C45.7103 92.0066 45.2945 92.1175 44.9896 92.367C44.7401 92.561 44.6292 92.8105 44.6292 93.0877C44.6292 93.4203 44.7956 93.7252 45.1282 93.947C45.4331 94.1688 46.0152 94.4737 46.9023 94.8063Z" fill="#E49248"/>
<path d="M64.5039 100.573C64.9197 100.573 65.2523 100.711 65.5295 101.016C65.8067 101.293 65.9453 101.654 65.9453 102.042V102.07C65.9453 102.485 65.8067 102.818 65.5295 103.095C65.2523 103.4 64.9197 103.539 64.5039 103.539H58.7936C58.1838 103.539 57.6848 103.317 57.269 102.873C56.8532 102.43 56.6592 101.931 56.6592 101.321V91.3143C56.6592 90.7044 56.8532 90.1778 57.269 89.762C57.6848 89.3184 58.2115 89.0967 58.7936 89.0967H64.199C64.6702 89.0967 65.0583 89.2907 65.3355 89.6788C65.6127 90.0669 65.6959 90.455 65.6127 90.9262V90.9539C65.5573 91.2866 65.3632 91.5915 65.1137 91.8132C64.8643 92.035 64.5593 92.1459 64.199 92.1459H60.3459V93.7813H63.9772C64.393 93.7813 64.7257 93.9199 65.0029 94.2249C65.2801 94.5021 65.4187 94.8624 65.4187 95.2505V95.2782C65.4187 95.6663 65.2801 96.0266 65.0029 96.3316C64.7257 96.6088 64.393 96.7751 63.9772 96.7751H60.3459V100.573H64.5039Z" fill="#008C45"/>
<path d="M71.2124 101.737C71.2124 102.236 71.046 102.679 70.6857 103.067C70.353 103.428 69.9095 103.622 69.4106 103.622H69.3828C68.8839 103.622 68.4404 103.428 68.1077 103.067C67.7474 102.679 67.5811 102.264 67.5811 101.737V91.0093C67.5811 90.5104 67.7474 90.0669 68.1077 89.6788C68.4404 89.3184 68.8839 89.1244 69.3828 89.1244H70.2976C70.9352 89.1244 71.4341 89.4016 71.7945 89.956L76.9226 97.9116V90.9816C76.9226 90.4827 77.089 90.0392 77.4216 89.6788C77.782 89.2907 78.1978 89.0967 78.7244 89.0967H78.7522C79.2511 89.0967 79.6946 89.2907 80.0273 89.6511C80.3876 90.0392 80.554 90.4827 80.554 90.9816V100.739C80.554 101.515 80.2768 102.18 79.7501 102.763C79.2234 103.317 78.5858 103.594 77.8374 103.594H77.782C76.7563 103.594 76.0079 103.151 75.4812 102.236L71.2124 94.8347V101.737Z" fill="#008C45"/>
<path d="M92.9447 95.3613C93.3882 95.3613 93.7485 95.5276 94.0257 95.8325C94.3307 96.1374 94.4692 96.5255 94.4692 96.9413V101.182C94.4692 101.765 94.3029 102.264 93.9703 102.707C93.6099 103.151 93.1664 103.455 92.6397 103.566C92.3903 103.622 92.1408 103.677 91.919 103.705C91.1429 103.871 90.3113 103.954 89.452 103.954C87.0126 103.954 85.0999 103.261 83.7417 101.848C82.4665 100.545 81.8013 98.8263 81.8013 96.6918C81.8013 94.3079 82.5774 92.423 84.1297 91.0093C85.5989 89.6787 87.4838 89.0134 89.7846 89.0134C90.339 89.0134 90.9765 89.0411 91.6695 89.0966C92.0576 89.1243 92.3625 89.3183 92.5843 89.651C92.8061 89.9836 92.8338 90.344 92.6952 90.7043V90.7321C92.418 91.4528 91.919 91.8131 91.1429 91.8131H89.5351C88.2877 91.8131 87.2066 92.3121 86.375 93.31C85.488 94.3356 85.1277 95.5276 85.2385 96.9136C85.3217 98.0778 85.8206 99.0757 86.7077 99.9351C87.5947 100.767 88.5649 101.155 89.646 101.155H90.0895C90.3113 101.155 90.533 101.072 90.6716 100.878C90.8657 100.683 90.9488 100.434 90.9488 100.157V98.5213C90.9488 98.355 90.8934 98.2164 90.7825 98.1055C90.6993 97.9947 90.5607 97.9392 90.4499 97.9392H89.5351C89.0362 97.9392 88.7312 97.6897 88.5926 97.1908V97.1631C88.4818 96.7195 88.5649 96.3038 88.8421 95.9157C89.1193 95.5276 89.5074 95.3336 89.9786 95.3336H92.9447V95.3613Z" fill="#008C45"/>
<path d="M97.5463 89.0405C98.073 89.0405 98.4888 89.2346 98.8491 89.6226C99.2095 89.983 99.3758 90.4265 99.3758 90.9255V100.433H103.534C103.95 100.433 104.31 100.6 104.615 100.905C104.892 101.21 105.031 101.57 105.031 101.958V101.986C105.031 102.401 104.892 102.762 104.615 103.039C104.338 103.344 103.977 103.51 103.534 103.51H97.4354C96.9642 103.51 96.5484 103.344 96.188 102.984C95.8554 102.651 95.7168 102.235 95.7168 101.736V90.9255C95.7168 90.3988 95.8831 89.983 96.2435 89.6226C96.6038 89.2346 97.0196 89.0405 97.5463 89.0405Z" fill="#008C45"/>
<path d="M109.688 101.625C109.688 102.152 109.521 102.568 109.161 102.928C108.801 103.316 108.385 103.51 107.858 103.51H107.83C107.304 103.51 106.888 103.316 106.528 102.928C106.167 102.568 106.001 102.124 106.001 101.625V90.9255C106.001 90.3988 106.167 89.983 106.528 89.6226C106.888 89.2346 107.304 89.0405 107.83 89.0405H107.858C108.385 89.0405 108.801 89.2346 109.161 89.6226C109.521 89.983 109.688 90.4265 109.688 90.9255V101.625Z" fill="#008C45"/>
<path d="M116.728 94.8063C117.976 95.2776 118.863 95.8874 119.445 96.5804C120.027 97.3011 120.332 98.1881 120.332 99.2415C120.332 100.517 119.916 101.57 119.057 102.402C118.059 103.399 116.59 103.898 114.705 103.898C113.984 103.898 113.097 103.732 111.988 103.399C111.6 103.261 111.295 103.039 111.101 102.651C110.907 102.263 110.852 101.875 110.935 101.487V101.459C111.046 101.016 111.295 100.683 111.656 100.461C112.044 100.239 112.459 100.184 112.875 100.323C113.707 100.6 114.372 100.738 114.843 100.738C115.425 100.738 115.869 100.627 116.174 100.406C116.479 100.184 116.617 99.8791 116.617 99.491C116.617 99.1583 116.479 98.8534 116.229 98.6317C115.924 98.3545 115.37 98.0773 114.594 97.8001C112.044 96.8299 110.769 95.3607 110.769 93.3649C110.769 92.0343 111.268 90.9533 112.238 90.1217C113.208 89.2901 114.483 88.8743 116.063 88.8743C116.645 88.8743 117.394 89.0129 118.336 89.2623C118.752 89.3732 119.085 89.6227 119.279 89.9831C119.473 90.3434 119.528 90.7315 119.417 91.1473V91.175C119.306 91.5631 119.085 91.8957 118.724 92.0898C118.364 92.3115 117.976 92.367 117.56 92.2561C116.978 92.0898 116.479 92.0066 116.035 92.0066C115.509 92.0066 115.093 92.1175 114.788 92.367C114.538 92.561 114.428 92.8105 114.428 93.0877C114.428 93.4203 114.594 93.7252 114.927 93.947C115.231 94.1688 115.841 94.4737 116.728 94.8063Z" fill="#008C45"/>
<path d="M125.349 93.2817H129.313V90.9255C129.313 90.3988 129.48 89.9553 129.84 89.5949C130.2 89.2346 130.616 89.0405 131.143 89.0405H131.171C131.669 89.0405 132.113 89.2346 132.473 89.6226C132.834 89.983 133 90.4265 133 90.9255V101.625C133 102.152 132.834 102.568 132.473 102.956C132.113 103.344 131.697 103.538 131.171 103.538H131.143C130.616 103.538 130.2 103.344 129.84 102.984C129.48 102.623 129.313 102.18 129.313 101.653V96.4972H125.349V101.653C125.349 102.18 125.183 102.596 124.823 102.984C124.462 103.372 124.047 103.566 123.52 103.566H123.492C122.965 103.566 122.55 103.372 122.189 102.984C121.829 102.623 121.663 102.18 121.663 101.653V90.9255C121.663 90.3988 121.829 89.983 122.189 89.6226C122.55 89.2346 122.965 89.0405 123.492 89.0405H123.52C124.047 89.0405 124.462 89.2346 124.823 89.6226C125.183 89.983 125.349 90.4265 125.349 90.9255V93.2817Z" fill="#008C45"/>
</svg>
