<svg width="27" height="40" viewBox="0 0 27 40" fill="none" xmlns="http://www.w3.org/2000/svg">
<path d="M12.7638 14.006C12.7638 14.006 12.7037 14.006 12.5684 14.0211C12.4481 14.0361 12.2527 14.0511 12.0121 14.0812C11.531 14.1413 10.8244 14.2766 9.96747 14.5322C9.11052 14.8028 8.11827 15.2238 7.08091 15.8853C6.05859 16.5468 5.0062 17.4639 4.13422 18.6516C4.01395 18.8019 3.92375 18.9522 3.81851 19.1026C3.71327 19.2529 3.62306 19.4183 3.51783 19.5837C3.42762 19.7491 3.33742 19.9144 3.24721 20.0948C3.17204 20.2752 3.0668 20.4406 2.99163 20.621C2.67591 21.3427 2.43537 22.1094 2.30006 22.9363C2.26999 23.1468 2.23993 23.3422 2.20986 23.5527C2.19482 23.6579 2.19482 23.7632 2.17979 23.8684C2.17979 23.9736 2.16475 24.0789 2.16475 24.1841C2.14972 24.3946 2.16475 24.6051 2.14972 24.8156V24.8607V24.8757C2.14972 24.8757 2.14972 24.9058 2.14972 24.8757V24.9659L2.16475 25.1463C2.16475 25.2666 2.17979 25.3869 2.17979 25.4921C2.20986 25.7026 2.22489 25.898 2.25496 26.1085C2.26999 26.2137 2.28503 26.319 2.30006 26.4242C2.3151 26.5294 2.34516 26.6347 2.37523 26.7399C2.39027 26.8452 2.42033 26.9504 2.4504 27.0556L2.54061 27.3714C2.61578 27.5818 2.66088 27.7923 2.75109 28.0028C2.90143 28.4237 3.09687 28.8297 3.30735 29.2206C3.51783 29.6114 3.75837 30.0023 4.02899 30.3782C4.57021 31.1149 5.20165 31.7914 5.93832 32.3777C7.39663 33.5353 9.17066 34.3322 11.0499 34.6178C11.516 34.693 11.9971 34.7381 12.4631 34.7531H12.6435H12.7337C12.7488 34.7531 12.6736 34.7531 12.7187 34.7531H12.7337H12.7638C12.854 34.7531 12.9593 34.7381 13.0645 34.723C13.275 34.693 13.4855 34.6479 13.6959 34.5877C14.5378 34.3622 15.3046 33.9413 15.8308 33.3549C16.1014 33.0693 16.3269 32.7385 16.4772 32.3627L16.5374 32.2274L16.5825 32.077C16.6126 31.9868 16.6577 31.8816 16.6877 31.7914L16.7629 31.4907L16.793 31.3404L16.808 31.175C16.9283 30.3331 16.8832 29.416 16.7328 28.529C16.6877 28.3035 16.6577 28.078 16.6125 27.8675C16.5524 27.642 16.5073 27.4315 16.4472 27.206C16.4021 26.9805 16.3119 26.77 16.2517 26.5595C16.1916 26.349 16.1315 26.1235 16.0413 25.913C15.8909 25.4921 15.7556 25.0561 15.5752 24.6502C15.485 24.4397 15.4098 24.2443 15.3196 24.0338C15.2444 23.8233 15.1392 23.6279 15.049 23.4324C14.3424 21.8388 13.5306 20.3655 12.8691 18.9222C12.2076 17.4939 11.6663 16.1409 11.2604 14.9231C10.8545 13.7053 10.6139 12.5928 10.4937 11.6757C10.3734 10.7586 10.4335 10.022 10.5087 9.54088C10.5237 9.42061 10.5538 9.31537 10.5688 9.22517C10.5989 9.13496 10.6139 9.05979 10.629 8.99965C10.659 8.87938 10.6741 8.81924 10.6741 8.81924C10.6741 8.81924 10.6741 8.87938 10.659 9.01469C10.659 9.07482 10.644 9.15 10.644 9.2402C10.644 9.33041 10.644 9.43564 10.644 9.55592C10.644 10.037 10.7041 10.7436 10.9296 11.6156C11.1401 12.4876 11.516 13.5099 12.0422 14.6375C12.5533 15.78 13.2148 17.0279 13.9665 18.3659C14.7183 19.704 15.6353 21.1172 16.4923 22.7408C16.5975 22.9513 16.7178 23.1468 16.808 23.3572C16.9132 23.5677 17.0034 23.7782 17.1087 23.9887C17.3192 24.4096 17.4845 24.8607 17.68 25.3117C18.0408 26.2137 18.3565 27.1759 18.567 28.1982C18.7775 29.2206 18.8977 30.303 18.7624 31.4606L18.7324 31.6711L18.6873 31.8816L18.5971 32.3176C18.552 32.4679 18.5068 32.6032 18.4617 32.7536L18.3866 32.9641L18.2964 33.1745C18.0709 33.7458 17.7401 34.272 17.3192 34.7381C16.9132 35.2041 16.4171 35.6101 15.8909 35.9107C15.3647 36.2265 14.7934 36.452 14.2221 36.6173C13.9365 36.6925 13.6358 36.7677 13.3351 36.8128C13.1848 36.8429 13.0344 36.8579 12.8691 36.8729H12.7939H12.7638H12.6886H12.5834H12.3729C11.8167 36.8579 11.2454 36.8128 10.6891 36.7226C8.44902 36.3768 6.31417 35.4146 4.60028 33.9864C2.88639 32.5581 1.60849 30.6789 0.962024 28.6493C0.87182 28.3937 0.811683 28.1381 0.736512 27.8825C0.706444 27.7472 0.676376 27.6269 0.646308 27.4916C0.61624 27.3714 0.586171 27.236 0.571137 27.1007C0.556103 26.9654 0.526035 26.8452 0.511001 26.7099C0.495966 26.5745 0.480932 26.4543 0.465898 26.319C0.43583 26.0634 0.420796 25.7928 0.405762 25.5372C0.405762 25.4019 0.405762 25.2966 0.405762 25.1764V24.996V24.9058C0.405762 24.8607 0.405762 24.8757 0.405762 24.8607V24.8306V24.7855C0.420796 24.5299 0.420796 24.2894 0.450864 24.0338C0.465898 23.9135 0.480932 23.7932 0.495966 23.673C0.511001 23.5527 0.541069 23.4324 0.556103 23.3121C0.586171 23.0716 0.646308 22.831 0.706444 22.6055C1.15747 20.7263 2.05952 19.1176 3.14197 17.8848C4.22443 16.637 5.47226 15.765 6.62989 15.1787C7.80255 14.5923 8.91508 14.2917 9.81712 14.1263C10.0426 14.0962 10.2681 14.0511 10.4636 14.0361C10.6741 14.0211 10.8545 13.991 11.0349 13.991C11.2153 13.9759 11.3807 13.976 11.531 13.9609C11.6814 13.9609 11.8167 13.9609 11.9369 13.9609C12.1775 13.9609 12.3729 13.9759 12.4932 13.991C12.6886 14.006 12.7638 14.006 12.7638 14.006Z" fill="#79B643"/>
<path d="M12.764 37.1435C5.728 37.1435 0 31.656 0 24.9057C0 18.1554 5.728 12.6679 12.764 12.6679C19.7999 12.6679 25.5279 18.1554 25.5279 24.9057C25.5279 31.656 19.7999 37.1435 12.764 37.1435ZM12.764 15.9754C7.54713 15.9754 3.30751 19.9745 3.30751 24.9057C3.30751 29.8369 7.54713 33.836 12.764 33.836C17.9808 33.836 22.2204 29.8369 22.2204 24.9057C22.2204 19.9745 17.9658 15.9754 12.764 15.9754Z" fill="#79B643"/>
<path d="M10.8545 8.44337C10.8545 8.44337 12.5985 2.24931 18.4317 0.535422C25.3023 -1.47915 27.7077 2.7304 26.5952 4.26388C22.4007 10.022 16.4021 0.324944 10.8545 8.44337Z" fill="#79B643"/>
<path d="M10.7345 8.74405C10.7345 8.74405 11.5464 4.50443 7.47214 3.40694C3.7136 2.38462 2.21019 5.30124 2.15005 5.52675C2.08992 5.75226 0.93229 9.28528 6.10403 7.15043C10.6894 5.27117 10.7345 8.74405 10.7345 8.74405Z" fill="#79B643"/>
<path d="M8.79492 39.6843C8.79492 39.6843 8.94526 39.6542 9.20084 39.6241C9.45642 39.5941 9.83228 39.549 10.2833 39.5039C11.1703 39.4287 12.373 39.3686 13.5607 39.3686C14.7484 39.3686 15.9361 39.4137 16.8382 39.5039C17.2892 39.5339 17.65 39.579 17.9206 39.6241C18.1762 39.6542 18.3266 39.6843 18.3266 39.6843C18.3266 39.6843 18.1762 39.7143 17.9206 39.7444C17.6651 39.7745 17.2892 39.8196 16.8382 39.8647C15.9512 39.9399 14.7484 40 13.5607 40C12.373 40 11.1853 39.9549 10.2833 39.8647C9.83228 39.8346 9.47146 39.7895 9.20084 39.7444C8.94526 39.7143 8.79492 39.6843 8.79492 39.6843Z" fill="#79B643"/>
</svg>
