<svg width="27" height="40" viewBox="0 0 27 40" fill="none" xmlns="http://www.w3.org/2000/svg">
<path d="M12.7638 14.0061C12.7638 14.0061 12.7037 14.0061 12.5684 14.0211C12.4481 14.0362 12.2527 14.0512 12.0121 14.0813C11.531 14.1414 10.8244 14.2767 9.96747 14.5323C9.11052 14.8029 8.11827 15.2239 7.08091 15.8854C6.05859 16.5469 5.0062 17.464 4.13422 18.6517C4.01395 18.802 3.92375 18.9523 3.81851 19.1027C3.71327 19.253 3.62306 19.4184 3.51783 19.5838C3.42762 19.7491 3.33742 19.9145 3.24721 20.0949C3.17204 20.2753 3.0668 20.4407 2.99163 20.6211C2.67591 21.3428 2.43537 22.1095 2.30006 22.9364C2.26999 23.1469 2.23993 23.3423 2.20986 23.5528C2.19482 23.658 2.19482 23.7633 2.17979 23.8685C2.17979 23.9737 2.16475 24.079 2.16475 24.1842C2.14972 24.3947 2.16475 24.6052 2.14972 24.8156V24.8607V24.8758C2.14972 24.8758 2.14972 24.9058 2.14972 24.8758V24.966L2.16475 25.1464C2.16475 25.2667 2.17979 25.3869 2.17979 25.4922C2.20986 25.7027 2.22489 25.8981 2.25496 26.1086C2.26999 26.2138 2.28503 26.3191 2.30006 26.4243C2.3151 26.5295 2.34516 26.6348 2.37523 26.74C2.39027 26.8453 2.42033 26.9505 2.4504 27.0557L2.54061 27.3714C2.61578 27.5819 2.66088 27.7924 2.75109 28.0029C2.90143 28.4238 3.09687 28.8298 3.30735 29.2206C3.51783 29.6115 3.75837 30.0024 4.02899 30.3783C4.57021 31.1149 5.20165 31.7915 5.93832 32.3778C7.39663 33.5354 9.17066 34.3322 11.0499 34.6179C11.516 34.6931 11.9971 34.7382 12.4631 34.7532H12.6435H12.7337C12.7488 34.7532 12.6736 34.7532 12.7187 34.7532H12.7337H12.7638C12.854 34.7532 12.9593 34.7382 13.0645 34.7231C13.275 34.6931 13.4855 34.648 13.6959 34.5878C14.5378 34.3623 15.3046 33.9414 15.8308 33.355C16.1014 33.0694 16.3269 32.7386 16.4772 32.3628L16.5374 32.2275L16.5825 32.0771C16.6126 31.9869 16.6577 31.8817 16.6877 31.7915L16.7629 31.4908L16.793 31.3405L16.808 31.1751C16.9283 30.3332 16.8832 29.4161 16.7328 28.5291C16.6877 28.3036 16.6577 28.0781 16.6125 27.8676C16.5524 27.6421 16.5073 27.4316 16.4472 27.2061C16.4021 26.9806 16.3119 26.7701 16.2517 26.5596C16.1916 26.3491 16.1315 26.1236 16.0413 25.9131C15.8909 25.4922 15.7556 25.0562 15.5752 24.6503C15.485 24.4398 15.4098 24.2443 15.3196 24.0339C15.2444 23.8234 15.1392 23.628 15.049 23.4325C14.3424 21.8389 13.5306 20.3655 12.8691 18.9223C12.2076 17.494 11.6663 16.141 11.2604 14.9232C10.8545 13.7054 10.6139 12.5929 10.4937 11.6758C10.3734 10.7587 10.4335 10.0221 10.5087 9.54097C10.5237 9.4207 10.5538 9.31546 10.5688 9.22526C10.5989 9.13505 10.6139 9.05988 10.629 8.99975C10.659 8.87947 10.6741 8.81934 10.6741 8.81934C10.6741 8.81934 10.6741 8.87947 10.659 9.01478C10.659 9.07492 10.644 9.15009 10.644 9.24029C10.644 9.3305 10.644 9.43574 10.644 9.55601C10.644 10.0371 10.7041 10.7437 10.9296 11.6157C11.1401 12.4877 11.516 13.51 12.0422 14.6375C12.5533 15.7801 13.2148 17.028 13.9665 18.366C14.7183 19.704 15.6353 21.1173 16.4923 22.7409C16.5975 22.9514 16.7178 23.1469 16.808 23.3573C16.9132 23.5678 17.0034 23.7783 17.1087 23.9888C17.3192 24.4097 17.4845 24.8607 17.68 25.3118C18.0408 26.2138 18.3565 27.176 18.567 28.1983C18.7775 29.2206 18.8977 30.3031 18.7624 31.4607L18.7324 31.6712L18.6873 31.8817L18.5971 32.3177C18.552 32.468 18.5068 32.6033 18.4617 32.7537L18.3866 32.9641L18.2964 33.1746C18.0709 33.7459 17.7401 34.2721 17.3192 34.7382C16.9132 35.2042 16.4171 35.6101 15.8909 35.9108C15.3647 36.2265 14.7934 36.4521 14.2221 36.6174C13.9365 36.6926 13.6358 36.7678 13.3351 36.8129C13.1848 36.8429 13.0344 36.858 12.8691 36.873H12.7939H12.7638H12.6886H12.5834H12.3729C11.8167 36.858 11.2454 36.8129 10.6891 36.7227C8.44902 36.3769 6.31417 35.4147 4.60028 33.9865C2.88639 32.5582 1.60849 30.679 0.962024 28.6493C0.87182 28.3938 0.811683 28.1382 0.736512 27.8826C0.706444 27.7473 0.676376 27.627 0.646308 27.4917C0.61624 27.3714 0.586171 27.2361 0.571137 27.1008C0.556103 26.9655 0.526035 26.8453 0.511001 26.7099C0.495966 26.5746 0.480932 26.4544 0.465898 26.3191C0.43583 26.0635 0.420796 25.7929 0.405762 25.5373C0.405762 25.402 0.405762 25.2967 0.405762 25.1765V24.9961V24.9059C0.405762 24.8608 0.405762 24.8758 0.405762 24.8607V24.8307V24.7856C0.420796 24.53 0.420796 24.2895 0.450864 24.0339C0.465898 23.9136 0.480932 23.7933 0.495966 23.6731C0.511001 23.5528 0.541069 23.4325 0.556103 23.3122C0.586171 23.0717 0.646308 22.8311 0.706444 22.6056C1.15747 20.7264 2.05952 19.1177 3.14197 17.8849C4.22443 16.6371 5.47226 15.7651 6.62989 15.1788C7.80255 14.5924 8.91508 14.2918 9.81712 14.1264C10.0426 14.0963 10.2681 14.0512 10.4636 14.0362C10.6741 14.0211 10.8545 13.9911 11.0349 13.9911C11.2153 13.976 11.3807 13.976 11.531 13.961C11.6814 13.961 11.8167 13.961 11.9369 13.961C12.1775 13.961 12.3729 13.976 12.4932 13.9911C12.6886 14.0061 12.7638 14.0061 12.7638 14.0061Z" fill="white"/>
<path d="M12.764 37.1435C5.728 37.1435 0 31.6561 0 24.9057C0 18.1554 5.728 12.668 12.764 12.668C19.7999 12.668 25.5279 18.1554 25.5279 24.9057C25.5279 31.6561 19.7999 37.1435 12.764 37.1435ZM12.764 15.9755C7.54713 15.9755 3.30751 19.9746 3.30751 24.9057C3.30751 29.8369 7.54713 33.836 12.764 33.836C17.9808 33.836 22.2204 29.8369 22.2204 24.9057C22.2204 19.9746 17.9658 15.9755 12.764 15.9755Z" fill="white"/>
<path d="M10.8545 8.44337C10.8545 8.44337 12.5985 2.24931 18.4317 0.535422C25.3023 -1.47915 27.7077 2.7304 26.5952 4.26388C22.4007 10.022 16.4021 0.324944 10.8545 8.44337Z" fill="white"/>
<path d="M10.7345 8.74411C10.7345 8.74411 11.5464 4.50449 7.47214 3.407C3.7136 2.38468 2.21019 5.3013 2.15005 5.52681C2.08992 5.75232 0.93229 9.28534 6.10403 7.1505C10.6894 5.27123 10.7345 8.74411 10.7345 8.74411Z" fill="white"/>
<path d="M8.79492 39.6844C8.79492 39.6844 8.94526 39.6543 9.20084 39.6242C9.45642 39.5942 9.83228 39.5491 10.2833 39.504C11.1703 39.4288 12.373 39.3687 13.5607 39.3687C14.7484 39.3687 15.9361 39.4138 16.8382 39.504C17.2892 39.534 17.65 39.5791 17.9206 39.6242C18.1762 39.6543 18.3266 39.6844 18.3266 39.6844C18.3266 39.6844 18.1762 39.7144 17.9206 39.7445C17.6651 39.7746 17.2892 39.8197 16.8382 39.8648C15.9512 39.94 14.7484 40.0001 13.5607 40.0001C12.373 40.0001 11.1853 39.955 10.2833 39.8648C9.83228 39.8347 9.47146 39.7896 9.20084 39.7445C8.94526 39.7144 8.79492 39.6844 8.79492 39.6844Z" fill="white"/>
</svg>
