<svg width="210" height="61" viewBox="0 0 210 61" fill="none" xmlns="http://www.w3.org/2000/svg">
<g clip-path="url(#clip0)">
<path d="M56.2775 53.4384C56.0884 53.6073 55.8572 53.7341 55.6051 53.7974C55.3529 53.8608 55.1217 53.9031 54.8695 53.8819C54.6384 53.8608 54.4282 53.7974 54.2601 53.6707C54.092 53.544 53.9659 53.375 53.9239 53.1638C53.8819 52.9314 53.8819 52.6991 53.9239 52.4245C53.9659 52.1499 54.029 51.8965 54.134 51.643C54.2391 51.3895 54.3652 51.1572 54.5333 50.946C54.7014 50.7348 54.8906 50.5447 55.1007 50.4179C55.2898 50.2912 55.458 50.1645 55.6261 50.0377C55.7942 49.911 55.9833 49.7843 56.1724 49.6576C56.1724 49.383 56.1725 49.0873 56.1935 48.7282C56.2145 48.3691 56.1725 47.9467 56.1094 47.482C55.9413 47.8411 55.7522 48.2213 55.563 48.6226C55.3529 49.0239 55.1217 49.4041 54.8906 49.7843C54.6594 50.1434 54.3862 50.4813 54.113 50.7559C53.8398 51.0305 53.5246 51.2417 53.1884 51.3684C52.9152 51.474 52.684 51.4952 52.4949 51.4318C52.3058 51.3684 52.1376 51.2417 52.0326 51.0727C51.9065 50.8826 51.8224 50.6714 51.7594 50.3968C51.6963 50.1222 51.6753 49.8477 51.6543 49.5519C51.6543 49.2562 51.6753 48.9605 51.6963 48.6859C51.7384 48.3902 51.7804 48.1368 51.8434 47.9256C51.9485 47.5242 52.1166 47.1229 52.3058 46.7005C52.4949 46.2781 52.7471 45.8767 52.9992 45.5177C53.2724 45.1375 53.5456 44.8206 53.8608 44.5461C54.1761 44.2715 54.4913 44.1025 54.8275 44.018C55.0587 43.9758 55.2688 43.9758 55.458 44.018C55.6471 44.0603 55.8152 44.1447 55.9623 44.2715C56.1094 44.3771 56.2355 44.5249 56.3406 44.6517C56.4456 44.7995 56.5297 44.9474 56.5717 45.0741C56.6138 45.2008 56.6558 45.3276 56.6558 45.4332C56.6558 45.5388 56.6348 45.581 56.5717 45.6022C56.4667 45.6233 56.3406 45.5599 56.2355 45.4121C56.1094 45.2642 55.9413 45.0741 55.7101 44.8629C55.6261 44.7995 55.521 44.7784 55.3949 44.7784C55.2688 44.7995 55.1427 44.8418 54.9956 44.9051C54.8485 44.9896 54.7014 45.0952 54.5753 45.222C54.4282 45.3487 54.3021 45.5177 54.1971 45.6866C53.9869 46.0035 53.7768 46.3203 53.6087 46.616C53.4405 46.9117 53.2934 47.2285 53.1884 47.5454C53.0623 47.8622 52.9992 48.179 52.9362 48.517C52.8942 48.8549 52.8731 49.214 52.8731 49.6153C52.8731 49.9744 52.9152 50.1856 53.0413 50.249C53.1463 50.3335 53.2934 50.3123 53.4616 50.2278C53.6297 50.1434 53.8188 49.9744 54.0079 49.7632C54.1971 49.5519 54.4072 49.2985 54.5753 49.0661C54.7435 48.8127 54.9116 48.5803 55.0377 48.3691C55.1637 48.1579 55.2688 47.9889 55.3109 47.9044C55.3949 47.7143 55.5 47.5031 55.6051 47.2708C55.7101 47.0596 55.8362 46.8695 55.9833 46.7005C56.1304 46.5526 56.2775 46.447 56.4667 46.4048C56.6558 46.3625 56.8449 46.4259 57.0761 46.5738C57.1812 46.6582 57.2652 46.8061 57.3283 47.0596C57.3703 47.2919 57.4123 47.5454 57.4333 47.8411C57.4543 48.1368 57.4543 48.3902 57.4543 48.6648C57.4543 48.9183 57.4333 49.1295 57.4333 49.2562C57.5384 49.2351 57.6435 49.1929 57.7906 49.1295C57.9167 49.0661 58.0638 49.0239 58.2109 48.9817C58.358 48.9394 58.5051 48.9183 58.6522 48.8972C58.7993 48.876 58.9464 48.8972 59.0725 48.9605C59.0725 49.045 58.9884 49.1084 58.8833 49.214C58.7573 49.3196 58.6102 49.4041 58.442 49.5097C58.2739 49.6153 58.0848 49.7209 57.8957 49.8054C57.7065 49.911 57.5384 49.9955 57.4123 50.0589C57.4123 50.1856 57.4123 50.3968 57.3913 50.6714C57.3703 50.946 57.3283 51.2628 57.2442 51.6008C57.1601 51.9387 57.0551 52.2767 56.908 52.6146C56.7398 52.9314 56.5507 53.206 56.2775 53.4384ZM56.2145 50.6503C56.0253 50.7559 55.8362 50.8615 55.6681 51.0094C55.521 51.1361 55.3529 51.2839 55.1848 51.4529C55.0166 51.6219 54.8695 51.8331 54.7435 52.0654C54.6804 52.1922 54.6804 52.3189 54.7435 52.4456C54.8065 52.5724 54.9116 52.678 55.0587 52.7413C55.2058 52.8258 55.3529 52.847 55.521 52.847C55.6891 52.8258 55.8362 52.7625 55.9623 52.6357C56.0884 52.5301 56.1935 52.3612 56.2355 52.1499C56.2775 51.9387 56.2985 51.7064 56.2985 51.4952C56.2775 51.2206 56.2565 50.946 56.2145 50.6503Z" fill="#008C45"/>
<path d="M58.1476 47.2074C58.0636 47.1652 57.9795 47.1229 57.8954 47.1229C57.8114 47.1018 57.7273 47.1018 57.6643 47.1018C57.5802 47.1018 57.5382 47.0807 57.4962 47.0807C57.4541 47.0595 57.4121 47.0173 57.4121 46.9539C57.4121 46.9117 57.4752 46.8694 57.6012 46.7638C57.7273 46.6794 57.8744 46.616 58.0636 46.5526C58.2527 46.5104 58.4418 46.4893 58.652 46.4893C58.8621 46.5104 59.0513 46.5949 59.2404 46.7638C59.3875 46.9117 59.5136 47.0595 59.6187 47.1863C59.7237 47.313 59.7868 47.4397 59.8498 47.5242C59.9339 47.651 59.9759 47.7566 60.0179 47.8411C60.2281 47.6298 60.4382 47.4609 60.6694 47.3341C60.8585 47.2074 61.0687 47.1229 61.3208 47.0384C61.552 46.9539 61.8042 46.9539 62.0353 47.0173C62.0984 47.0384 62.1194 47.0807 62.1194 47.1652C62.1194 47.2285 62.0774 47.313 62.0353 47.3975C61.9723 47.482 61.9092 47.5665 61.8042 47.6298C61.6991 47.7143 61.594 47.7566 61.4469 47.7777C61.1947 47.8411 60.9846 47.9467 60.8165 48.1156C60.6694 48.2846 60.5433 48.4747 60.4592 48.7071C60.3752 48.9183 60.3331 49.1717 60.3121 49.4252C60.2911 49.6787 60.2701 49.911 60.2701 50.1433C60.2701 50.6291 60.2071 51.0093 60.06 51.2417C59.9129 51.474 59.7237 51.6008 59.4926 51.6219C59.2194 51.643 59.0092 51.5163 58.8621 51.2417C58.736 50.9671 58.652 50.5024 58.652 49.8688C58.673 49.045 58.631 48.4325 58.5469 47.9889C58.4839 47.5876 58.3578 47.313 58.1476 47.2074Z" fill="#008C45"/>
<path d="M64.8306 46.8906C65.1668 47.1018 65.44 47.3553 65.6291 47.6721C65.8183 47.9678 65.9443 48.3057 65.9864 48.6226C66.0284 48.9605 66.0284 49.2985 65.9654 49.6153C65.8813 49.9532 65.7762 50.249 65.5871 50.5024C65.419 50.777 65.1878 50.9882 64.9146 51.1572C64.6414 51.3262 64.3472 51.4107 63.99 51.4318C63.5487 51.4318 63.1914 51.3473 62.8972 51.1361C62.603 50.946 62.3718 50.6714 62.2247 50.3757C62.0776 50.08 61.9726 49.742 61.9515 49.3618C61.9305 49.0028 61.9726 48.6437 62.0776 48.3269C62.1827 48.01 62.3508 47.7355 62.582 47.5031C62.8131 47.2708 63.1284 47.1652 63.4856 47.1229C63.8219 47.1018 64.053 47.0596 64.2001 47.0173C64.3472 46.9751 64.4523 46.9328 64.5153 46.8906C64.5784 46.8483 64.6414 46.8272 64.6624 46.8061C64.6835 46.8272 64.7465 46.8483 64.8306 46.8906ZM63.5066 47.8833C63.4646 47.9255 63.4226 48.0312 63.4016 48.2001C63.3805 48.3691 63.3595 48.5803 63.3385 48.8127C63.3175 49.045 63.3175 49.2774 63.3385 49.5519C63.3595 49.8054 63.3805 50.0377 63.4226 50.249C63.4646 50.4602 63.5277 50.6291 63.5907 50.777C63.6748 50.9037 63.7588 50.9671 63.8639 50.9671C63.969 50.946 64.074 50.8826 64.1581 50.7559C64.2632 50.6292 64.3472 50.4813 64.4313 50.2912C64.5153 50.1011 64.5784 49.911 64.6204 49.6787C64.6624 49.4463 64.7045 49.2351 64.7045 49.0239C64.7045 48.8127 64.7045 48.6226 64.6624 48.4536C64.6204 48.2846 64.5574 48.1579 64.4733 48.0523C64.2632 47.8411 64.074 47.7143 63.9269 47.6932C63.8008 47.6721 63.6748 47.7355 63.5066 47.8833Z" fill="#008C45"/>
<path d="M66.7428 47.1863C66.9109 47.1018 67.058 47.0596 67.1841 47.0596C67.3312 47.0596 67.4573 47.0807 67.5624 47.1441C67.6675 47.1863 67.7515 47.2708 67.8146 47.3553C67.8776 47.4398 67.8986 47.5454 67.8986 47.651C67.8356 48.1368 67.8566 48.6015 67.9196 49.0028C67.9827 49.4252 68.0667 49.7843 68.1928 50.0589C68.2979 50.3546 68.424 50.5658 68.5501 50.6925C68.6762 50.8193 68.7602 50.8615 68.8022 50.777C68.8443 50.6925 68.8863 50.5236 68.9494 50.249C69.0124 49.9744 69.0965 49.6787 69.1805 49.3619C69.2646 49.045 69.3907 48.7282 69.5378 48.4114C69.6849 48.0945 69.853 47.8622 70.0841 47.6932C70.3153 47.5243 70.4834 47.4186 70.6515 47.4186C70.7987 47.3975 70.9458 47.4398 71.0508 47.5243C71.1559 47.6087 71.261 47.7355 71.345 47.8833C71.4291 48.0312 71.4921 48.2001 71.5552 48.348C71.6182 48.517 71.6813 48.7282 71.7443 48.9817C71.8074 49.2351 71.8704 49.4886 71.9334 49.7209C71.9965 49.9533 72.0595 50.1434 72.1436 50.2701C72.2066 50.4179 72.3117 50.4391 72.3958 50.3546C72.4588 50.3123 72.5219 50.2067 72.5849 50.0378C72.6269 49.8899 72.69 49.6998 72.732 49.4886C72.774 49.2774 72.8371 49.0661 72.8791 48.8549C72.9421 48.6437 73.0052 48.4325 73.0893 48.2424C73.1733 48.0523 73.2784 47.9044 73.4045 47.7988C73.5306 47.6932 73.6777 47.651 73.8458 47.651C74.0769 47.6721 74.2871 47.7355 74.4762 47.8411C74.6654 47.9467 74.8125 48.0523 74.9386 48.1579C75.0436 48.2635 75.1277 48.348 75.1487 48.4325C75.1697 48.517 75.1277 48.5381 75.0226 48.517C74.9175 48.4959 74.8125 48.4747 74.7284 48.4959C74.6233 48.4959 74.5393 48.5592 74.4342 48.6226C74.3501 48.7071 74.2661 48.8338 74.182 48.9817C74.098 49.1506 74.0349 49.3619 73.9719 49.6153C73.9088 49.8899 73.8458 50.1222 73.8038 50.3335C73.7407 50.5447 73.6777 50.7559 73.5936 50.9038C73.5096 51.0727 73.4045 51.1995 73.2574 51.3051C73.1313 51.4107 72.9422 51.474 72.732 51.4952C72.5219 51.5163 72.3327 51.474 72.1646 51.3684C71.9965 51.2628 71.8284 51.115 71.7023 50.946C71.5552 50.777 71.4501 50.5658 71.366 50.3757C71.282 50.1645 71.2189 49.9744 71.1769 49.7843C71.1349 49.6153 71.1139 49.4886 71.0718 49.4252C71.0508 49.3407 71.0088 49.3196 70.9878 49.3407C70.9668 49.3619 70.9247 49.4252 70.9037 49.5308C70.8617 49.6364 70.8197 49.7843 70.7356 49.9533C70.6726 50.1222 70.6305 50.2912 70.5675 50.4813C70.5044 50.6503 70.4204 50.8193 70.3363 50.9671C70.2313 51.115 70.1052 51.2417 69.9581 51.3684C69.811 51.4952 69.6008 51.5796 69.3486 51.6219C69.0965 51.6641 68.8653 51.6641 68.6551 51.6219C68.445 51.5585 68.2348 51.474 68.0457 51.3473C67.8566 51.2206 67.7095 51.0938 67.5624 50.946C67.4153 50.7981 67.3102 50.6292 67.2051 50.4813C67.1421 50.3757 67.079 50.249 66.995 50.0589C66.9109 49.8688 66.8479 49.6787 66.7848 49.4463C66.7218 49.214 66.6587 48.9817 66.6167 48.7282C66.5747 48.4747 66.5327 48.2635 66.5327 48.0312C66.5116 47.82 66.5327 47.6299 66.5747 47.4609C66.5537 47.3553 66.6377 47.2497 66.7428 47.1863Z" fill="#008C45"/>
<path d="M74.9805 49.6364C75.0436 49.5519 75.1066 49.4886 75.1487 49.4041C75.1907 49.3196 75.2537 49.2562 75.2958 49.1506C75.3378 49.045 75.3798 48.9394 75.4219 48.8127C75.4639 48.6859 75.5059 48.5381 75.5269 48.348C75.569 48.1579 75.569 47.9889 75.59 47.8199C75.59 47.651 75.611 47.5242 75.611 47.3975C75.632 47.2708 75.653 47.1863 75.6951 47.1018C75.7371 47.0173 75.8001 46.9751 75.8842 46.9539C75.9682 46.9328 76.0943 46.9117 76.2624 46.8695C76.4306 46.8272 76.5777 46.8061 76.7248 46.8061C76.8719 46.8061 76.998 46.8483 77.082 46.9328C77.1661 47.0173 77.2081 47.1863 77.1661 47.4398C77.1451 47.5454 77.124 47.6721 77.103 47.8622C77.082 48.0523 77.061 48.2635 77.061 48.4958C77.04 48.7282 77.04 48.9605 77.04 49.214C77.04 49.4674 77.061 49.6787 77.082 49.8899C77.103 50.1011 77.1661 50.2701 77.2291 50.4391C77.2922 50.5869 77.3762 50.6925 77.4813 50.7348C77.7125 50.8192 77.9016 50.8192 78.0487 50.7348C78.1958 50.6503 78.3429 50.5024 78.511 50.3123C78.5741 50.2278 78.6581 50.1645 78.7212 50.1011C78.8052 50.0377 78.8683 50.0166 78.9103 50.0377C78.9523 50.0377 78.9733 50.1011 78.9733 50.1856C78.9733 50.2912 78.9103 50.4391 78.8052 50.6714C78.5951 51.115 78.3219 51.4318 77.9857 51.5796C77.6494 51.7275 77.2712 51.7486 76.8088 51.6641C76.5567 51.6008 76.3675 51.4951 76.2204 51.3051C76.0733 51.115 75.9472 50.9249 75.8632 50.7136C75.7791 50.5024 75.7161 50.3123 75.6951 50.1433C75.653 49.9744 75.611 49.8688 75.59 49.8688C75.569 49.8476 75.5269 49.8476 75.5059 49.8476C75.4849 49.8476 75.4429 49.8688 75.4219 49.911C75.3798 49.9321 75.3588 49.9533 75.3168 49.9955C75.2748 50.0166 75.2117 50.0589 75.1487 50.0589C74.9805 50.08 74.8965 50.0589 74.8755 49.9744C74.8545 49.8899 74.8965 49.7843 74.9805 49.6364ZM76.0733 44.0602C76.1784 43.8913 76.3045 43.8068 76.4936 43.7857C76.6827 43.7645 76.8509 43.7857 77.019 43.8702C77.1871 43.9335 77.3342 44.0391 77.4603 44.1447C77.5654 44.2715 77.6074 44.3771 77.5864 44.4616C77.5443 44.5461 77.4813 44.6305 77.3972 44.6939C77.3132 44.7573 77.2291 44.8206 77.1241 44.8629C77.019 44.9051 76.9139 44.9474 76.8088 44.9474C76.7038 44.9685 76.5987 44.9685 76.5146 44.9685C76.4306 44.9685 76.3465 44.9262 76.2624 44.8629C76.1784 44.7995 76.1364 44.7361 76.0733 44.6517C76.0313 44.5672 76.0103 44.4827 76.0103 44.3771C75.9893 44.2503 76.0103 44.1659 76.0733 44.0602Z" fill="#008C45"/>
<path d="M78.6789 47.6087C78.7209 47.5454 78.7839 47.4609 78.868 47.3975C78.952 47.3342 79.0361 47.2708 79.1412 47.2285C79.2252 47.1863 79.3303 47.1441 79.4144 47.1229C79.5194 47.1018 79.5825 47.0807 79.6455 47.0807C79.6666 47.0807 79.6876 47.1229 79.7086 47.1652C79.7296 47.2285 79.7506 47.313 79.7716 47.3975C79.7926 47.5031 79.8137 47.6087 79.8137 47.7355C79.8137 47.8622 79.8347 47.9889 79.8347 48.1157C79.8557 48.4114 79.8557 48.7493 79.8557 49.1506C79.9608 48.9605 80.0658 48.7704 80.1709 48.5803C80.276 48.4325 80.3811 48.2635 80.5071 48.0945C80.6332 47.9256 80.7593 47.7777 80.8854 47.6721C81.0115 47.5665 81.1586 47.4609 81.3057 47.4186C81.4528 47.3553 81.6209 47.3342 81.768 47.3342C81.9151 47.3553 82.0832 47.3975 82.2093 47.5031C82.3564 47.6087 82.4825 47.7566 82.6086 47.9678C82.6927 48.1157 82.7347 48.2846 82.7767 48.517C82.8188 48.7282 82.8398 48.9605 82.8608 49.1929C82.8818 49.4252 82.9028 49.6576 82.9028 49.911C82.9238 50.1434 82.9659 50.3757 83.0079 50.5658C83.0499 50.777 83.134 50.946 83.218 51.0938C83.3021 51.2417 83.4282 51.3262 83.5963 51.3684C83.7224 51.4107 83.8695 51.4107 83.9956 51.3896C84.1217 51.3473 84.2478 51.3051 84.3739 51.2417C84.4789 51.1783 84.584 51.1361 84.6681 51.0938C84.7521 51.0516 84.8152 51.0516 84.8572 51.0727C84.8782 51.0938 84.8782 51.1783 84.8152 51.3262C84.7521 51.4529 84.647 51.6008 84.4999 51.7486C84.3528 51.8965 84.1637 52.0232 83.9536 52.1077C83.7224 52.2133 83.4702 52.2344 83.197 52.2133C82.6296 52.1288 82.2304 51.8542 81.9782 51.3473C81.726 50.8404 81.5789 50.1645 81.5369 49.3619C81.5369 49.0661 81.4948 48.8549 81.4318 48.7071C81.3687 48.5592 81.3057 48.4959 81.2216 48.4747C81.1376 48.4747 81.0325 48.517 80.9064 48.6226C80.8013 48.7282 80.6753 48.8972 80.5282 49.0873C80.36 49.3196 80.255 49.552 80.1919 49.7843C80.1079 50.0166 80.0658 50.2279 80.0448 50.4391C80.0238 50.6503 80.0028 50.8193 79.9818 50.9882C79.9818 51.1572 79.9608 51.2628 79.9187 51.3473C79.8767 51.4318 79.7926 51.4952 79.6876 51.5163C79.5615 51.5374 79.4354 51.5585 79.3093 51.5585C79.1622 51.5585 79.0361 51.5374 78.91 51.5163C78.7839 51.4952 78.6789 51.4529 78.6368 51.3896C78.6158 51.3684 78.5948 51.2628 78.5528 51.0727C78.5318 50.8826 78.5107 50.6714 78.5107 50.4179C78.5107 50.1645 78.5107 49.8899 78.5107 49.5731C78.5107 49.2774 78.5107 49.0028 78.5318 48.7282C78.5318 48.4536 78.5528 48.2213 78.5738 48.0312C78.6368 47.7988 78.6578 47.6721 78.6789 47.6087Z" fill="#008C45"/>
<path d="M89.3758 50.0166C89.5439 49.9533 89.67 49.911 89.7541 49.911C89.8381 49.911 89.9012 49.9533 89.9222 49.9955C89.9432 50.0378 89.9432 50.1222 89.9012 50.1856C89.8801 50.2701 89.7961 50.3335 89.712 50.3968C89.607 50.4813 89.4809 50.5658 89.3758 50.6503C89.2707 50.7348 89.1446 50.8404 89.0396 50.946C88.9135 51.0516 88.7874 51.1572 88.6403 51.2839C88.4932 51.4107 88.3461 51.5374 88.1569 51.7064C88.22 52.0655 88.241 52.4245 88.241 52.7836C88.241 53.1427 88.22 53.5017 88.178 53.8397C88.1359 54.1776 88.0309 54.4733 87.9258 54.7691C87.7997 55.0436 87.6526 55.276 87.4425 55.4661C87.1482 55.7195 86.8751 55.8674 86.5808 55.9096C86.2866 55.9519 86.0345 55.9096 85.8033 55.7618C85.5721 55.6139 85.404 55.4238 85.2779 55.1281C85.1518 54.8324 85.1098 54.5156 85.1729 54.1354C85.2359 53.7341 85.341 53.3961 85.5301 53.1004C85.7192 52.8047 85.9084 52.5513 86.1185 52.34C86.3497 52.1077 86.6019 51.8965 86.8961 51.7275C86.8961 51.643 86.8751 51.5163 86.854 51.3896C86.833 51.2839 86.812 51.1361 86.77 50.9882C86.7279 50.8193 86.6859 50.6503 86.6229 50.4179C86.5809 50.2912 86.5388 50.1645 86.4758 50.0589C86.4127 49.9321 86.3707 49.8477 86.3077 49.7632C86.2446 49.6787 86.1816 49.5731 86.1185 49.5097C85.9924 49.6364 85.8663 49.7632 85.7403 49.8688C85.6352 49.9533 85.5091 50.0378 85.404 50.1011C85.2779 50.1645 85.1519 50.2067 85.0468 50.2067C84.9207 50.2067 84.7946 50.1434 84.6475 50.0377C84.5004 49.9321 84.3743 49.7843 84.2482 49.5942C84.1431 49.4041 84.0381 49.1929 83.975 48.9394C83.912 48.6859 83.891 48.4114 83.933 48.1368C83.996 47.8622 84.0591 47.6299 84.1431 47.4398C84.2272 47.2708 84.3113 47.1229 84.4163 47.0173C84.5214 46.9117 84.6265 46.8483 84.7316 46.785C84.8366 46.7427 84.9627 46.7005 85.0678 46.6794C85.2359 46.6582 85.425 46.6794 85.6562 46.7427C85.8874 46.8272 86.0975 46.9117 86.3077 47.0384C86.5178 47.1652 86.6859 47.2708 86.833 47.3975C86.9801 47.5242 87.0432 47.6087 87.0432 47.6932C87.0432 47.7566 86.9591 47.7777 86.812 47.7566C86.6649 47.7355 86.4758 47.7143 86.2866 47.6932C86.0975 47.6721 85.8874 47.651 85.6982 47.651C85.5091 47.651 85.383 47.7143 85.299 47.8199C85.2149 47.9467 85.1729 48.0734 85.1098 48.2213C85.0678 48.3691 85.0468 48.517 85.0258 48.6648C85.0047 48.8127 85.0258 48.9394 85.0468 49.0661C85.0678 49.1929 85.1308 49.2774 85.2149 49.3407C85.2569 49.383 85.32 49.3618 85.404 49.2985C85.4881 49.2351 85.5721 49.1506 85.6772 49.0661C85.7823 48.9817 85.8874 48.876 86.0345 48.7916C86.1606 48.7071 86.3077 48.6437 86.4548 48.6437C86.6019 48.6226 86.749 48.6648 86.9171 48.7704C87.0642 48.8549 87.2323 49.045 87.4004 49.3196C87.5055 49.4675 87.6106 49.6787 87.7156 49.9533C87.8207 50.2278 87.9258 50.5447 88.0098 50.9249C88.0939 50.8615 88.22 50.7981 88.3461 50.7137L88.7243 50.4602C88.8504 50.3757 88.9765 50.2912 89.1026 50.2278C89.1867 50.1011 89.2917 50.0378 89.3758 50.0166ZM86.749 54.41C86.791 54.2833 86.833 54.1143 86.833 53.9242C86.854 53.7341 86.854 53.5229 86.854 53.3328C86.854 53.1004 86.833 52.8681 86.812 52.6146C86.6649 52.7414 86.5178 52.8892 86.3917 53.0371C86.2866 53.1638 86.2026 53.3116 86.1185 53.4806C86.0345 53.6496 86.0134 53.8397 86.0134 54.0298C86.0345 54.2199 86.0765 54.3466 86.1395 54.4311C86.2026 54.5156 86.2866 54.5578 86.3707 54.579C86.4548 54.579 86.5178 54.579 86.6019 54.5367C86.6649 54.5156 86.7279 54.4734 86.749 54.41Z" fill="#008C45"/>
<path d="M93.4525 47.3553C93.4525 47.4397 93.4315 47.5665 93.4315 47.7355C93.4315 47.9044 93.4105 48.1156 93.4105 48.348C93.4105 48.5803 93.4105 48.8127 93.4315 49.045C93.4525 49.2774 93.4735 49.5097 93.5156 49.6998C93.5576 49.8899 93.5996 50.0589 93.6837 50.1856C93.7677 50.3123 93.8518 50.3757 93.9779 50.3546C94.0619 50.3546 94.167 50.2912 94.2511 50.1856C94.3561 50.08 94.4402 49.9321 94.5243 49.7632C94.6083 49.5942 94.6924 49.4041 94.7554 49.1929C94.8395 48.9816 94.9025 48.7916 94.9446 48.6226C95.0076 48.4325 95.0496 48.2846 95.0706 48.1579C95.0917 48.0312 95.1127 47.9678 95.1127 47.9467C95.1127 47.8622 95.1967 47.7777 95.3228 47.6932C95.4489 47.6298 95.617 47.5876 95.7641 47.5665C95.9323 47.5454 96.0794 47.5665 96.2265 47.6298C96.3736 47.6932 96.4576 47.7988 96.4786 47.9467C96.4997 48.0734 96.4997 48.2213 96.4997 48.4325C96.4997 48.6437 96.4786 48.876 96.4786 49.1084C96.4786 49.3407 96.4576 49.6153 96.4786 49.8688C96.4786 50.1222 96.5207 50.3546 96.5837 50.5658C96.6468 50.777 96.7308 50.946 96.8359 51.0727C96.962 51.1994 97.1091 51.2628 97.3192 51.2628C97.5084 51.2628 97.6344 51.2206 97.7185 51.1572C97.8026 51.0938 97.8866 51.0094 97.9287 50.946C97.9917 50.8615 98.0337 50.8193 98.0758 50.777C98.1178 50.7348 98.2018 50.7348 98.3069 50.777C98.3279 50.7981 98.3489 50.8404 98.3489 50.9037C98.3489 50.9882 98.3279 51.0727 98.2859 51.1783C98.2439 51.2839 98.1808 51.3895 98.0968 51.4952C98.0127 51.6008 97.9076 51.7064 97.7605 51.7909C97.6134 51.8753 97.4453 51.9387 97.2562 51.981C97.067 52.0232 96.8359 52.0021 96.5627 51.9598C96.3736 51.9387 96.2054 51.8753 96.0583 51.812C95.9323 51.7486 95.8062 51.6641 95.7221 51.5585C95.617 51.474 95.554 51.3684 95.4909 51.2417C95.4279 51.115 95.3859 51.0094 95.3649 50.9037C95.2808 50.6503 95.2808 50.3546 95.3018 50.0377C95.1967 50.3334 95.0707 50.5869 94.9235 50.8193C94.7975 51.0094 94.6083 51.1783 94.3982 51.3262C94.188 51.474 93.9148 51.5163 93.6206 51.474C93.3054 51.4318 93.0532 51.3262 92.8641 51.1783C92.675 51.0305 92.5069 50.8404 92.3808 50.6292C92.2547 50.4179 92.1706 50.1645 92.1076 49.911C92.0445 49.6576 92.0025 49.383 91.9815 49.1295C91.9605 48.9183 91.9395 48.7071 91.9395 48.4958C91.9395 48.2846 91.9395 48.0945 91.9605 47.9044C91.9815 47.7143 92.0025 47.5665 92.0235 47.4398C92.0445 47.313 92.0866 47.2285 92.1286 47.1863C92.1706 47.144 92.2757 47.1018 92.4018 47.0596C92.5489 47.0173 92.696 46.9962 92.8431 46.9751C92.9902 46.9751 93.1373 46.9962 93.2634 47.0596C93.3895 47.0807 93.4525 47.2074 93.4525 47.3553Z" fill="#008C45"/>
<path d="M97.8234 46.5104C97.8864 46.4259 97.9705 46.4048 98.0545 46.4048C98.1386 46.4259 98.2436 46.447 98.3277 46.5104C98.4118 46.5737 98.4958 46.6371 98.5799 46.7216C98.6639 46.8061 98.706 46.8694 98.748 46.9328C98.79 46.9962 98.8321 47.1018 98.8531 47.2496C98.8741 47.3975 98.8951 47.5242 98.8951 47.6509C98.9161 47.7777 98.9161 47.8833 98.9371 47.9678C98.9582 48.0523 98.9792 48.0734 99.0212 48.0311C99.0632 47.9889 99.1053 47.8833 99.2103 47.7354C99.2944 47.5876 99.4205 47.4397 99.5886 47.2708C99.7357 47.1018 99.9248 46.975 100.135 46.8694C100.345 46.7638 100.576 46.7427 100.828 46.7849C101.018 46.8272 101.186 46.8906 101.375 46.975C101.564 47.0807 101.732 47.1863 101.879 47.3341C102.026 47.482 102.152 47.6721 102.236 47.8833C102.321 48.0945 102.363 48.348 102.342 48.6226C102.321 49.214 102.131 49.6786 101.795 50.0166C101.438 50.3546 100.976 50.5658 100.408 50.6714C100.009 50.7559 99.7357 50.7559 99.6096 50.7136C99.4625 50.6714 99.3995 50.5869 99.4415 50.4602C99.4625 50.3334 99.5676 50.2489 99.7147 50.1645C99.8618 50.1011 100.114 49.9955 100.429 49.8265C100.555 49.7631 100.702 49.6575 100.828 49.5097C100.955 49.3618 101.06 49.214 101.102 49.045C101.165 48.876 101.186 48.707 101.144 48.5169C101.123 48.348 101.039 48.179 100.87 48.0523C100.744 47.9467 100.618 47.9044 100.492 47.9255C100.366 47.9467 100.24 48.01 100.114 48.1156C99.9879 48.2212 99.8618 48.348 99.7567 48.5169C99.6306 48.6859 99.5256 48.8549 99.3995 49.0239C99.2944 49.1928 99.2103 49.4252 99.1473 49.742C99.0842 50.0588 99.0422 50.3968 99.0212 50.777C99.0002 51.1572 98.9792 51.5374 99.0002 51.9387C99.0002 52.34 99.0002 52.6991 99.0212 53.0582C99.0212 53.4172 99.0422 53.7129 99.0422 53.9875C99.0422 54.2621 99.0422 54.4522 99.0212 54.5367C99.0002 54.7057 98.9371 54.7901 98.8531 54.8324C98.769 54.8746 98.6639 54.8958 98.5379 54.8746C98.4118 54.8535 98.3067 54.8113 98.1806 54.7268C98.0545 54.6423 97.9494 54.5578 97.8654 54.4733C97.8234 54.4522 97.8023 54.3043 97.7813 54.072C97.7603 53.8185 97.7393 53.5228 97.7393 53.1426C97.7183 52.7624 97.7183 52.34 97.6973 51.8753C97.6973 51.4106 97.6973 50.9248 97.6973 50.439C97.6973 49.9532 97.6973 49.4674 97.6973 49.0027C97.6973 48.5381 97.7183 48.1156 97.7393 47.7354C97.7603 47.3552 97.7813 47.0595 97.7813 46.8061C97.7813 46.6793 97.8023 46.5315 97.8234 46.5104Z" fill="#008C45"/>
<path d="M104.864 50.5658C104.885 50.608 104.906 50.6503 104.927 50.6925C104.927 50.7348 104.948 50.777 104.948 50.8193C104.948 50.8615 104.969 50.9037 104.969 50.946C104.99 50.9882 105.011 51.0305 105.053 51.0516C105.095 51.0727 105.116 51.1783 105.074 51.3473C105.032 51.5163 104.969 51.6853 104.885 51.8965C104.801 52.1077 104.695 52.3189 104.59 52.5301C104.485 52.7413 104.38 52.9314 104.275 53.0582C104.086 53.2905 103.897 53.4595 103.729 53.6073C103.561 53.7341 103.393 53.8186 103.266 53.8397C103.14 53.8608 103.035 53.7974 102.972 53.6707C102.888 53.544 102.867 53.3328 102.867 53.0371C102.867 52.8892 102.888 52.7413 102.93 52.5512C102.972 52.3612 103.014 52.1922 103.077 52.0021C103.119 51.812 103.182 51.6219 103.224 51.4529C103.266 51.2839 103.309 51.115 103.33 50.9882C103.372 50.8826 103.456 50.777 103.603 50.6925C103.75 50.608 103.897 50.5235 104.065 50.4813C104.233 50.4391 104.401 50.4179 104.569 50.4179C104.674 50.4602 104.801 50.5024 104.864 50.5658Z" fill="#008C45"/>
<path d="M109.214 49.6364C109.277 49.5519 109.34 49.4886 109.382 49.4041C109.424 49.3196 109.487 49.2562 109.529 49.1506C109.571 49.045 109.613 48.9394 109.655 48.8127C109.697 48.6859 109.739 48.5381 109.76 48.348C109.781 48.1579 109.802 47.9889 109.823 47.8199C109.823 47.651 109.844 47.5242 109.844 47.3975C109.865 47.2708 109.886 47.1863 109.928 47.1018C109.97 47.0173 110.033 46.9751 110.117 46.9539C110.201 46.9328 110.349 46.9117 110.496 46.8695C110.664 46.8272 110.811 46.8061 110.958 46.8061C111.105 46.8061 111.231 46.8483 111.315 46.9328C111.42 47.0173 111.441 47.1863 111.399 47.4398C111.378 47.5454 111.357 47.6721 111.336 47.8622C111.315 48.0523 111.294 48.2635 111.294 48.4958C111.273 48.7282 111.273 48.9605 111.273 49.214C111.273 49.4674 111.294 49.6787 111.315 49.8899C111.336 50.1011 111.399 50.2701 111.462 50.4391C111.525 50.5869 111.609 50.6925 111.736 50.7348C111.967 50.8192 112.156 50.8192 112.303 50.7348C112.45 50.6503 112.597 50.5024 112.765 50.3123C112.828 50.2278 112.912 50.1645 112.975 50.1011C113.059 50.0377 113.101 50.0166 113.165 50.0377C113.207 50.0377 113.228 50.1011 113.228 50.1856C113.228 50.2912 113.165 50.4391 113.059 50.6714C112.849 51.115 112.576 51.4318 112.261 51.5796C111.925 51.7275 111.546 51.7486 111.084 51.6641C110.832 51.6008 110.643 51.4951 110.496 51.3051C110.349 51.115 110.222 50.9249 110.138 50.7136C110.054 50.5024 109.991 50.3123 109.949 50.1433C109.907 49.9744 109.865 49.8688 109.844 49.8688C109.802 49.8476 109.781 49.8476 109.76 49.8476C109.739 49.8476 109.697 49.8688 109.676 49.911C109.655 49.9321 109.613 49.9533 109.571 49.9955C109.529 50.0166 109.466 50.0589 109.403 50.0589C109.256 50.08 109.151 50.0589 109.13 49.9744C109.088 49.8899 109.109 49.7843 109.214 49.6364ZM110.307 44.0602C110.412 43.8913 110.538 43.8068 110.727 43.7857C110.916 43.7645 111.084 43.7857 111.252 43.8702C111.42 43.9335 111.567 44.0391 111.672 44.1447C111.778 44.2715 111.82 44.3771 111.799 44.4616C111.757 44.5461 111.693 44.6305 111.609 44.6939C111.525 44.7573 111.441 44.8206 111.336 44.8629C111.231 44.9051 111.126 44.9474 111.021 44.9474C110.895 44.9685 110.811 44.9685 110.727 44.9685C110.643 44.9685 110.559 44.9262 110.475 44.8629C110.391 44.7995 110.349 44.7361 110.285 44.6517C110.243 44.5672 110.222 44.4827 110.222 44.3771C110.222 44.2503 110.243 44.1659 110.307 44.0602Z" fill="#008C45"/>
<path d="M112.912 47.6087C112.954 47.5454 113.017 47.4609 113.101 47.3975C113.185 47.3342 113.269 47.2708 113.375 47.2285C113.459 47.1863 113.564 47.1441 113.648 47.1229C113.753 47.1018 113.816 47.0807 113.879 47.0807C113.9 47.0807 113.921 47.1229 113.942 47.1652C113.963 47.2285 113.984 47.313 114.005 47.3975C114.026 47.5031 114.026 47.6087 114.047 47.7355C114.047 47.8622 114.068 47.9889 114.068 48.1157C114.089 48.4114 114.089 48.7493 114.068 49.1506C114.173 48.9605 114.278 48.7704 114.383 48.5803C114.488 48.4325 114.593 48.2635 114.72 48.0945C114.846 47.9256 114.972 47.7777 115.119 47.6721C115.245 47.5665 115.392 47.4609 115.539 47.4186C115.686 47.3553 115.854 47.3342 116.001 47.3342C116.149 47.3553 116.296 47.3975 116.464 47.5031C116.611 47.6087 116.737 47.7566 116.842 47.9678C116.926 48.1157 116.968 48.2846 117.01 48.517C117.052 48.7282 117.073 48.9605 117.094 49.1929C117.115 49.4252 117.136 49.6576 117.136 49.911C117.157 50.1434 117.199 50.3757 117.241 50.5658C117.283 50.777 117.367 50.946 117.451 51.0938C117.536 51.2417 117.662 51.3262 117.83 51.3684C117.956 51.4107 118.103 51.4107 118.229 51.3896C118.355 51.3473 118.481 51.3051 118.607 51.2417C118.712 51.1783 118.817 51.1361 118.901 51.0938C118.986 51.0516 119.049 51.0516 119.091 51.0727C119.133 51.0938 119.112 51.1783 119.049 51.3262C118.986 51.4529 118.88 51.6008 118.733 51.7486C118.586 51.8965 118.397 52.0232 118.187 52.1077C117.956 52.2133 117.704 52.2344 117.43 52.2133C116.863 52.1288 116.464 51.8542 116.212 51.3473C115.959 50.8404 115.812 50.1645 115.77 49.3619C115.749 49.0661 115.728 48.8549 115.665 48.7071C115.602 48.5592 115.539 48.4959 115.455 48.4747C115.371 48.4747 115.266 48.517 115.14 48.6226C115.014 48.7282 114.909 48.8972 114.762 49.0873C114.614 49.3196 114.488 49.552 114.425 49.7843C114.341 50.0166 114.299 50.2279 114.278 50.4391C114.257 50.6503 114.236 50.8193 114.236 50.9882C114.236 51.1572 114.215 51.2628 114.173 51.3473C114.131 51.4318 114.047 51.4952 113.942 51.5163C113.816 51.5374 113.69 51.5585 113.564 51.5585C113.417 51.5585 113.291 51.5374 113.164 51.5163C113.038 51.4952 112.933 51.4529 112.891 51.3896C112.849 51.3684 112.849 51.2628 112.807 51.0727C112.786 50.8826 112.765 50.6714 112.765 50.4179C112.765 50.1645 112.765 49.8899 112.765 49.5731C112.765 49.2774 112.786 49.0028 112.786 48.7282C112.807 48.4536 112.807 48.2213 112.849 48.0312C112.849 47.7988 112.891 47.6721 112.912 47.6087Z" fill="#008C45"/>
<path d="M121.065 46.2358C121.108 46.2992 121.087 46.3414 121.044 46.3836C121.002 46.4048 120.96 46.447 120.876 46.4893C120.813 46.5104 120.729 46.5737 120.645 46.616C120.561 46.6582 120.477 46.7427 120.393 46.8272C120.309 46.9117 120.246 47.0384 120.183 47.1863C120.12 47.3341 120.099 47.5031 120.099 47.7354C120.099 47.9467 120.141 48.1579 120.246 48.3691C120.351 48.5803 120.477 48.7704 120.645 48.9605C120.792 49.1506 120.981 49.3407 121.171 49.5308C121.36 49.7209 121.528 49.911 121.675 50.1011C121.822 50.2912 121.948 50.4813 122.032 50.6925C122.116 50.8826 122.158 51.0938 122.116 51.305C122.074 51.5163 121.948 51.6852 121.759 51.8331C121.549 51.9809 121.318 52.0866 121.044 52.171C120.75 52.2555 120.456 52.2978 120.12 52.2978C119.784 52.2978 119.489 52.2767 119.195 52.2133C118.901 52.1499 118.649 52.0443 118.46 51.9176C118.25 51.7909 118.123 51.6008 118.06 51.3895C117.976 51.0727 117.955 50.8192 117.976 50.608C118.018 50.3968 118.081 50.2278 118.165 50.08C118.25 49.9321 118.355 49.8265 118.46 49.742C118.565 49.6575 118.67 49.5942 118.754 49.5519C118.922 49.4463 119.048 49.4463 119.09 49.5519C119.153 49.6575 119.111 49.8054 118.985 50.0166C118.922 50.1222 118.901 50.249 118.943 50.3757C118.964 50.5024 119.048 50.6291 119.153 50.7559C119.258 50.8615 119.405 50.9671 119.573 51.0516C119.742 51.1361 119.931 51.1783 120.162 51.1994C120.309 51.1994 120.435 51.1994 120.582 51.1572C120.729 51.115 120.834 51.0727 120.918 50.9882C121.002 50.9249 121.065 50.8404 121.087 50.7348C121.108 50.6291 121.065 50.5235 120.96 50.3968C120.876 50.2701 120.687 50.1011 120.456 49.911C120.225 49.7209 119.973 49.5097 119.721 49.2562C119.468 49.0239 119.258 48.7704 119.069 48.4958C118.88 48.2213 118.775 47.9678 118.775 47.6932C118.775 47.1652 118.88 46.7638 119.069 46.5104C119.258 46.2569 119.573 46.1091 119.994 46.0246C120.204 45.9823 120.372 45.9612 120.498 45.9612C120.624 45.9612 120.75 45.9823 120.813 46.0035C120.897 46.0457 120.939 46.0668 120.981 46.1091C121.002 46.1513 121.044 46.1936 121.065 46.2358Z" fill="#008C45"/>
<path d="M121.927 49.6364C121.99 49.5519 122.053 49.4886 122.095 49.4041C122.137 49.3196 122.201 49.2562 122.243 49.1506C122.285 49.045 122.327 48.9394 122.369 48.8127C122.411 48.6859 122.453 48.5381 122.474 48.348C122.516 48.1579 122.516 47.9889 122.537 47.8199C122.537 47.651 122.558 47.5242 122.558 47.3975C122.579 47.2708 122.6 47.1863 122.642 47.1018C122.684 47.0173 122.747 46.9751 122.831 46.9539C122.915 46.9328 123.041 46.9117 123.209 46.8695C123.377 46.8272 123.524 46.8061 123.672 46.8061C123.819 46.8061 123.945 46.8483 124.029 46.9328C124.113 47.0173 124.155 47.1863 124.113 47.4398C124.092 47.5454 124.071 47.6721 124.05 47.8622C124.029 48.0523 124.008 48.2635 124.008 48.4958C123.987 48.7282 123.987 48.9605 123.987 49.214C123.987 49.4674 124.008 49.6787 124.029 49.8899C124.05 50.1011 124.113 50.2701 124.176 50.4391C124.239 50.5869 124.323 50.6925 124.449 50.7348C124.68 50.8192 124.869 50.8192 124.995 50.7348C125.143 50.6503 125.29 50.5024 125.458 50.3123C125.521 50.2278 125.605 50.1645 125.668 50.1011C125.752 50.0377 125.815 50.0166 125.857 50.0377C125.899 50.0377 125.92 50.1011 125.92 50.1856C125.92 50.2912 125.857 50.4391 125.752 50.6714C125.542 51.115 125.269 51.4318 124.932 51.5796C124.596 51.7275 124.218 51.7486 123.756 51.6641C123.503 51.6008 123.314 51.4951 123.167 51.3051C123.02 51.115 122.894 50.9249 122.81 50.7136C122.726 50.5024 122.663 50.3123 122.642 50.1433C122.6 49.9744 122.558 49.8688 122.537 49.8688C122.495 49.8476 122.474 49.8476 122.453 49.8476C122.432 49.8476 122.39 49.8688 122.369 49.911C122.327 49.9321 122.306 49.9533 122.264 49.9955C122.222 50.0166 122.158 50.0589 122.095 50.0589C121.927 50.08 121.843 50.0589 121.822 49.9744C121.801 49.8899 121.843 49.7843 121.927 49.6364ZM123.02 44.0602C123.125 43.8913 123.251 43.8068 123.44 43.7857C123.63 43.7645 123.798 43.7857 123.966 43.8702C124.134 43.9335 124.281 44.0391 124.407 44.1447C124.512 44.2715 124.554 44.3771 124.533 44.4616C124.491 44.5461 124.428 44.6305 124.344 44.6939C124.26 44.7573 124.176 44.8206 124.071 44.8629C123.966 44.9051 123.861 44.9474 123.756 44.9474C123.651 44.9685 123.545 44.9685 123.461 44.9685C123.377 44.9685 123.293 44.9262 123.209 44.8629C123.125 44.7995 123.083 44.7361 123.02 44.6517C122.978 44.5672 122.957 44.4827 122.957 44.3771C122.936 44.2503 122.957 44.1659 123.02 44.0602Z" fill="#008C45"/>
<path d="M128.463 47.7355C128.505 47.2285 128.547 46.7639 128.568 46.3203C128.589 45.9401 128.61 45.5599 128.631 45.1797C128.652 44.7995 128.652 44.5249 128.631 44.3137C128.61 44.1236 128.652 43.9547 128.757 43.8068C128.862 43.6589 128.968 43.5111 129.115 43.4055C129.241 43.2999 129.388 43.2154 129.514 43.152C129.64 43.0887 129.745 43.0675 129.808 43.0675C129.871 43.0675 129.892 43.2154 129.913 43.5111C129.913 43.8068 129.913 44.2081 129.913 44.6728C129.892 45.1586 129.892 45.6867 129.871 46.2992C129.85 46.9117 129.85 47.5031 129.85 48.1157C129.85 48.686 129.892 49.1295 129.955 49.4886C130.018 49.8477 130.081 50.1222 130.186 50.3123C130.27 50.5024 130.376 50.6503 130.481 50.7348C130.586 50.8193 130.691 50.8826 130.775 50.9038C130.88 50.9249 130.964 50.946 131.027 50.946C131.09 50.946 131.132 50.9671 131.174 51.0305C131.195 51.0939 131.174 51.1783 131.09 51.284C131.006 51.3896 130.901 51.474 130.754 51.5585C130.607 51.643 130.418 51.6641 130.207 51.6641C129.997 51.6641 129.766 51.6008 129.556 51.474C129.367 51.3684 129.22 51.2206 129.115 51.0516C129.01 50.8826 128.947 50.6925 128.925 50.5236C128.883 50.3335 128.862 50.1222 128.862 49.911C128.694 50.2067 128.505 50.4813 128.274 50.7137C128.169 50.8193 128.064 50.9038 127.959 50.9882C127.833 51.0727 127.707 51.1572 127.56 51.2206C127.412 51.284 127.265 51.3473 127.097 51.3684C126.929 51.4107 126.761 51.4107 126.572 51.4107C126.383 51.3896 126.194 51.3262 126.025 51.1783C125.857 51.0305 125.731 50.8404 125.626 50.6292C125.521 50.418 125.437 50.1645 125.395 49.8899C125.353 49.6153 125.332 49.3407 125.353 49.0662C125.374 48.7916 125.416 48.5381 125.521 48.2846C125.605 48.0312 125.752 47.82 125.92 47.6299C126.046 47.5031 126.194 47.3975 126.32 47.3342C126.467 47.2708 126.614 47.2285 126.761 47.2074C126.908 47.1863 127.055 47.1863 127.202 47.2074C127.349 47.2285 127.475 47.2497 127.623 47.2919C127.854 47.3764 128.169 47.5243 128.463 47.7355ZM126.719 48.7493C126.656 48.9394 126.614 49.1295 126.593 49.3196C126.572 49.5097 126.572 49.6998 126.593 49.8688C126.593 50.0378 126.635 50.1645 126.656 50.2912C126.698 50.3968 126.74 50.4602 126.803 50.4813C126.908 50.5024 127.013 50.4813 127.139 50.418C127.265 50.3335 127.412 50.1856 127.602 49.9533C127.686 49.8477 127.791 49.6998 127.875 49.5097C127.98 49.3407 128.043 49.1718 128.106 49.0028C128.169 48.8338 128.211 48.686 128.232 48.5592C128.253 48.4325 128.232 48.348 128.169 48.3269C128.106 48.3058 128.001 48.2846 127.875 48.2635C127.749 48.2424 127.602 48.2424 127.454 48.2424C127.307 48.2635 127.16 48.3058 127.034 48.3691C126.887 48.4536 126.782 48.5803 126.719 48.7493Z" fill="#008C45"/>
<path d="M131.678 47.3553C131.783 47.1652 131.93 46.9751 132.098 46.8272C132.266 46.6794 132.477 46.5526 132.666 46.4682C132.876 46.3837 133.086 46.3203 133.317 46.2781C133.548 46.2358 133.779 46.2358 133.99 46.2358C134.221 46.2569 134.41 46.3203 134.557 46.4682C134.725 46.616 134.83 46.785 134.893 46.9962C134.956 47.2074 134.977 47.4398 134.914 47.6932C134.872 47.9467 134.746 48.2001 134.557 48.4536C134.347 48.7493 134.137 48.9394 133.906 49.0873C133.674 49.214 133.485 49.3196 133.296 49.383C133.086 49.4463 132.855 49.4675 132.645 49.4675C132.624 49.742 132.645 49.9955 132.708 50.2067C132.729 50.2912 132.75 50.3757 132.792 50.4602C132.834 50.5447 132.897 50.608 132.96 50.6714C133.023 50.7348 133.107 50.777 133.191 50.7981C133.275 50.8193 133.401 50.8404 133.527 50.8193C133.8 50.777 134.011 50.6925 134.2 50.5658C134.368 50.4179 134.515 50.2912 134.641 50.1434C134.746 49.9955 134.851 49.8477 134.935 49.742C135.019 49.6153 135.082 49.5731 135.166 49.5731C135.208 49.5731 135.25 49.6364 135.271 49.7843C135.292 49.9321 135.271 50.1011 135.229 50.2912C135.187 50.4813 135.124 50.6925 135.019 50.9249C134.914 51.1572 134.767 51.3473 134.578 51.5163C134.389 51.6853 134.158 51.7909 133.863 51.8754C133.569 51.9387 133.233 51.9387 132.834 51.8331C132.477 51.7486 132.182 51.5797 131.972 51.3262C131.762 51.0727 131.594 50.8193 131.468 50.5447C131.342 50.2279 131.237 49.8899 131.195 49.5097C131.153 49.2985 131.153 49.0873 131.195 48.8549C131.216 48.6648 131.258 48.4325 131.321 48.179C131.405 47.8833 131.531 47.6299 131.678 47.3553ZM132.687 48.6437C132.813 48.6437 132.939 48.6226 133.065 48.6015C133.17 48.5803 133.275 48.517 133.401 48.4325C133.527 48.348 133.653 48.2424 133.758 48.0945C133.863 47.9467 133.927 47.82 133.99 47.6932C134.032 47.5665 134.074 47.4609 134.074 47.3764C134.095 47.2919 134.095 47.2074 134.074 47.1229C133.927 47.1441 133.779 47.1652 133.653 47.2074C133.527 47.2497 133.422 47.2919 133.296 47.3764C133.17 47.4609 133.086 47.5665 133.002 47.7143C132.918 47.8833 132.855 48.01 132.792 48.1368C132.75 48.2424 132.708 48.348 132.708 48.4114C132.708 48.517 132.687 48.5803 132.687 48.6437Z" fill="#008C45"/>
<path d="M141.87 46.9751C141.849 47.0595 141.786 47.144 141.681 47.2074C141.576 47.2708 141.45 47.3341 141.324 47.4186C141.177 47.482 141.051 47.5665 140.904 47.651C140.756 47.7354 140.63 47.8411 140.546 47.9678C140.399 48.179 140.294 48.4536 140.231 48.7493C140.168 49.045 140.147 49.3407 140.147 49.6153C140.147 49.8899 140.189 50.1222 140.252 50.3334C140.315 50.5235 140.399 50.6291 140.483 50.6291C140.609 50.6291 140.735 50.5658 140.862 50.4602C140.988 50.3546 141.114 50.2278 141.219 50.0588C141.324 49.911 141.408 49.7631 141.471 49.6153C141.534 49.4674 141.576 49.3407 141.576 49.2562C141.576 49.1717 141.576 49.0661 141.555 48.9183C141.555 48.7704 141.555 48.6226 141.555 48.4747C141.576 48.3269 141.597 48.2001 141.618 48.0945C141.639 47.9889 141.702 47.9255 141.786 47.9255C141.87 47.9255 141.975 47.9044 142.08 47.8622C142.206 47.8411 142.312 47.8199 142.417 47.841C142.522 47.8622 142.606 47.9467 142.669 48.0734C142.732 48.2001 142.753 48.4113 142.732 48.707C142.711 49.0239 142.732 49.2985 142.774 49.5519C142.816 49.8054 142.879 50.0377 142.942 50.2278C143.026 50.4179 143.11 50.5658 143.215 50.6925C143.32 50.8192 143.425 50.8826 143.551 50.9037C143.72 50.9248 143.846 50.9248 143.951 50.8826C144.056 50.8404 144.14 50.7981 144.224 50.7347C144.287 50.6714 144.35 50.6291 144.413 50.5869C144.455 50.5447 144.518 50.5235 144.56 50.5447C144.602 50.5658 144.623 50.6291 144.602 50.7347C144.581 50.8404 144.518 50.9671 144.434 51.0727C144.329 51.1994 144.203 51.3262 144.056 51.4318C143.888 51.5374 143.699 51.6219 143.467 51.643C143.131 51.7064 142.858 51.6852 142.606 51.5585C142.375 51.4529 142.185 51.3262 142.017 51.1572C141.849 50.9671 141.702 50.7559 141.597 50.5235C141.513 50.6925 141.429 50.8615 141.282 50.9882C141.156 51.1149 141.03 51.2206 140.841 51.3262C140.672 51.4318 140.441 51.4951 140.168 51.4951C139.895 51.4951 139.664 51.4107 139.433 51.2417C139.201 51.0727 139.012 50.8404 138.886 50.5447C138.76 50.2489 138.676 49.911 138.676 49.5308C138.655 49.1506 138.739 48.7282 138.928 48.3057C139.033 48.0311 139.201 47.7988 139.391 47.5876C139.58 47.3975 139.79 47.2285 140.021 47.1018C140.231 46.9751 140.462 46.8906 140.693 46.8272C140.904 46.7638 141.114 46.7427 141.282 46.7216C141.45 46.7216 141.597 46.7216 141.702 46.7638C141.828 46.8483 141.87 46.8906 141.87 46.9751Z" fill="#008C45"/>
<path d="M144.497 47.6087C144.539 47.5454 144.602 47.4609 144.686 47.3975C144.77 47.3342 144.854 47.2708 144.96 47.2285C145.044 47.1863 145.149 47.1441 145.233 47.1229C145.338 47.1018 145.401 47.0807 145.464 47.0807C145.485 47.0807 145.506 47.1229 145.527 47.1652C145.548 47.2285 145.569 47.313 145.59 47.3975C145.611 47.5031 145.611 47.6087 145.632 47.7355C145.632 47.8622 145.653 47.9889 145.653 48.1157C145.674 48.4114 145.674 48.7493 145.653 49.1506C145.758 48.9605 145.863 48.7704 145.968 48.5803C146.073 48.4325 146.178 48.2635 146.305 48.0945C146.431 47.9256 146.557 47.7777 146.704 47.6721C146.83 47.5665 146.977 47.4609 147.124 47.4186C147.271 47.3553 147.439 47.3342 147.586 47.3342C147.733 47.3553 147.881 47.3975 148.028 47.5031C148.175 47.6087 148.301 47.7566 148.406 47.9678C148.49 48.1157 148.532 48.2846 148.574 48.517C148.616 48.7282 148.637 48.9605 148.658 49.1929C148.679 49.4252 148.7 49.6576 148.7 49.911C148.721 50.1434 148.763 50.3757 148.805 50.5658C148.847 50.777 148.931 50.946 149.015 51.0938C149.099 51.2417 149.226 51.3262 149.394 51.3684C149.52 51.4107 149.667 51.4107 149.793 51.3896C149.919 51.3473 150.045 51.3051 150.171 51.2417C150.276 51.1783 150.381 51.1361 150.465 51.0938C150.549 51.0516 150.613 51.0516 150.655 51.0727C150.676 51.0938 150.676 51.1783 150.613 51.3262C150.549 51.4529 150.444 51.6008 150.297 51.7486C150.15 51.8965 149.961 52.0232 149.751 52.1077C149.52 52.2133 149.268 52.2344 148.994 52.2133C148.427 52.1288 148.028 51.8542 147.776 51.3473C147.523 50.8404 147.376 50.1645 147.334 49.3619C147.334 49.0661 147.292 48.8549 147.229 48.7071C147.166 48.5592 147.103 48.4959 147.019 48.4747C146.935 48.4747 146.83 48.517 146.704 48.6226C146.599 48.7282 146.473 48.8972 146.326 49.0873C146.157 49.3196 146.052 49.552 145.968 49.7843C145.884 50.0166 145.842 50.2279 145.821 50.4391C145.8 50.6503 145.779 50.8193 145.779 50.9882C145.779 51.1572 145.758 51.2628 145.716 51.3473C145.674 51.4318 145.59 51.4952 145.485 51.5163C145.359 51.5374 145.233 51.5585 145.107 51.5585C144.96 51.5585 144.833 51.5374 144.707 51.5163C144.581 51.4952 144.476 51.4529 144.434 51.3896C144.413 51.3684 144.392 51.2628 144.35 51.0727C144.329 50.8826 144.308 50.6714 144.308 50.4179C144.308 50.1645 144.308 49.8899 144.308 49.5731C144.308 49.2774 144.329 49.0028 144.329 48.7282C144.35 48.4536 144.35 48.2213 144.392 48.0312C144.434 47.7988 144.455 47.6721 144.497 47.6087Z" fill="#008C45"/>
<path d="M152.945 47.7355C152.987 47.2285 153.029 46.7639 153.05 46.3203C153.071 45.9401 153.092 45.5599 153.113 45.1797C153.134 44.7995 153.134 44.5249 153.113 44.3137C153.092 44.1236 153.134 43.9547 153.239 43.8068C153.344 43.6589 153.449 43.5111 153.597 43.4055C153.723 43.2999 153.87 43.2154 153.996 43.152C154.122 43.0887 154.227 43.0675 154.29 43.0675C154.353 43.0675 154.374 43.2154 154.395 43.5111C154.416 43.8068 154.416 44.2081 154.395 44.6728C154.395 45.1586 154.374 45.6867 154.353 46.2992C154.332 46.9117 154.332 47.5031 154.332 48.1157C154.332 48.686 154.374 49.1295 154.437 49.4886C154.5 49.8477 154.584 50.1222 154.668 50.3123C154.752 50.5024 154.857 50.6503 154.963 50.7348C155.068 50.8193 155.173 50.8826 155.257 50.9038C155.362 50.9249 155.446 50.946 155.509 50.946C155.572 50.946 155.614 50.9671 155.656 51.0305C155.677 51.0939 155.656 51.1783 155.572 51.284C155.488 51.3896 155.383 51.474 155.236 51.5585C155.089 51.643 154.899 51.6641 154.689 51.6641C154.479 51.6641 154.269 51.6008 154.038 51.474C153.849 51.3684 153.681 51.2206 153.597 51.0516C153.512 50.8826 153.428 50.6925 153.407 50.5236C153.365 50.3335 153.344 50.1222 153.344 49.911C153.176 50.2067 152.987 50.4813 152.756 50.7137C152.651 50.8193 152.546 50.9038 152.441 50.9882C152.315 51.0727 152.189 51.1572 152.041 51.2206C151.894 51.284 151.747 51.3473 151.579 51.3684C151.411 51.4107 151.243 51.4107 151.054 51.4107C150.865 51.3896 150.675 51.3262 150.507 51.1783C150.339 51.0305 150.213 50.8404 150.108 50.6292C150.003 50.418 149.919 50.1645 149.877 49.8899C149.835 49.6153 149.814 49.3407 149.835 49.0662C149.856 48.7916 149.898 48.5381 150.003 48.2846C150.087 48.0312 150.234 47.82 150.402 47.6299C150.528 47.5031 150.675 47.3975 150.802 47.3342C150.949 47.2708 151.096 47.2285 151.222 47.2074C151.369 47.1863 151.516 47.1863 151.663 47.2074C151.81 47.2285 151.957 47.2497 152.083 47.2919C152.315 47.3764 152.63 47.5243 152.945 47.7355ZM151.18 48.7493C151.117 48.9394 151.075 49.1295 151.054 49.3196C151.033 49.5097 151.033 49.6998 151.033 49.8688C151.054 50.0378 151.075 50.1645 151.096 50.2912C151.138 50.3968 151.18 50.4602 151.243 50.4813C151.348 50.5024 151.453 50.4813 151.579 50.418C151.705 50.3335 151.852 50.1856 152.041 49.9533C152.126 49.8477 152.231 49.6998 152.315 49.5097C152.399 49.3407 152.483 49.1718 152.546 49.0028C152.609 48.8338 152.651 48.686 152.672 48.5592C152.693 48.4325 152.672 48.348 152.609 48.3269C152.546 48.3058 152.441 48.2846 152.315 48.2635C152.189 48.2424 152.041 48.2424 151.894 48.2424C151.747 48.2635 151.6 48.3058 151.474 48.3691C151.348 48.4536 151.243 48.5803 151.18 48.7493Z" fill="#008C45"/>
<path d="M161.75 46.8906C162.086 47.1018 162.359 47.3553 162.549 47.6721C162.738 47.9678 162.864 48.3057 162.906 48.6226C162.948 48.9605 162.948 49.2985 162.885 49.6153C162.801 49.9532 162.696 50.249 162.507 50.5024C162.338 50.777 162.107 50.9882 161.834 51.1572C161.561 51.3262 161.267 51.4107 160.909 51.4318C160.468 51.4318 160.111 51.3473 159.817 51.1361C159.522 50.946 159.291 50.6714 159.144 50.3757C158.976 50.08 158.892 49.742 158.871 49.3618C158.85 49.0028 158.892 48.6437 158.997 48.3269C159.102 48.01 159.27 47.7355 159.501 47.5031C159.733 47.2708 160.048 47.1652 160.405 47.1229C160.741 47.1018 160.972 47.0596 161.12 47.0173C161.267 46.9751 161.372 46.9328 161.435 46.8906C161.498 46.8483 161.561 46.8272 161.582 46.8061C161.603 46.8272 161.666 46.8483 161.75 46.8906ZM160.426 47.8833C160.384 47.9255 160.342 48.0312 160.3 48.2001C160.279 48.3691 160.258 48.5803 160.237 48.8127C160.216 49.045 160.216 49.2774 160.237 49.5519C160.258 49.8054 160.279 50.0377 160.321 50.249C160.363 50.4602 160.426 50.6291 160.489 50.777C160.573 50.9037 160.657 50.9671 160.762 50.9671C160.867 50.946 160.972 50.8826 161.057 50.7559C161.162 50.6292 161.246 50.4813 161.33 50.2912C161.414 50.1011 161.477 49.911 161.519 49.6787C161.561 49.4463 161.603 49.2351 161.603 49.0239C161.603 48.8127 161.603 48.6226 161.561 48.4536C161.519 48.2846 161.456 48.1579 161.372 48.0523C161.162 47.8411 160.972 47.7143 160.825 47.6932C160.72 47.6721 160.573 47.7355 160.426 47.8833Z" fill="#008C45"/>
<path d="M164.734 47.3553C164.734 47.4397 164.713 47.5665 164.713 47.7355C164.713 47.9044 164.713 48.1156 164.713 48.348C164.713 48.5803 164.713 48.8127 164.734 49.045C164.755 49.2774 164.776 49.5097 164.818 49.6998C164.86 49.8899 164.902 50.0589 164.986 50.1856C165.07 50.3123 165.155 50.3757 165.281 50.3546C165.365 50.3546 165.47 50.2912 165.554 50.1856C165.659 50.08 165.743 49.9321 165.827 49.7632C165.911 49.5942 165.995 49.4041 166.058 49.1929C166.142 48.9816 166.205 48.7916 166.247 48.6226C166.31 48.4325 166.352 48.2846 166.373 48.1579C166.394 48.0312 166.415 47.9678 166.415 47.9467C166.415 47.8622 166.499 47.7777 166.626 47.6932C166.752 47.6298 166.899 47.5876 167.067 47.5665C167.235 47.5454 167.382 47.5665 167.529 47.6298C167.676 47.6932 167.76 47.7988 167.781 47.9467C167.802 48.0734 167.802 48.2213 167.781 48.4325C167.781 48.6437 167.76 48.876 167.76 49.1084C167.739 49.3407 167.739 49.6153 167.76 49.8688C167.76 50.1222 167.802 50.3546 167.865 50.5658C167.928 50.777 168.013 50.946 168.118 51.0727C168.223 51.1994 168.391 51.2628 168.601 51.2628C168.79 51.2628 168.916 51.2206 169.021 51.1572C169.105 51.0938 169.189 51.0094 169.231 50.946C169.294 50.8615 169.336 50.8193 169.378 50.777C169.42 50.7348 169.505 50.7348 169.61 50.777C169.631 50.7981 169.652 50.8404 169.652 50.9037C169.652 50.9882 169.631 51.0727 169.589 51.1783C169.547 51.2839 169.484 51.3895 169.399 51.4952C169.315 51.6008 169.21 51.7064 169.063 51.7909C168.916 51.8753 168.748 51.9387 168.559 51.981C168.37 52.0232 168.139 52.0021 167.865 51.9598C167.676 51.9387 167.508 51.8753 167.382 51.812C167.256 51.7486 167.13 51.6641 167.025 51.5585C166.92 51.474 166.857 51.3684 166.794 51.2417C166.731 51.115 166.689 51.0094 166.668 50.9037C166.584 50.6503 166.584 50.3546 166.605 50.0377C166.499 50.3334 166.373 50.5869 166.226 50.8193C166.1 51.0094 165.911 51.1783 165.701 51.3262C165.491 51.474 165.239 51.5163 164.923 51.474C164.608 51.4318 164.356 51.3262 164.167 51.1783C163.978 51.0305 163.81 50.8404 163.684 50.6292C163.557 50.4179 163.473 50.1645 163.41 49.911C163.347 49.6576 163.305 49.383 163.284 49.1295C163.263 48.9183 163.242 48.7071 163.242 48.4958C163.242 48.2846 163.242 48.0945 163.263 47.9044C163.284 47.7143 163.305 47.5665 163.326 47.4398C163.347 47.313 163.389 47.2285 163.431 47.1863C163.473 47.144 163.578 47.1018 163.705 47.0596C163.852 47.0173 163.999 46.9962 164.146 46.9751C164.293 46.9751 164.44 46.9962 164.566 47.0596C164.692 47.0807 164.755 47.2074 164.734 47.3553Z" fill="#008C45"/>
<path d="M169.694 43.6167C169.715 43.49 169.799 43.4055 169.925 43.3844C170.051 43.3632 170.198 43.4055 170.345 43.4689C170.492 43.5533 170.639 43.659 170.765 43.7857C170.892 43.9335 170.955 44.0814 170.955 44.2504C170.955 44.4193 170.976 44.6094 170.976 44.7784C170.976 44.9685 170.997 45.1164 170.997 45.2642C171.018 45.4332 171.018 45.6022 171.018 45.75C171.27 45.7289 171.501 45.7078 171.69 45.7289C171.858 45.75 172.026 45.7711 172.152 45.8134C172.279 45.8556 172.363 45.919 172.363 46.0246C172.363 46.1302 172.3 46.2147 172.173 46.2992C172.047 46.3837 171.9 46.447 171.732 46.4893C171.543 46.5527 171.312 46.5949 171.081 46.6371C171.102 47.1441 171.102 47.6299 171.123 48.0946C171.123 48.517 171.123 48.9394 171.123 49.4041C171.123 49.8477 171.102 50.249 171.081 50.5869C171.039 50.9249 170.976 51.1783 170.913 51.3262C170.829 51.4741 170.744 51.5797 170.639 51.6219C170.534 51.6641 170.429 51.6853 170.345 51.643C170.24 51.6219 170.156 51.5797 170.051 51.5374C170.009 51.5163 169.967 51.4529 169.925 51.3051C169.883 51.1572 169.862 50.9882 169.841 50.7559C169.82 50.5236 169.799 50.2701 169.778 49.9955C169.757 49.7209 169.757 49.4252 169.736 49.1295C169.715 48.4325 169.715 47.6721 169.715 46.8061C169.505 46.8484 169.315 46.8695 169.147 46.8695C169 46.8695 168.853 46.8484 168.727 46.8061C168.601 46.7639 168.517 46.6583 168.496 46.5315C168.475 46.4259 168.517 46.3203 168.643 46.2569C168.748 46.1725 168.895 46.1091 169.042 46.0457C169.21 45.9824 169.421 45.919 169.652 45.8556V45.6655C169.652 45.6233 169.652 45.5599 169.652 45.4966C169.652 45.4332 169.652 45.3909 169.652 45.3487C169.652 45.053 169.652 44.7995 169.652 44.6094C169.631 44.4193 169.631 44.2715 169.631 44.1448C169.631 44.018 169.631 43.9124 169.652 43.8491C169.652 43.7857 169.673 43.7012 169.694 43.6167Z" fill="#008C45"/>
<path d="M19.3545 21.3542C18.3038 21.4598 17.2741 21.6077 16.2654 21.8612C15.2567 22.1146 14.269 22.4314 13.3233 22.8539C11.453 23.6776 9.70879 24.8182 8.25877 26.2123C6.80876 27.6063 5.61092 29.2327 4.74932 31.0281C4.32902 31.9152 3.99279 32.8445 3.74061 33.795C3.48843 34.7455 3.36235 35.7171 3.2993 36.6887C3.17321 38.6319 3.4464 40.5963 4.07685 42.4128C4.70729 44.2292 5.67396 45.919 6.93485 47.3764C8.19573 48.8338 9.68777 50.0589 11.369 50.9882C13.0501 51.9176 14.8784 52.5513 16.7697 52.8259C17.2531 52.8892 17.7154 52.9526 18.1987 52.9948C18.3248 52.9948 18.4299 53.0159 18.556 53.0159H18.9132L19.2705 53.0371C19.2915 53.0371 19.3545 53.0371 19.3125 53.0371H19.3756L19.5227 53.0159C20.3633 52.9315 21.2669 52.6991 22.0444 52.3189C23.6415 51.6219 24.7763 50.3546 25.2807 48.7071C25.5329 47.8833 25.6379 46.9751 25.659 46.0457C25.6379 45.5599 25.6379 45.0952 25.5749 44.6094L25.4908 43.8913L25.3648 43.1731C25.3017 42.6873 25.1546 42.2015 25.0495 41.7157L24.9655 41.3567C24.9234 41.2299 24.9024 41.1243 24.8604 40.9976L24.6503 40.2794C24.5242 39.7936 24.335 39.3078 24.1669 38.8432C24.0829 38.6108 23.9988 38.3574 23.9147 38.125L23.6205 37.4069C23.2423 36.4564 22.801 35.5059 22.3807 34.5765L20.9937 31.7673C20.5104 30.8168 20.069 29.8452 19.6067 28.8947L18.9553 27.4373C18.7451 26.9515 18.535 26.4446 18.3248 25.9588C17.5263 23.9733 16.8118 21.9456 16.3494 19.8335C16.1183 18.7774 15.9502 17.7213 15.9081 16.6441C15.8871 15.5668 15.9712 14.4896 16.2864 13.4758C16.1603 14.5319 16.2023 15.588 16.3915 16.6018C16.5596 17.6157 16.8538 18.6295 17.211 19.6011C17.9045 21.5655 18.8082 23.4453 19.7538 25.304C20.7205 27.1628 21.7502 28.9792 22.822 30.7746C23.3473 31.6617 23.8937 32.6122 24.4191 33.5416C24.9234 34.492 25.4488 35.4425 25.8901 36.4353C26.8148 38.3996 27.6133 40.4484 28.1177 42.6451L28.3068 43.4689C28.3488 43.7434 28.3909 44.0391 28.4329 44.3137C28.538 44.8629 28.538 45.4543 28.601 46.0457C28.622 47.2285 28.517 48.4325 28.1807 49.6364C27.8445 50.8404 27.2351 52.0232 26.3945 52.9948C25.9742 53.5017 25.4908 53.9031 24.9865 54.3044C24.4611 54.6635 23.9358 55.0014 23.3684 55.276C22.801 55.5506 22.2336 55.7618 21.6451 55.9096C21.0567 56.0786 20.4683 56.1842 19.8379 56.2687L19.5857 56.2898H19.4386C19.3335 56.2898 19.3335 56.2898 19.2915 56.2898H18.8502H18.4089C18.2618 56.2898 18.1147 56.2687 17.9886 56.2687C17.4212 56.2265 16.8538 56.1631 16.2864 56.0786C14.0168 55.7195 11.8313 54.9592 9.83488 53.8397C7.83848 52.6991 6.05223 51.1995 4.60221 49.4252C3.1522 47.651 2.03842 45.581 1.38696 43.3632C1.05073 42.2649 0.840581 41.1243 0.735507 39.9837C0.651448 38.8432 0.651448 37.7026 0.798551 36.562C1.05073 34.302 1.78624 32.1053 2.90002 30.1409C4.0138 28.1766 5.50585 26.4869 7.22905 25.1139C10.7175 22.2836 15.1726 21.0163 19.3545 21.3542Z" fill="#83B863"/>
<path d="M19.3545 56.6489C8.67908 56.6489 0 48.2846 0 37.9771C0 27.6908 8.67908 19.3054 19.3545 19.3054C30.03 19.3054 38.7091 27.6697 38.7091 37.9771C38.7301 48.2846 30.051 56.6489 19.3545 56.6489ZM19.3545 24.3746C11.453 24.3746 5.0015 30.4789 5.0015 37.9983C5.0015 45.5176 11.432 51.6219 19.3545 51.6219C27.2561 51.6219 33.7076 45.5176 33.7076 37.9983C33.7076 30.4789 27.2771 24.3746 19.3545 24.3746Z" fill="#83B863"/>
<path d="M16.4546 12.8633C16.4546 12.8633 19.1024 3.40066 27.9496 0.802672C38.3729 -2.26 42.0295 4.16105 40.3483 6.48446C34.0019 15.2923 24.9025 0.485844 16.4546 12.8633Z" fill="#83B863"/>
<path d="M16.2865 13.3068C16.2865 13.3068 17.5054 6.84347 11.3481 5.15372C5.63209 3.5907 3.3625 8.04742 3.27844 8.40649C3.19438 8.76556 1.42915 14.1305 9.28865 10.8989C16.2235 8.0263 16.2865 13.3068 16.2865 13.3068Z" fill="#83B863"/>
<path d="M13.3442 60.5353C14.5421 60.3452 15.7609 60.2396 16.9588 60.1551C18.1566 60.0918 19.3755 60.0495 20.5733 60.0495C21.7711 60.0495 22.99 60.0918 24.1878 60.1551C25.3857 60.2396 26.6045 60.3241 27.8024 60.5353C26.6045 60.7254 25.3857 60.831 24.1878 60.9155C22.99 60.9789 21.7711 61.0211 20.5733 61.0211C19.3755 61.0211 18.1566 60.9789 16.9588 60.9155C15.7609 60.831 14.5631 60.7254 13.3442 60.5353Z" fill="#83B863"/>
<path d="M59.4507 20.4037C61.8674 20.6361 63.8217 21.5866 65.3138 23.1918C66.8689 24.8816 67.6674 27.0783 67.6674 29.7819C67.6674 32.2742 66.974 34.3231 65.608 35.9283C64.137 37.6392 62.0775 38.5686 59.4507 38.7164C59.2826 38.7375 59.1565 38.7375 59.0724 38.7375H58.9674H58.7782H58.6731C58.5891 38.7375 58.463 38.7375 58.2949 38.7164C55.668 38.5474 53.6086 37.6181 52.1376 35.9283C50.7716 34.3231 50.0781 32.2742 50.0781 29.7819C50.0781 27.0783 50.8557 24.8816 52.4108 23.1918C53.9028 21.5654 55.8572 20.6361 58.2739 20.4037C58.526 20.3615 58.7152 20.3615 58.8623 20.3615C59.0094 20.3404 59.1985 20.3615 59.4507 20.4037ZM58.8623 34.8933C59.9971 34.8933 60.9637 34.3864 61.7833 33.3726C62.6239 32.3165 63.0442 31.0492 63.0442 29.5495C63.0442 28.0499 62.6239 26.7825 61.7833 25.7265C60.9637 24.7126 59.9971 24.2057 58.8623 24.2057C57.7275 24.2057 56.7398 24.7126 55.9412 25.7265C55.1006 26.7825 54.6593 28.0499 54.6593 29.5495C54.6593 31.0492 55.0796 32.3376 55.9412 33.3726C56.7608 34.3864 57.7275 34.8933 58.8623 34.8933Z" fill="#E49248"/>
<path d="M74.0136 32.3376V36.1184C74.0136 36.731 73.8035 37.259 73.4042 37.7026C72.9839 38.1461 72.4795 38.3574 71.8701 38.3574H71.8281C71.2186 38.3574 70.7143 38.125 70.294 37.6603C69.8737 37.2379 69.6846 36.7098 69.6846 36.0973V22.9806C69.6846 22.3681 69.8947 21.84 70.294 21.3965C70.7353 20.9318 71.2397 20.6995 71.8491 20.6995H76.2622C76.4933 20.6995 76.7455 20.7206 77.0187 20.7417L77.1448 20.784C78.4687 20.9952 79.5615 21.6499 80.4231 22.7272C81.3057 23.8044 81.747 25.0506 81.747 26.4869C81.747 27.6486 81.4108 28.7891 80.7383 29.9086C79.8347 31.4505 78.4687 32.232 76.7035 32.2531L74.0136 32.3376ZM74.0346 28.768H75.5897C76.1361 28.768 76.5984 28.5357 76.9767 28.1132C77.397 27.6486 77.5861 27.0783 77.5861 26.4235C77.5861 25.7687 77.376 25.1984 76.9767 24.7337C76.5984 24.2902 76.1361 24.079 75.5897 24.079H74.0346V28.768Z" fill="#E49248"/>
<path d="M93.4733 22.8116C93.4733 22.1991 93.6834 21.671 94.1037 21.2064C94.524 20.7628 95.0494 20.5305 95.6588 20.5305H95.6798C96.2893 20.5305 96.8146 20.7628 97.2349 21.2064C97.6552 21.6499 97.8654 22.1991 97.8654 22.8116V30.7957C97.8654 32.8656 97.1719 34.6399 95.8059 36.1184C94.419 37.5969 92.7588 38.3362 90.7834 38.3362H90.6363C88.6189 38.3362 86.9167 37.5758 85.5087 36.0762C84.1007 34.5554 83.3862 32.7389 83.3862 30.6056V22.8116C83.3862 22.1991 83.5964 21.671 84.0167 21.2064C84.437 20.7628 84.9623 20.5305 85.5718 20.5305H85.6138C86.2232 20.5305 86.7486 20.7628 87.1689 21.2064C87.5892 21.6499 87.7993 22.1991 87.7993 22.8116V31.1548C87.7993 32.0208 88.0725 32.76 88.6399 33.3514C89.2073 33.9429 89.8588 34.2597 90.6363 34.2597H90.6994C91.4559 34.2597 92.1073 33.964 92.6537 33.3726C93.2001 32.7812 93.4733 32.0841 93.4733 31.2393V22.8116Z" fill="#E49248"/>
<path d="M106.481 27.7119C107.973 28.3033 109.045 29.0215 109.739 29.8664C110.453 30.7535 110.81 31.8307 110.81 33.098C110.81 34.6399 110.306 35.9072 109.297 36.9211C108.1 38.125 106.355 38.7164 104.065 38.7164C103.203 38.7164 102.131 38.5052 100.807 38.1039C100.324 37.956 99.9668 37.6603 99.7357 37.2168C99.4835 36.7521 99.4414 36.2874 99.5465 35.8016L99.5675 35.7594C99.6936 35.2313 99.9878 34.83 100.45 34.5554C100.912 34.2808 101.396 34.2175 101.921 34.3865C102.93 34.7244 103.707 34.8934 104.296 34.8934C104.989 34.8934 105.515 34.7455 105.893 34.4709C106.25 34.2175 106.439 33.8373 106.439 33.3726C106.439 32.9502 106.271 32.6122 105.956 32.3165C105.578 31.9997 104.926 31.6617 104.002 31.3027C100.933 30.1198 99.3994 28.3456 99.3994 25.9588C99.3994 24.3324 99.9878 23.0229 101.165 22.0301C102.341 21.0163 103.876 20.5094 105.767 20.5094C106.46 20.5094 107.364 20.6572 108.478 20.9741C108.982 21.1008 109.36 21.3965 109.613 21.8612C109.844 22.3047 109.907 22.7905 109.781 23.2763V23.3186C109.655 23.8044 109.381 24.1846 108.961 24.438C108.52 24.7126 108.057 24.776 107.553 24.6281C106.86 24.4169 106.25 24.3113 105.725 24.3113C105.073 24.3113 104.569 24.4592 104.233 24.7337C103.939 24.9661 103.791 25.2618 103.791 25.6209C103.791 26.0433 103.981 26.3813 104.38 26.677C104.716 26.9304 105.41 27.2895 106.481 27.7119Z" fill="#E49248"/>
<path d="M127.643 34.6822C128.126 34.6822 128.547 34.8723 128.883 35.2313C129.219 35.5693 129.387 35.9917 129.387 36.4775V36.5198C129.387 37.0056 129.219 37.428 128.883 37.766C128.547 38.125 128.126 38.3151 127.643 38.3151H120.792C120.078 38.3151 119.447 38.0405 118.943 37.4914C118.46 36.9633 118.208 36.3297 118.208 35.6115V23.5087C118.208 22.7694 118.46 22.1569 118.943 21.6288C119.447 21.0797 120.057 20.8262 120.792 20.8262H127.286C127.853 20.8262 128.316 21.0585 128.652 21.5232C128.988 21.9668 129.093 22.4737 128.988 23.0229L128.967 23.0651C128.883 23.4664 128.673 23.8255 128.358 24.1001C128.042 24.3536 127.685 24.4803 127.265 24.4803H122.621V26.4657H126.992C127.475 26.4657 127.895 26.6558 128.232 27.0149C128.568 27.3529 128.736 27.7753 128.736 28.2611V28.3034C128.736 28.7892 128.568 29.2116 128.232 29.5707C127.895 29.9297 127.496 30.0987 127.013 30.0987H122.642V34.6822H127.643Z" fill="#008C45"/>
<path d="M135.692 36.0762C135.692 36.6887 135.482 37.2168 135.061 37.6815C134.641 38.125 134.137 38.3362 133.527 38.3362H133.485C132.876 38.3362 132.372 38.125 131.951 37.6815C131.531 37.2379 131.321 36.6887 131.321 36.0762V23.1074C131.321 22.4948 131.531 21.9457 131.951 21.5021C132.372 21.0585 132.876 20.8473 133.485 20.8473H134.578C135.356 20.8473 135.965 21.1853 136.385 21.8612L142.564 31.4716V23.1074C142.564 22.4948 142.774 21.9668 143.173 21.5232C143.593 21.0585 144.119 20.8262 144.728 20.8262H144.77C145.38 20.8262 145.905 21.0585 146.304 21.481C146.725 21.9245 146.935 22.4737 146.935 23.0862V34.8723C146.935 35.8227 146.62 36.6254 145.968 37.3224C145.338 37.9983 144.56 38.3362 143.656 38.3362H143.593C142.375 38.3362 141.45 37.7871 140.819 36.6887L135.671 27.7331V36.0762H135.692Z" fill="#008C45"/>
<path d="M161.855 28.3667C162.381 28.3667 162.822 28.5568 163.158 28.937C163.515 29.3172 163.704 29.7607 163.704 30.2888V35.4214C163.704 36.1184 163.494 36.7309 163.095 37.259C162.675 37.8082 162.128 38.1461 161.477 38.294C161.183 38.3573 160.888 38.4207 160.594 38.4629C159.67 38.653 158.682 38.7586 157.61 38.7586C154.668 38.7586 152.378 37.9138 150.738 36.224C149.183 34.6399 148.406 32.5488 148.406 29.9931C148.406 27.1205 149.33 24.8393 151.201 23.1496C152.966 21.5443 155.215 20.7417 157.988 20.7417C158.661 20.7417 159.417 20.7839 160.258 20.8473C160.741 20.8895 161.099 21.1007 161.351 21.5021C161.603 21.9245 161.645 22.3469 161.498 22.7694L161.477 22.8116C161.162 23.6776 160.531 24.1212 159.628 24.1212H157.694C156.181 24.1212 154.899 24.7126 153.891 25.9165C152.84 27.1416 152.378 28.599 152.525 30.2676C152.63 31.6828 153.218 32.8868 154.29 33.9006C155.341 34.8933 156.538 35.3791 157.841 35.3791H158.367C158.64 35.3791 158.892 35.2735 159.081 35.0623C159.312 34.83 159.417 34.5343 159.417 34.1963V32.232C159.417 32.0208 159.354 31.8518 159.228 31.725C159.102 31.5983 158.976 31.535 158.829 31.535H157.757C157.169 31.535 156.791 31.2392 156.644 30.6267V30.6056C156.496 30.0775 156.601 29.5706 156.938 29.1059C157.274 28.6413 157.736 28.4089 158.304 28.4089H161.855V28.3667Z" fill="#008C45"/>
<path d="M167.361 20.7417C167.97 20.7417 168.496 20.974 168.916 21.4387C169.336 21.8823 169.546 22.4103 169.546 23.0228V34.5131H174.527C175.031 34.5131 175.452 34.7032 175.809 35.0834C176.124 35.4425 176.292 35.8649 176.292 36.3719V36.393C176.292 36.8999 176.124 37.3223 175.809 37.6814C175.452 38.0616 175.031 38.2517 174.527 38.2517H167.172C166.583 38.2517 166.1 38.0405 165.68 37.5969C165.28 37.1745 165.091 36.6676 165.091 36.0973V23.0228C165.091 22.4103 165.301 21.8611 165.722 21.4387C166.142 20.974 166.667 20.7417 167.277 20.7417H167.361Z" fill="#008C45"/>
<path d="M181.987 35.9494C181.987 36.5831 181.777 37.1111 181.357 37.5336C180.937 37.9982 180.411 38.2306 179.802 38.2306H179.76C179.129 38.2306 178.604 37.9982 178.184 37.5336C177.763 37.1111 177.553 36.562 177.553 35.9494V23.0228C177.553 22.3892 177.763 21.8611 178.184 21.4387C178.604 20.974 179.129 20.7417 179.76 20.7417H179.802C180.432 20.7417 180.937 20.974 181.357 21.4387C181.777 21.8823 181.987 22.4103 181.987 23.0228V35.9494Z" fill="#008C45"/>
<path d="M190.435 27.7119C191.928 28.3033 192.999 29.0215 193.693 29.8664C194.407 30.7535 194.764 31.8307 194.764 33.098C194.764 34.6399 194.26 35.9072 193.251 36.9211C192.054 38.125 190.309 38.7164 188.019 38.7164C187.157 38.7164 186.085 38.5052 184.762 38.1039C184.278 37.956 183.921 37.6603 183.69 37.2168C183.438 36.7521 183.396 36.2874 183.501 35.8016L183.522 35.7594C183.648 35.2313 183.942 34.83 184.404 34.5554C184.867 34.2808 185.35 34.2175 185.875 34.3865C186.884 34.7244 187.662 34.8934 188.25 34.8934C188.943 34.8934 189.469 34.7455 189.847 34.4709C190.204 34.2175 190.393 33.8373 190.393 33.3726C190.393 32.9502 190.225 32.6122 189.91 32.3165C189.532 31.9997 188.88 31.6617 187.956 31.3027C184.888 30.1198 183.354 28.3456 183.354 25.9588C183.354 24.3324 183.942 23.0229 185.119 22.0301C186.296 21.0163 187.83 20.5094 189.721 20.5094C190.414 20.5094 191.318 20.6572 192.432 20.9741C192.936 21.1008 193.314 21.3965 193.567 21.8612C193.798 22.3047 193.861 22.7905 193.735 23.2763V23.3186C193.609 23.8044 193.335 24.1846 192.915 24.438C192.474 24.7126 192.012 24.776 191.507 24.6281C190.793 24.4169 190.204 24.3113 189.679 24.3113C189.027 24.3113 188.523 24.4592 188.187 24.7337C187.893 24.9661 187.746 25.2618 187.746 25.6209C187.746 26.0433 187.935 26.3813 188.334 26.677C188.649 26.9304 189.364 27.2895 190.435 27.7119Z" fill="#008C45"/>
<path d="M200.795 25.8743H205.587V23.0228C205.587 22.3892 205.797 21.8611 206.217 21.4176C206.637 20.974 207.163 20.7417 207.772 20.7417H207.814C208.424 20.7417 208.949 20.974 209.369 21.4387C209.79 21.8823 210 22.4103 210 23.0228V35.9494C210 36.5831 209.79 37.1111 209.369 37.5336C208.949 37.9982 208.424 38.2306 207.814 38.2306H207.772C207.142 38.2306 206.616 37.9982 206.217 37.5547C205.797 37.1111 205.587 36.562 205.587 35.9494V29.7185H200.795V35.9494C200.795 36.5831 200.585 37.1111 200.165 37.5336C199.745 37.9982 199.219 38.2306 198.589 38.2306H198.568C197.937 38.2306 197.433 37.9982 197.013 37.5336C196.592 37.09 196.382 36.562 196.382 35.9494V23.0228C196.382 22.3892 196.592 21.8611 197.013 21.4387C197.433 20.974 197.958 20.7417 198.568 20.7417H198.589C199.219 20.7417 199.745 20.974 200.165 21.4387C200.585 21.8823 200.795 22.4103 200.795 23.0228V25.8743Z" fill="#008C45"/>
</g>
<defs>
<clipPath id="clip0">
<rect width="210" height="61" fill="white"/>
</clipPath>
</defs>
</svg>
